<svg width="138" height="288" viewBox="0 0 138 288" fill="none" xmlns="http://www.w3.org/2000/svg">
<path fill-rule="evenodd" clip-rule="evenodd" d="M135.077 0.0631966C133.697 0.0274436 132.549 1.11735 132.514 2.4976C132.478 3.87781 133.568 5.02572 134.948 5.06147C136.328 5.09723 137.476 4.00732 137.512 2.62707C137.548 1.24682 136.458 0.0989495 135.077 0.0631966ZM131.866 27.4889C131.902 26.1087 133.05 25.0188 134.43 25.0546C135.81 25.0903 136.9 26.2382 136.864 27.6185C136.829 28.9987 135.681 30.0886 134.3 30.0528C132.92 30.0171 131.83 28.8692 131.866 27.4889ZM133.782 50.0459C132.402 50.0102 131.254 51.1001 131.218 52.4803C131.183 53.8606 132.273 55.0085 133.653 55.0442C135.033 55.08 136.181 53.9901 136.217 52.6098C136.253 51.2296 135.163 50.0817 133.782 50.0459ZM130.571 77.4723C130.607 76.0921 131.755 75.0022 133.135 75.0379C134.515 75.0737 135.605 76.2216 135.569 77.6018C135.533 78.982 134.386 80.072 133.005 80.0362C131.625 80.0004 130.535 78.8525 130.571 77.4723ZM132.487 100.029C131.107 99.9935 129.959 101.083 129.923 102.464C129.888 103.844 130.978 104.992 132.358 105.028C133.738 105.063 134.886 103.973 134.922 102.593C134.957 101.213 133.868 100.065 132.487 100.029ZM129.276 127.455C129.312 126.075 130.46 124.985 131.84 125.021C133.22 125.056 134.31 126.204 134.274 127.585C134.238 128.965 133.091 130.055 131.71 130.019C130.33 129.983 129.24 128.835 129.276 127.455ZM131.192 150.013C129.812 149.977 128.664 151.067 128.628 152.447C128.593 153.827 129.683 154.975 131.063 155.011C132.443 155.047 133.591 153.957 133.627 152.577C133.662 151.196 132.573 150.048 131.192 150.013ZM127.981 177.438C128.017 176.058 129.165 174.968 130.545 175.003C131.926 175.039 133.016 176.187 132.98 177.567C132.944 178.947 131.796 180.037 130.416 180.002C129.036 179.966 127.946 178.818 127.981 177.438ZM129.898 199.995C128.518 199.96 127.37 201.049 127.334 202.43C127.298 203.81 128.388 204.958 129.768 204.994C131.149 205.029 132.297 203.939 132.332 202.559C132.368 201.179 131.278 200.031 129.898 199.995ZM126.686 227.421C126.722 226.041 127.87 224.951 129.25 224.987C130.631 225.022 131.72 226.17 131.685 227.551C131.649 228.931 130.501 230.021 129.121 229.985C127.741 229.949 126.651 228.801 126.686 227.421ZM128.603 249.978C127.223 249.942 126.075 251.032 126.039 252.412C126.003 253.793 127.093 254.941 128.473 254.976C129.854 255.012 131.001 253.922 131.037 252.542C131.073 251.162 129.983 250.014 128.603 249.978ZM127.955 274.969C126.575 274.934 125.427 276.024 125.391 277.404C125.356 278.784 126.446 279.932 127.826 279.968C129.206 280.003 130.354 278.914 130.39 277.533C130.425 276.153 129.336 275.005 127.955 274.969ZM100.362 278.793C100.398 277.413 101.546 276.323 102.926 276.359C104.306 276.394 105.396 277.542 105.36 278.923C105.324 280.303 104.177 281.393 102.796 281.357C101.416 281.321 100.326 280.173 100.362 278.793ZM103.573 251.367C102.193 251.332 101.045 252.421 101.009 253.802C100.974 255.182 102.064 256.33 103.444 256.366C104.824 256.401 105.972 255.311 106.008 253.931C106.043 252.551 104.954 251.403 103.573 251.367ZM101.657 228.81C101.693 227.43 102.841 226.34 104.221 226.376C105.601 226.412 106.691 227.56 106.655 228.94C106.619 230.32 105.472 231.41 104.091 231.374C102.711 231.338 101.621 230.191 101.657 228.81ZM104.868 201.385C103.488 201.349 102.34 202.439 102.304 203.819C102.269 205.199 103.359 206.347 104.739 206.383C106.119 206.419 107.267 205.329 107.303 203.948C107.339 202.568 106.249 201.42 104.868 201.385ZM102.952 178.828C102.988 177.447 104.136 176.357 105.516 176.393C106.896 176.429 107.986 177.577 107.95 178.957C107.915 180.337 106.767 181.427 105.386 181.392C104.006 181.356 102.916 180.208 102.952 178.828ZM106.163 151.401C104.783 151.366 103.635 152.455 103.599 153.836C103.563 155.216 104.653 156.364 106.033 156.4C107.414 156.435 108.561 155.345 108.597 153.965C108.633 152.585 107.543 151.437 106.163 151.401ZM104.246 128.844C104.282 127.464 105.43 126.374 106.81 126.41C108.191 126.446 109.28 127.594 109.245 128.974C109.209 130.354 108.061 131.444 106.681 131.408C105.301 131.372 104.211 130.225 104.246 128.844ZM107.458 101.418C106.078 101.382 104.93 102.472 104.894 103.852C104.858 105.233 105.948 106.38 107.328 106.416C108.709 106.452 109.856 105.362 109.892 103.982C109.928 102.602 108.838 101.454 107.458 101.418ZM105.542 78.8622C105.577 77.482 106.725 76.392 108.105 76.4278C109.486 76.4635 110.576 77.6114 110.54 78.9917C110.504 80.3719 109.356 81.4618 107.976 81.4261C106.596 81.3903 105.506 80.2424 105.542 78.8622ZM108.753 51.4364C107.373 51.4007 106.225 52.4906 106.189 53.8708C106.153 55.2511 107.243 56.3989 108.623 56.4347C110.004 56.4705 111.152 55.3805 111.187 54.0003C111.223 52.6201 110.133 51.4722 108.753 51.4364ZM106.837 28.8788C106.872 27.4986 108.02 26.4087 109.4 26.4444C110.781 26.4802 111.871 27.6281 111.835 29.0083C111.799 30.3886 110.651 31.4785 109.271 31.4427C107.891 31.407 106.801 30.2591 106.837 28.8788ZM110.048 1.45307C108.668 1.41732 107.52 2.50723 107.484 3.88747C107.448 5.26772 108.538 6.4156 109.918 6.45135C111.299 6.4871 112.447 5.3972 112.482 4.01695C112.518 2.63673 111.428 1.48883 110.048 1.45307ZM75.4091 280.326C75.4449 278.946 76.5928 277.856 77.973 277.892C79.3533 277.928 80.4432 279.075 80.4074 280.456C80.3717 281.836 79.2238 282.926 77.8435 282.89C76.4633 282.854 75.3734 281.706 75.4091 280.326ZM78.6205 252.9C77.2403 252.865 76.0924 253.955 76.0567 255.335C76.0209 256.715 77.1108 257.863 78.4911 257.899C79.8713 257.935 81.0192 256.845 81.055 255.464C81.0907 254.084 80.0008 252.936 78.6205 252.9ZM76.7042 230.344C76.7399 228.963 77.8878 227.873 79.2681 227.909C80.6483 227.945 81.7382 229.093 81.7025 230.473C81.6667 231.853 80.5188 232.943 79.1386 232.907C77.7583 232.872 76.6684 231.724 76.7042 230.344ZM79.9156 202.918C78.5354 202.882 77.3875 203.972 77.3517 205.352C77.316 206.732 78.4059 207.88 79.7861 207.916C81.1664 207.952 82.3142 206.862 82.35 205.482C82.3858 204.101 81.2958 202.954 79.9156 202.918ZM77.9992 180.361C78.035 178.981 79.1829 177.891 80.5631 177.926C81.9434 177.962 83.0333 179.11 82.9975 180.49C82.9618 181.871 81.8139 182.96 80.4336 182.925C79.0534 182.889 77.9635 181.741 77.9992 180.361ZM81.21 152.934C79.8298 152.899 78.6819 153.989 78.6461 155.369C78.6104 156.749 79.7003 157.897 81.0805 157.933C82.4608 157.968 83.6087 156.879 83.6444 155.498C83.6802 154.118 82.5903 152.97 81.21 152.934ZM79.2937 130.377C79.3294 128.997 80.4773 127.907 81.8575 127.943C83.2378 127.979 84.3277 129.127 84.2919 130.507C84.2562 131.887 83.1083 132.977 81.7281 132.941C80.3478 132.906 79.2579 131.758 79.2937 130.377ZM82.505 102.951C81.1248 102.915 79.9769 104.005 79.9411 105.385C79.9054 106.766 80.9953 107.914 82.3755 107.949C83.7558 107.985 84.9037 106.895 84.9394 105.515C84.9752 104.135 83.8853 102.987 82.505 102.951ZM80.5887 80.3953C80.6245 79.0151 81.7724 77.9252 83.1526 77.9609C84.5329 77.9967 85.6228 79.1446 85.587 80.5248C85.5513 81.9051 84.4034 82.995 83.0231 82.9592C81.6429 82.9235 80.553 81.7756 80.5887 80.3953ZM83.8002 52.9696C82.4199 52.9338 81.272 54.0237 81.2363 55.404C81.2005 56.7842 82.2904 57.9321 83.6707 57.9678C85.0509 58.0036 86.1988 56.9137 86.2346 55.5335C86.2703 54.1532 85.1804 53.0053 83.8002 52.9696ZM81.8838 30.412C81.9195 29.0318 83.0674 27.9418 84.4476 27.9776C85.8279 28.0133 86.9178 29.1612 86.882 30.5415C86.8463 31.9217 85.6984 33.0116 84.3182 32.9759C82.9379 32.9401 81.848 31.7922 81.8838 30.412ZM85.0952 2.98623C83.7149 2.95047 82.567 4.04038 82.5313 5.42062C82.4955 6.80087 83.5854 7.94875 84.9657 7.9845C86.3459 8.02025 87.4938 6.93035 87.5296 5.5501C87.5653 4.16988 86.4754 3.02198 85.0952 2.98623ZM50.4564 281.859C50.4921 280.479 51.64 279.389 53.0202 279.425C54.4005 279.461 55.4904 280.609 55.4546 281.989C55.4189 283.369 54.271 284.459 52.8908 284.423C51.5105 284.388 50.4206 283.24 50.4564 281.859ZM53.6678 254.434C52.2875 254.398 51.1396 255.488 51.1039 256.868C51.0681 258.248 52.158 259.396 53.5383 259.432C54.9185 259.468 56.0664 258.378 56.1022 256.998C56.1379 255.617 55.048 254.469 53.6678 254.434ZM51.7514 231.877C51.7872 230.496 52.9351 229.407 54.3153 229.442C55.6955 229.478 56.7855 230.626 56.7497 232.006C56.7139 233.386 55.566 234.476 54.1858 234.441C52.8056 234.405 51.7156 233.257 51.7514 231.877ZM54.9628 204.451C53.5826 204.415 52.4347 205.505 52.3989 206.885C52.3632 208.266 53.4531 209.413 54.8333 209.449C56.2136 209.485 57.3615 208.395 57.3972 207.015C57.433 205.635 56.3431 204.487 54.9628 204.451ZM53.0465 181.894C53.0822 180.514 54.2301 179.424 55.6104 179.46C56.9906 179.495 58.0805 180.643 58.0448 182.023C58.009 183.404 56.8611 184.494 55.4809 184.458C54.1006 184.422 53.0107 183.274 53.0465 181.894ZM56.2572 154.468C54.877 154.432 53.7291 155.522 53.6933 156.902C53.6576 158.282 54.7475 159.43 56.1277 159.466C57.508 159.502 58.6559 158.412 58.6916 157.031C58.7274 155.651 57.6375 154.503 56.2572 154.468ZM54.3409 131.911C54.3766 130.53 55.5245 129.44 56.9048 129.476C58.285 129.512 59.3749 130.66 59.3392 132.04C59.3034 133.42 58.1555 134.51 56.7753 134.475C55.395 134.439 54.3051 133.291 54.3409 131.911ZM57.5522 104.484C56.172 104.448 55.0241 105.538 54.9884 106.919C54.9526 108.299 56.0425 109.447 57.4228 109.483C58.803 109.518 59.9509 108.428 59.9866 107.048C60.0224 105.668 58.9325 104.52 57.5522 104.484ZM55.636 81.9285C55.6717 80.5483 56.8196 79.4583 58.1998 79.4941C59.5801 79.5298 60.67 80.6777 60.6342 82.058C60.5985 83.4382 59.4506 84.5281 58.0704 84.4924C56.6901 84.4566 55.6002 83.3087 55.636 81.9285ZM58.8474 54.5027C57.4672 54.467 56.3193 55.5569 56.2835 56.9371C56.2477 58.3174 57.3377 59.4652 58.7179 59.501C60.0981 59.5368 61.246 58.4468 61.2818 57.0666C61.3175 55.6864 60.2276 54.5385 58.8474 54.5027ZM56.931 31.9451C56.9667 30.5649 58.1146 29.475 59.4949 29.5107C60.8751 29.5465 61.965 30.6944 61.9293 32.0746C61.8935 33.4549 60.7456 34.5448 59.3654 34.509C57.9851 34.4733 56.8952 33.3254 56.931 31.9451ZM60.1424 4.51938C58.7622 4.48362 57.6143 5.57353 57.5785 6.95378C57.5428 8.33402 58.6327 9.4819 60.0129 9.51765C61.3931 9.55341 62.541 8.4635 62.5768 7.08325C62.6126 5.70303 61.5226 4.55513 60.1424 4.51938ZM25.5036 283.393C25.5393 282.012 26.6872 280.922 28.0675 280.958C29.4477 280.994 30.5376 282.142 30.5019 283.522C30.4661 284.902 29.3182 285.992 27.938 285.956C26.5577 285.921 25.4678 284.773 25.5036 283.393ZM28.715 255.967C27.3348 255.931 26.1869 257.021 26.1511 258.401C26.1153 259.781 27.2053 260.929 28.5855 260.965C29.9657 261.001 31.1136 259.911 31.1494 258.531C31.1852 257.15 30.0952 256.003 28.715 255.967ZM26.7986 233.41C26.8344 232.03 27.9823 230.94 29.3625 230.975C30.7428 231.011 31.8327 232.159 31.7969 233.539C31.7612 234.92 30.6133 236.009 29.233 235.974C27.8528 235.938 26.7629 234.79 26.7986 233.41ZM30.01 205.984C28.6298 205.948 27.4819 207.038 27.4462 208.418C27.4104 209.799 28.5003 210.947 29.8806 210.982C31.2608 211.018 32.4087 209.928 32.4444 208.548C32.4802 207.168 31.3903 206.02 30.01 205.984ZM28.0937 183.427C28.1295 182.047 29.2773 180.957 30.6576 180.993C32.0378 181.028 33.1277 182.176 33.092 183.557C33.0562 184.937 31.9083 186.027 30.5281 185.991C29.1478 185.955 28.0579 184.807 28.0937 183.427ZM31.3045 156.001C29.9242 155.965 28.7763 157.055 28.7406 158.435C28.7048 159.815 29.7947 160.963 31.175 160.999C32.5552 161.035 33.7031 159.945 33.7389 158.565C33.7746 157.184 32.6847 156.036 31.3045 156.001ZM29.3881 133.444C29.4239 132.064 30.5717 130.974 31.952 131.009C33.3322 131.045 34.4222 132.193 34.3864 133.573C34.3506 134.954 33.2027 136.043 31.8225 136.008C30.4422 135.972 29.3523 134.824 29.3881 133.444ZM32.5995 106.017C31.2192 105.982 30.0713 107.072 30.0356 108.452C29.9998 109.832 31.0897 110.98 32.47 111.016C33.8502 111.051 34.9981 109.962 35.0339 108.581C35.0696 107.201 33.9797 106.053 32.5995 106.017ZM30.6832 83.4616C30.719 82.0814 31.8668 80.9915 33.2471 81.0272C34.6273 81.063 35.7172 82.2109 35.6815 83.5911C35.6457 84.9714 34.4978 86.0613 33.1176 86.0255C31.7373 85.9898 30.6474 84.8419 30.6832 83.4616ZM33.8946 56.0359C32.5144 56.0001 31.3665 57.09 31.3307 58.4703C31.295 59.8505 32.3849 60.9984 33.7651 61.0341C35.1454 61.0699 36.2932 59.98 36.329 58.5998C36.3648 57.2195 35.2748 56.0716 33.8946 56.0359ZM31.9782 33.4783C32.014 32.0981 33.1619 31.0081 34.5421 31.0439C35.9223 31.0796 37.0123 32.2275 36.9765 33.6078C36.9407 34.988 35.7928 36.0779 34.4126 36.0422C33.0324 36.0064 31.9424 34.8585 31.9782 33.4783ZM35.1896 6.05253C33.8094 6.01677 32.6615 7.10668 32.6257 8.48693C32.59 9.86718 33.6799 11.0151 35.0601 11.0508C36.4404 11.0866 37.5883 9.99665 37.624 8.6164C37.6598 7.23619 36.5699 6.08828 35.1896 6.05253ZM0.550793 284.926C0.586562 283.545 1.73445 282.456 3.1147 282.491C4.49493 282.527 5.58485 283.675 5.54908 285.055C5.51333 286.435 4.36544 287.525 2.98521 287.49C1.60496 287.454 0.51504 286.306 0.550793 284.926ZM3.76223 257.5C2.38198 257.464 1.23409 258.554 1.19834 259.934C1.16257 261.315 2.25249 262.462 3.63273 262.498C5.01297 262.534 6.16086 261.444 6.19661 260.064C6.23238 258.684 5.14246 257.536 3.76223 257.5ZM1.84586 234.943C1.88161 233.563 3.02951 232.473 4.40975 232.509C5.78999 232.544 6.87991 233.692 6.84414 235.072C6.80839 236.453 5.6605 237.543 4.28026 237.507C2.90001 237.471 1.81009 236.323 1.84586 234.943ZM5.05667 207.517C3.67642 207.481 2.52853 208.571 2.49278 209.952C2.45701 211.332 3.54693 212.48 4.92718 212.516C6.30741 212.551 7.4553 211.461 7.49106 210.081C7.52682 208.701 6.4369 207.553 5.05667 207.517ZM3.14031 184.96C3.17606 183.58 4.32395 182.49 5.7042 182.526C7.08443 182.562 8.17435 183.71 8.1386 185.09C8.10283 186.47 6.95494 187.56 5.57471 187.524C4.19446 187.488 3.10454 186.34 3.14031 184.96ZM6.35169 157.534C4.97144 157.498 3.82355 158.588 3.7878 159.968C3.75203 161.349 4.84195 162.496 6.2222 162.532C7.60243 162.568 8.75032 161.478 8.78609 160.098C8.82184 158.718 7.73192 157.57 6.35169 157.534ZM4.43471 134.977C4.47047 133.597 5.61836 132.507 6.9986 132.543C8.37884 132.578 9.46876 133.726 9.433 135.106C9.39724 136.487 8.24935 137.577 6.86911 137.541C5.48886 137.505 4.39895 136.357 4.43471 134.977ZM7.64609 107.551C6.26585 107.515 5.11797 108.605 5.0822 109.985C5.04645 111.365 6.13635 112.513 7.5166 112.549C8.89684 112.585 10.0447 111.495 10.0805 110.114C10.1162 108.734 9.02633 107.586 7.64609 107.551ZM5.73102 84.9947C5.76679 83.6145 6.91468 82.5246 8.29491 82.5604C9.67515 82.5961 10.7651 83.744 10.7293 85.1242C10.6935 86.5045 9.54566 87.5944 8.16542 87.5586C6.78517 87.5229 5.69527 86.375 5.73102 84.9947ZM8.94183 57.569C7.5616 57.5333 6.41371 58.6232 6.37794 60.0034C6.34219 61.3837 7.43209 62.5315 8.81234 62.5673C10.1926 62.6031 11.3405 61.5131 11.3762 60.1329C11.412 58.7527 10.3221 57.6048 8.94183 57.569ZM7.02543 35.0114C7.0612 33.6312 8.20909 32.5413 9.58932 32.577C10.9696 32.6128 12.0595 33.7607 12.0237 35.1409C11.988 36.5212 10.8401 37.6111 9.45983 37.5753C8.07958 37.5396 6.98968 36.3917 7.02543 35.0114ZM10.2368 7.58568C8.85662 7.54992 7.70872 8.63983 7.67296 10.0201C7.6372 11.4003 8.72711 12.5482 10.1074 12.584C11.4876 12.6197 12.6355 11.5298 12.6712 10.1496C12.707 8.76934 11.6171 7.62143 10.2368 7.58568Z" fill="#DADDEC"/>
</svg>
