<svg width="1205" height="696" viewBox="0 0 1205 696" fill="none" xmlns="http://www.w3.org/2000/svg">
<path fill-rule="evenodd" clip-rule="evenodd" d="M100 509H17.0073L0 696H82.9927L100 509ZM44 648.959C44.3823 648.987 44.7659 649 45.15 649C53.3687 649 60 642.715 60 634.996C60 627.278 53.3687 621 45.15 621C38.6487 621 32.9627 624.917 31 630.753L36.051 632.462C36.6012 630.822 37.6406 629.422 39 628.377V655H44V648.959ZM44 643.594C44.3766 643.636 44.7558 643.657 45.1356 643.656C50.3887 643.656 54.6531 639.768 54.6531 634.967C54.6531 630.167 50.4031 626.344 45.15 626.344C44.7615 626.344 44.3776 626.365 44 626.405V643.594ZM56 668H34V663H56V668Z" fill="#14146D"/>
<path d="M111.975 622.5V633H114.045V629.55H115.89C116.895 629.55 117.75 629.205 118.44 628.53C119.13 627.855 119.475 627.015 119.475 626.025C119.475 625.035 119.13 624.195 118.44 623.52C117.75 622.845 116.895 622.5 115.89 622.5H111.975ZM114.045 627.615V624.435H115.89C116.775 624.435 117.42 625.11 117.42 626.025C117.42 626.925 116.775 627.615 115.89 627.615H114.045ZM125.935 626.385C125.35 625.65 124.54 625.29 123.49 625.29C122.485 625.29 121.63 625.68 120.91 626.445C120.205 627.21 119.845 628.14 119.845 629.25C119.845 630.36 120.205 631.305 120.91 632.07C121.63 632.835 122.485 633.21 123.49 633.21C124.54 633.21 125.35 632.85 125.935 632.115V633H127.87V625.5H125.935V626.385ZM122.365 630.78C121.975 630.375 121.78 629.865 121.78 629.25C121.78 628.635 121.975 628.125 122.365 627.735C122.755 627.33 123.25 627.135 123.85 627.135C124.45 627.135 124.945 627.33 125.335 627.735C125.74 628.125 125.935 628.635 125.935 629.25C125.935 629.865 125.74 630.375 125.335 630.78C124.945 631.17 124.45 631.365 123.85 631.365C123.25 631.365 122.755 631.17 122.365 630.78ZM131.559 633V622.05H129.624V633H131.559ZM141.625 625.29C140.635 625.29 139.885 625.65 139.39 626.37C138.955 625.65 138.265 625.29 137.35 625.29C136.405 625.29 135.715 625.62 135.265 626.295V625.5H133.33V633H135.265V628.785C135.265 627.69 135.82 627.09 136.675 627.09C137.47 627.09 137.935 627.615 137.935 628.515V633H139.87V628.785C139.87 627.69 140.38 627.09 141.265 627.09C142.06 627.09 142.525 627.615 142.525 628.515V633H144.46V628.38C144.46 626.505 143.35 625.29 141.625 625.29ZM153.394 630.045C153.439 629.76 153.469 629.505 153.469 629.25C153.469 628.125 153.109 627.195 152.389 626.43C151.684 625.665 150.769 625.29 149.674 625.29C148.519 625.29 147.559 625.665 146.824 626.43C146.089 627.18 145.714 628.125 145.714 629.25C145.714 630.39 146.089 631.335 146.839 632.085C147.589 632.835 148.579 633.21 149.824 633.21C151.264 633.21 152.359 632.67 153.094 631.605L151.534 630.705C151.159 631.2 150.589 631.455 149.854 631.455C148.699 631.455 147.994 630.99 147.739 630.045H153.394ZM147.709 628.545C147.934 627.585 148.639 627.03 149.674 627.03C150.559 627.03 151.309 627.525 151.534 628.545H147.709ZM156.755 625.5H154.82V633H156.755V629.415C156.755 628.695 156.98 628.185 157.445 627.87C157.91 627.555 158.45 627.435 159.035 627.51V625.35C158.015 625.35 157.115 625.83 156.755 626.79V625.5ZM161.126 624.6C161.786 624.6 162.326 624.06 162.326 623.415C162.326 622.77 161.786 622.215 161.126 622.215C160.481 622.215 159.941 622.77 159.941 623.415C159.941 624.06 160.481 624.6 161.126 624.6ZM162.101 633V625.5H160.166V633H162.101ZM111.975 639.5V650H116.145C117.585 650 118.785 649.49 119.745 648.485C120.72 647.48 121.2 646.235 121.2 644.75C121.2 643.265 120.72 642.02 119.745 641.015C118.785 640.01 117.585 639.5 116.145 639.5H111.975ZM114.045 648.02V641.48H116.145C117.06 641.48 117.795 641.78 118.365 642.395C118.935 642.995 119.22 643.775 119.22 644.75C119.22 645.725 118.935 646.505 118.365 647.12C117.795 647.72 117.06 648.02 116.145 648.02H114.045ZM129.868 647.045C129.913 646.76 129.943 646.505 129.943 646.25C129.943 645.125 129.583 644.195 128.863 643.43C128.158 642.665 127.243 642.29 126.148 642.29C124.993 642.29 124.033 642.665 123.298 643.43C122.563 644.18 122.188 645.125 122.188 646.25C122.188 647.39 122.563 648.335 123.313 649.085C124.063 649.835 125.053 650.21 126.298 650.21C127.738 650.21 128.833 649.67 129.568 648.605L128.008 647.705C127.633 648.2 127.063 648.455 126.328 648.455C125.173 648.455 124.468 647.99 124.213 647.045H129.868ZM124.183 645.545C124.408 644.585 125.113 644.03 126.148 644.03C127.033 644.03 127.783 644.525 128.008 645.545H124.183ZM132.786 644.63C132.786 644.255 133.161 644.015 133.656 644.015C134.211 644.015 134.616 644.27 134.856 644.78L136.506 643.88C135.921 642.86 134.871 642.29 133.656 642.29C132.846 642.29 132.171 642.5 131.616 642.935C131.076 643.355 130.806 643.94 130.806 644.675C130.806 646.235 132.201 646.7 133.311 646.985C134.076 647.18 134.676 647.405 134.676 647.81C134.676 648.245 134.331 648.455 133.641 648.455C132.876 648.455 132.396 648.125 132.171 647.48L130.491 648.425C131.046 649.61 132.096 650.21 133.641 650.21C134.496 650.21 135.216 650 135.786 649.595C136.371 649.175 136.656 648.575 136.656 647.81C136.671 646.205 135.246 645.68 134.151 645.455C133.386 645.26 132.786 645.035 132.786 644.63ZM138.861 641.6C139.521 641.6 140.061 641.06 140.061 640.415C140.061 639.77 139.521 639.215 138.861 639.215C138.216 639.215 137.676 639.77 137.676 640.415C137.676 641.06 138.216 641.6 138.861 641.6ZM139.836 650V642.5H137.901V650H139.836ZM147.352 643.43C146.782 642.665 145.987 642.29 144.952 642.29C143.902 642.29 143.017 642.665 142.297 643.415C141.577 644.165 141.217 645.065 141.217 646.13C141.217 647.195 141.577 648.11 142.282 648.86C143.002 649.595 143.887 649.97 144.952 649.97C145.987 649.97 146.782 649.595 147.352 648.83V649.64C147.352 650.825 146.602 651.485 145.387 651.485C144.457 651.485 143.797 651.14 143.422 650.435L141.772 651.38C142.432 652.58 143.707 653.21 145.327 653.21C146.407 653.21 147.322 652.91 148.087 652.295C148.852 651.68 149.242 650.795 149.242 649.64V642.5H147.352V643.43ZM147.352 646.13C147.352 647.33 146.467 648.185 145.252 648.185C144.037 648.185 143.152 647.33 143.152 646.13C143.152 645.545 143.347 645.05 143.737 644.675C144.142 644.285 144.637 644.09 145.252 644.09C145.867 644.09 146.362 644.285 146.752 644.675C147.157 645.05 147.352 645.545 147.352 646.13ZM155.166 642.29C154.146 642.29 153.396 642.635 152.931 643.34V642.5H150.996V650H152.931V645.95C152.931 644.705 153.576 644.09 154.581 644.09C155.481 644.09 156.066 644.63 156.066 645.635V650H158.001V645.395C158.001 644.42 157.731 643.67 157.191 643.115C156.666 642.56 155.991 642.29 155.166 642.29ZM170.949 647.915C171.369 647.255 171.669 646.52 171.864 645.71L170.124 644.72C170.004 645.41 169.839 645.995 169.614 646.46L167.364 644C166.764 643.355 166.509 642.965 166.509 642.41C166.509 641.765 167.034 641.3 167.754 641.3C168.489 641.3 169.014 641.72 169.299 642.56L171.069 641.54C170.484 640.085 169.224 639.29 167.724 639.29C166.779 639.29 165.984 639.575 165.369 640.145C164.754 640.7 164.439 641.435 164.439 642.32C164.439 642.95 164.604 643.535 164.949 644.075C163.809 644.735 163.194 645.845 163.194 647.09C163.194 648.035 163.539 648.8 164.214 649.37C164.904 649.925 165.789 650.21 166.869 650.21C167.934 650.21 168.879 649.91 169.689 649.31L170.649 650.345L172.299 649.4L170.949 647.915ZM167.004 648.305C165.879 648.305 165.279 647.735 165.279 646.88C165.279 646.25 165.549 645.77 166.104 645.425C166.104 645.44 166.119 645.455 166.134 645.47L168.399 647.93C167.994 648.185 167.529 648.305 167.004 648.305ZM180.921 650.21C182.046 650.21 182.961 649.925 183.666 649.355C184.371 648.785 184.731 648.02 184.731 647.045C184.731 646.445 184.566 645.92 184.341 645.56C184.146 645.2 183.666 644.825 183.351 644.63C183.201 644.525 182.976 644.42 182.691 644.315C182.406 644.195 182.181 644.105 182.016 644.06L181.296 643.82C180.516 643.58 179.991 643.355 179.706 643.16C179.436 642.95 179.301 642.68 179.301 642.35C179.301 641.735 179.826 641.3 180.681 641.3C181.596 641.3 182.271 641.75 182.691 642.65L184.431 641.645C183.711 640.16 182.376 639.29 180.681 639.29C179.736 639.29 178.911 639.575 178.236 640.145C177.561 640.7 177.231 641.465 177.231 642.41C177.231 643.37 177.576 644.09 178.221 644.57C178.881 645.035 179.451 645.26 180.396 645.545C181.251 645.785 181.836 646.01 182.166 646.22C182.496 646.415 182.661 646.7 182.661 647.075C182.661 647.72 182.136 648.185 180.981 648.185C179.781 648.185 178.971 647.645 178.566 646.58L176.796 647.615C177.381 649.22 178.836 650.21 180.921 650.21ZM194.153 639.5L191.153 644.465L188.138 639.5H186.008V650H188.078V643.205L191.033 648.065H191.273L194.228 643.19V650H196.283V639.5H194.153ZM206.385 639.5L203.385 644.465L200.37 639.5H198.24V650H200.31V643.205L203.265 648.065H203.505L206.46 643.19V650H208.515V639.5H206.385ZM120.975 667L117.285 656.5H114.72L111.045 667H113.28L113.91 665.11H118.095L118.725 667H120.975ZM116.01 658.885L117.45 663.175H114.57L116.01 658.885ZM127.444 660.43C126.874 659.665 126.079 659.29 125.044 659.29C123.994 659.29 123.109 659.665 122.389 660.415C121.669 661.165 121.309 662.065 121.309 663.13C121.309 664.195 121.669 665.11 122.374 665.86C123.094 666.595 123.979 666.97 125.044 666.97C126.079 666.97 126.874 666.595 127.444 665.83V666.64C127.444 667.825 126.694 668.485 125.479 668.485C124.549 668.485 123.889 668.14 123.514 667.435L121.864 668.38C122.524 669.58 123.799 670.21 125.419 670.21C126.499 670.21 127.414 669.91 128.179 669.295C128.944 668.68 129.334 667.795 129.334 666.64V659.5H127.444V660.43ZM127.444 663.13C127.444 664.33 126.559 665.185 125.344 665.185C124.129 665.185 123.244 664.33 123.244 663.13C123.244 662.545 123.439 662.05 123.829 661.675C124.234 661.285 124.729 661.09 125.344 661.09C125.959 661.09 126.454 661.285 126.844 661.675C127.249 662.05 127.444 662.545 127.444 663.13ZM138.379 664.045C138.424 663.76 138.454 663.505 138.454 663.25C138.454 662.125 138.094 661.195 137.374 660.43C136.669 659.665 135.754 659.29 134.659 659.29C133.504 659.29 132.544 659.665 131.809 660.43C131.074 661.18 130.699 662.125 130.699 663.25C130.699 664.39 131.074 665.335 131.824 666.085C132.574 666.835 133.564 667.21 134.809 667.21C136.249 667.21 137.344 666.67 138.079 665.605L136.519 664.705C136.144 665.2 135.574 665.455 134.839 665.455C133.684 665.455 132.979 664.99 132.724 664.045H138.379ZM132.694 662.545C132.919 661.585 133.624 661.03 134.659 661.03C135.544 661.03 136.294 661.525 136.519 662.545H132.694ZM143.975 659.29C142.955 659.29 142.205 659.635 141.74 660.34V659.5H139.805V667H141.74V662.95C141.74 661.705 142.385 661.09 143.39 661.09C144.29 661.09 144.875 661.63 144.875 662.635V667H146.81V662.395C146.81 661.42 146.54 660.67 146 660.115C145.475 659.56 144.8 659.29 143.975 659.29ZM152.032 667.21C153.487 667.21 154.762 666.445 155.422 665.26L153.742 664.3C153.442 664.915 152.797 665.29 152.017 665.29C151.432 665.29 150.952 665.095 150.577 664.72C150.202 664.33 150.007 663.835 150.007 663.25C150.007 662.05 150.862 661.195 152.017 661.195C152.782 661.195 153.427 661.585 153.727 662.2L155.392 661.225C154.777 660.04 153.487 659.29 152.032 659.29C150.907 659.29 149.962 659.665 149.197 660.43C148.447 661.195 148.072 662.125 148.072 663.25C148.072 664.375 148.447 665.305 149.197 666.07C149.962 666.835 150.907 667.21 152.032 667.21ZM159.729 664.54L157.779 659.5H155.664L158.739 666.76C158.379 667.78 157.809 668.215 156.774 668.2V670C158.694 670.105 159.954 669.16 160.734 667L163.464 659.5H161.394L159.729 664.54Z" fill="#14146D"/>
<path d="M7 481L140 475V536L7 542V481Z" fill="white"/>
<path d="M58.2691 50.5043L1267.65 0.00585938L1234.71 480.474L14.5 536L58.2691 50.5043Z" fill="#14146D"/>
</svg>
