<svg width="1627" height="938" viewBox="0 0 1627 938" fill="none" xmlns="http://www.w3.org/2000/svg">
<path fill-rule="evenodd" clip-rule="evenodd" d="M160.333 688.667H49.6765L27 938H137.657L160.333 688.667ZM85.6668 875.278C86.1765 875.315 86.688 875.334 87.2001 875.333C98.1583 875.333 107 866.953 107 856.662C107 846.37 98.1583 838 87.2001 838C78.5316 838 70.9502 843.223 68.3333 851.004L75.068 853.283C75.8016 851.096 77.1876 849.23 79.0001 847.836V883.333H85.6668V875.278ZM85.6668 868.126C86.1689 868.181 86.6744 868.209 87.1808 868.208C94.1849 868.208 99.8709 863.024 99.8709 856.623C99.8709 850.222 94.2041 845.125 87.2001 845.125C86.682 845.125 86.1702 845.153 85.6668 845.207V868.126ZM101.667 900.667H72.3334V894H101.667V900.667Z" fill="#14146D"/>
<path d="M175.975 839.167V849.667H178.045V846.217H179.89C180.895 846.217 181.75 845.872 182.44 845.197C183.13 844.522 183.475 843.682 183.475 842.692C183.475 841.702 183.13 840.862 182.44 840.187C181.75 839.512 180.895 839.167 179.89 839.167H175.975ZM178.045 844.282V841.102H179.89C180.775 841.102 181.42 841.777 181.42 842.692C181.42 843.592 180.775 844.282 179.89 844.282H178.045ZM189.935 843.052C189.35 842.317 188.54 841.957 187.49 841.957C186.485 841.957 185.63 842.347 184.91 843.112C184.205 843.877 183.845 844.807 183.845 845.917C183.845 847.027 184.205 847.972 184.91 848.737C185.63 849.502 186.485 849.877 187.49 849.877C188.54 849.877 189.35 849.517 189.935 848.782V849.667H191.87V842.167H189.935V843.052ZM186.365 847.447C185.975 847.042 185.78 846.532 185.78 845.917C185.78 845.302 185.975 844.792 186.365 844.402C186.755 843.997 187.25 843.802 187.85 843.802C188.45 843.802 188.945 843.997 189.335 844.402C189.74 844.792 189.935 845.302 189.935 845.917C189.935 846.532 189.74 847.042 189.335 847.447C188.945 847.837 188.45 848.032 187.85 848.032C187.25 848.032 186.755 847.837 186.365 847.447ZM195.559 849.667V838.717H193.624V849.667H195.559ZM205.625 841.957C204.635 841.957 203.885 842.317 203.39 843.037C202.955 842.317 202.265 841.957 201.35 841.957C200.405 841.957 199.715 842.287 199.265 842.962V842.167H197.33V849.667H199.265V845.452C199.265 844.357 199.82 843.757 200.675 843.757C201.47 843.757 201.935 844.282 201.935 845.182V849.667H203.87V845.452C203.87 844.357 204.38 843.757 205.265 843.757C206.06 843.757 206.525 844.282 206.525 845.182V849.667H208.46V845.047C208.46 843.172 207.35 841.957 205.625 841.957ZM217.394 846.712C217.439 846.427 217.469 846.172 217.469 845.917C217.469 844.792 217.109 843.862 216.389 843.097C215.684 842.332 214.769 841.957 213.674 841.957C212.519 841.957 211.559 842.332 210.824 843.097C210.089 843.847 209.714 844.792 209.714 845.917C209.714 847.057 210.089 848.002 210.839 848.752C211.589 849.502 212.579 849.877 213.824 849.877C215.264 849.877 216.359 849.337 217.094 848.272L215.534 847.372C215.159 847.867 214.589 848.122 213.854 848.122C212.699 848.122 211.994 847.657 211.739 846.712H217.394ZM211.709 845.212C211.934 844.252 212.639 843.697 213.674 843.697C214.559 843.697 215.309 844.192 215.534 845.212H211.709ZM220.755 842.167H218.82V849.667H220.755V846.082C220.755 845.362 220.98 844.852 221.445 844.537C221.91 844.222 222.45 844.102 223.035 844.177V842.017C222.015 842.017 221.115 842.497 220.755 843.457V842.167ZM225.126 841.267C225.786 841.267 226.326 840.727 226.326 840.082C226.326 839.437 225.786 838.882 225.126 838.882C224.481 838.882 223.941 839.437 223.941 840.082C223.941 840.727 224.481 841.267 225.126 841.267ZM226.101 849.667V842.167H224.166V849.667H226.101ZM175.975 856.167V866.667H180.145C181.585 866.667 182.785 866.157 183.745 865.152C184.72 864.147 185.2 862.902 185.2 861.417C185.2 859.932 184.72 858.687 183.745 857.682C182.785 856.677 181.585 856.167 180.145 856.167H175.975ZM178.045 864.687V858.147H180.145C181.06 858.147 181.795 858.447 182.365 859.062C182.935 859.662 183.22 860.442 183.22 861.417C183.22 862.392 182.935 863.172 182.365 863.787C181.795 864.387 181.06 864.687 180.145 864.687H178.045ZM193.868 863.712C193.913 863.427 193.943 863.172 193.943 862.917C193.943 861.792 193.583 860.862 192.863 860.097C192.158 859.332 191.243 858.957 190.148 858.957C188.993 858.957 188.033 859.332 187.298 860.097C186.563 860.847 186.188 861.792 186.188 862.917C186.188 864.057 186.563 865.002 187.313 865.752C188.063 866.502 189.053 866.877 190.298 866.877C191.738 866.877 192.833 866.337 193.568 865.272L192.008 864.372C191.633 864.867 191.063 865.122 190.328 865.122C189.173 865.122 188.468 864.657 188.213 863.712H193.868ZM188.183 862.212C188.408 861.252 189.113 860.697 190.148 860.697C191.033 860.697 191.783 861.192 192.008 862.212H188.183ZM196.786 861.297C196.786 860.922 197.161 860.682 197.656 860.682C198.211 860.682 198.616 860.937 198.856 861.447L200.506 860.547C199.921 859.527 198.871 858.957 197.656 858.957C196.846 858.957 196.171 859.167 195.616 859.602C195.076 860.022 194.806 860.607 194.806 861.342C194.806 862.902 196.201 863.367 197.311 863.652C198.076 863.847 198.676 864.072 198.676 864.477C198.676 864.912 198.331 865.122 197.641 865.122C196.876 865.122 196.396 864.792 196.171 864.147L194.491 865.092C195.046 866.277 196.096 866.877 197.641 866.877C198.496 866.877 199.216 866.667 199.786 866.262C200.371 865.842 200.656 865.242 200.656 864.477C200.671 862.872 199.246 862.347 198.151 862.122C197.386 861.927 196.786 861.702 196.786 861.297ZM202.861 858.267C203.521 858.267 204.061 857.727 204.061 857.082C204.061 856.437 203.521 855.882 202.861 855.882C202.216 855.882 201.676 856.437 201.676 857.082C201.676 857.727 202.216 858.267 202.861 858.267ZM203.836 866.667V859.167H201.901V866.667H203.836ZM211.352 860.097C210.782 859.332 209.987 858.957 208.952 858.957C207.902 858.957 207.017 859.332 206.297 860.082C205.577 860.832 205.217 861.732 205.217 862.797C205.217 863.862 205.577 864.777 206.282 865.527C207.002 866.262 207.887 866.637 208.952 866.637C209.987 866.637 210.782 866.262 211.352 865.497V866.307C211.352 867.492 210.602 868.152 209.387 868.152C208.457 868.152 207.797 867.807 207.422 867.102L205.772 868.047C206.432 869.247 207.707 869.877 209.327 869.877C210.407 869.877 211.322 869.577 212.087 868.962C212.852 868.347 213.242 867.462 213.242 866.307V859.167H211.352V860.097ZM211.352 862.797C211.352 863.997 210.467 864.852 209.252 864.852C208.037 864.852 207.152 863.997 207.152 862.797C207.152 862.212 207.347 861.717 207.737 861.342C208.142 860.952 208.637 860.757 209.252 860.757C209.867 860.757 210.362 860.952 210.752 861.342C211.157 861.717 211.352 862.212 211.352 862.797ZM219.166 858.957C218.146 858.957 217.396 859.302 216.931 860.007V859.167H214.996V866.667H216.931V862.617C216.931 861.372 217.576 860.757 218.581 860.757C219.481 860.757 220.066 861.297 220.066 862.302V866.667H222.001V862.062C222.001 861.087 221.731 860.337 221.191 859.782C220.666 859.227 219.991 858.957 219.166 858.957ZM234.949 864.582C235.369 863.922 235.669 863.187 235.864 862.377L234.124 861.387C234.004 862.077 233.839 862.662 233.614 863.127L231.364 860.667C230.764 860.022 230.509 859.632 230.509 859.077C230.509 858.432 231.034 857.967 231.754 857.967C232.489 857.967 233.014 858.387 233.299 859.227L235.069 858.207C234.484 856.752 233.224 855.957 231.724 855.957C230.779 855.957 229.984 856.242 229.369 856.812C228.754 857.367 228.439 858.102 228.439 858.987C228.439 859.617 228.604 860.202 228.949 860.742C227.809 861.402 227.194 862.512 227.194 863.757C227.194 864.702 227.539 865.467 228.214 866.037C228.904 866.592 229.789 866.877 230.869 866.877C231.934 866.877 232.879 866.577 233.689 865.977L234.649 867.012L236.299 866.067L234.949 864.582ZM231.004 864.972C229.879 864.972 229.279 864.402 229.279 863.547C229.279 862.917 229.549 862.437 230.104 862.092C230.104 862.107 230.119 862.122 230.134 862.137L232.399 864.597C231.994 864.852 231.529 864.972 231.004 864.972ZM244.921 866.877C246.046 866.877 246.961 866.592 247.666 866.022C248.371 865.452 248.731 864.687 248.731 863.712C248.731 863.112 248.566 862.587 248.341 862.227C248.146 861.867 247.666 861.492 247.351 861.297C247.201 861.192 246.976 861.087 246.691 860.982C246.406 860.862 246.181 860.772 246.016 860.727L245.296 860.487C244.516 860.247 243.991 860.022 243.706 859.827C243.436 859.617 243.301 859.347 243.301 859.017C243.301 858.402 243.826 857.967 244.681 857.967C245.596 857.967 246.271 858.417 246.691 859.317L248.431 858.312C247.711 856.827 246.376 855.957 244.681 855.957C243.736 855.957 242.911 856.242 242.236 856.812C241.561 857.367 241.231 858.132 241.231 859.077C241.231 860.037 241.576 860.757 242.221 861.237C242.881 861.702 243.451 861.927 244.396 862.212C245.251 862.452 245.836 862.677 246.166 862.887C246.496 863.082 246.661 863.367 246.661 863.742C246.661 864.387 246.136 864.852 244.981 864.852C243.781 864.852 242.971 864.312 242.566 863.247L240.796 864.282C241.381 865.887 242.836 866.877 244.921 866.877ZM258.153 856.167L255.153 861.132L252.138 856.167H250.008V866.667H252.078V859.872L255.033 864.732H255.273L258.228 859.857V866.667H260.283V856.167H258.153ZM270.385 856.167L267.385 861.132L264.37 856.167H262.24V866.667H264.31V859.872L267.265 864.732H267.505L270.46 859.857V866.667H272.515V856.167H270.385ZM184.975 883.667L181.285 873.167H178.72L175.045 883.667H177.28L177.91 881.777H182.095L182.725 883.667H184.975ZM180.01 875.552L181.45 879.842H178.57L180.01 875.552ZM191.444 877.097C190.874 876.332 190.079 875.957 189.044 875.957C187.994 875.957 187.109 876.332 186.389 877.082C185.669 877.832 185.309 878.732 185.309 879.797C185.309 880.862 185.669 881.777 186.374 882.527C187.094 883.262 187.979 883.637 189.044 883.637C190.079 883.637 190.874 883.262 191.444 882.497V883.307C191.444 884.492 190.694 885.152 189.479 885.152C188.549 885.152 187.889 884.807 187.514 884.102L185.864 885.047C186.524 886.247 187.799 886.877 189.419 886.877C190.499 886.877 191.414 886.577 192.179 885.962C192.944 885.347 193.334 884.462 193.334 883.307V876.167H191.444V877.097ZM191.444 879.797C191.444 880.997 190.559 881.852 189.344 881.852C188.129 881.852 187.244 880.997 187.244 879.797C187.244 879.212 187.439 878.717 187.829 878.342C188.234 877.952 188.729 877.757 189.344 877.757C189.959 877.757 190.454 877.952 190.844 878.342C191.249 878.717 191.444 879.212 191.444 879.797ZM202.379 880.712C202.424 880.427 202.454 880.172 202.454 879.917C202.454 878.792 202.094 877.862 201.374 877.097C200.669 876.332 199.754 875.957 198.659 875.957C197.504 875.957 196.544 876.332 195.809 877.097C195.074 877.847 194.699 878.792 194.699 879.917C194.699 881.057 195.074 882.002 195.824 882.752C196.574 883.502 197.564 883.877 198.809 883.877C200.249 883.877 201.344 883.337 202.079 882.272L200.519 881.372C200.144 881.867 199.574 882.122 198.839 882.122C197.684 882.122 196.979 881.657 196.724 880.712H202.379ZM196.694 879.212C196.919 878.252 197.624 877.697 198.659 877.697C199.544 877.697 200.294 878.192 200.519 879.212H196.694ZM207.975 875.957C206.955 875.957 206.205 876.302 205.74 877.007V876.167H203.805V883.667H205.74V879.617C205.74 878.372 206.385 877.757 207.39 877.757C208.29 877.757 208.875 878.297 208.875 879.302V883.667H210.81V879.062C210.81 878.087 210.54 877.337 210 876.782C209.475 876.227 208.8 875.957 207.975 875.957ZM216.032 883.877C217.487 883.877 218.762 883.112 219.422 881.927L217.742 880.967C217.442 881.582 216.797 881.957 216.017 881.957C215.432 881.957 214.952 881.762 214.577 881.387C214.202 880.997 214.007 880.502 214.007 879.917C214.007 878.717 214.862 877.862 216.017 877.862C216.782 877.862 217.427 878.252 217.727 878.867L219.392 877.892C218.777 876.707 217.487 875.957 216.032 875.957C214.907 875.957 213.962 876.332 213.197 877.097C212.447 877.862 212.072 878.792 212.072 879.917C212.072 881.042 212.447 881.972 213.197 882.737C213.962 883.502 214.907 883.877 216.032 883.877ZM223.729 881.207L221.779 876.167H219.664L222.739 883.427C222.379 884.447 221.809 884.882 220.774 884.867V886.667C222.694 886.772 223.954 885.827 224.734 883.667L227.464 876.167H225.394L223.729 881.207Z" fill="#14146D"/>
<path d="M0.333252 644.667L177.667 636.667V718L0.333252 726V644.667Z" fill="white"/>
<path d="M106.025 68.0061L1718.54 0.674805L1674.62 641.299L47.6667 715.334L106.025 68.0061Z" fill="#14146D"/>
</svg>
