<svg width="223" height="382" viewBox="0 0 223 382" fill="none" xmlns="http://www.w3.org/2000/svg">
<path fill-rule="evenodd" clip-rule="evenodd" d="M203.123 1.21264C201.284 1.13233 199.728 2.55819 199.648 4.39736C199.567 6.23654 200.993 7.79258 202.832 7.8729C204.671 7.95318 206.227 6.52732 206.308 4.68818C206.388 2.84897 204.962 1.29292 203.123 1.21264ZM198.193 37.6986C198.274 35.8595 199.83 34.4336 201.669 34.5139C203.508 34.5942 204.934 36.1502 204.854 37.9894C204.773 39.8286 203.217 41.2545 201.378 41.1742C199.539 41.0939 198.113 39.5378 198.193 37.6986ZM200.215 67.8152C198.376 67.7349 196.82 69.1608 196.739 70.9999C196.659 72.8391 198.085 74.3951 199.924 74.4755C201.763 74.5557 203.319 73.1299 203.4 71.2907C203.48 69.4515 202.054 67.8955 200.215 67.8152ZM195.285 104.302C195.366 102.463 196.922 101.037 198.761 101.117C200.6 101.198 202.026 102.754 201.946 104.593C201.865 106.432 200.309 107.858 198.47 107.778C196.631 107.697 195.205 106.141 195.285 104.302ZM197.307 134.419C195.468 134.338 193.912 135.764 193.831 137.603C193.751 139.442 195.177 140.999 197.016 141.079C198.855 141.159 200.411 139.733 200.492 137.894C200.572 136.055 199.146 134.499 197.307 134.419ZM192.377 170.905C192.458 169.065 194.014 167.64 195.853 167.72C197.692 167.8 199.118 169.356 199.038 171.195C198.957 173.035 197.401 174.46 195.562 174.38C193.723 174.3 192.297 172.744 192.377 170.905ZM194.399 201.022C192.56 200.942 191.004 202.367 190.923 204.207C190.843 206.046 192.269 207.602 194.108 207.682C195.947 207.763 197.503 206.337 197.584 204.497C197.664 202.658 196.238 201.102 194.399 201.022ZM189.47 237.507C189.55 235.668 191.106 234.242 192.946 234.322C194.785 234.403 196.211 235.959 196.13 237.798C196.05 239.637 194.494 241.063 192.655 240.983C190.816 240.902 189.39 239.346 189.47 237.507ZM191.491 267.624C189.652 267.544 188.096 268.97 188.016 270.809C187.936 272.648 189.362 274.204 191.201 274.285C193.04 274.365 194.596 272.939 194.676 271.1C194.757 269.261 193.331 267.705 191.491 267.624ZM186.562 304.11C186.642 302.271 188.198 300.845 190.037 300.926C191.877 301.006 193.302 302.562 193.222 304.401C193.142 306.24 191.586 307.666 189.747 307.586C187.907 307.506 186.482 305.95 186.562 304.11ZM188.583 334.227C186.744 334.147 185.188 335.573 185.108 337.412C185.028 339.251 186.453 340.807 188.293 340.887C190.132 340.968 191.688 339.542 191.768 337.703C191.848 335.863 190.423 334.307 188.583 334.227ZM187.129 367.528C185.29 367.448 183.734 368.874 183.654 370.713C183.573 372.552 184.999 374.108 186.839 374.189C188.678 374.269 190.234 372.843 190.314 371.004C190.394 369.165 188.969 367.609 187.129 367.528ZM150.254 371.973C150.334 370.134 151.89 368.708 153.729 368.789C155.568 368.869 156.994 370.425 156.914 372.264C156.834 374.103 155.277 375.529 153.438 375.449C151.599 375.369 150.173 373.813 150.254 371.973ZM155.183 335.487C153.344 335.407 151.788 336.833 151.708 338.672C151.627 340.511 153.053 342.067 154.892 342.148C156.732 342.228 158.288 340.802 158.368 338.963C158.448 337.124 157.022 335.568 155.183 335.487ZM153.162 305.371C153.242 303.532 154.798 302.106 156.637 302.186C158.476 302.266 159.902 303.822 159.822 305.662C159.742 307.501 158.186 308.927 156.346 308.846C154.507 308.766 153.081 307.21 153.162 305.371ZM158.091 268.885C156.252 268.804 154.696 270.23 154.616 272.07C154.535 273.909 155.961 275.465 157.8 275.545C159.64 275.625 161.196 274.2 161.276 272.36C161.356 270.521 159.93 268.965 158.091 268.885ZM156.07 238.768C156.15 236.929 157.706 235.503 159.545 235.584C161.384 235.664 162.81 237.22 162.73 239.059C162.65 240.898 161.094 242.324 159.254 242.244C157.415 242.163 155.989 240.607 156.07 238.768ZM160.998 202.281C159.159 202.201 157.603 203.627 157.523 205.466C157.443 207.305 158.869 208.861 160.708 208.942C162.547 209.022 164.103 207.596 164.183 205.757C164.264 203.918 162.838 202.362 160.998 202.281ZM158.977 172.165C159.057 170.326 160.613 168.9 162.453 168.98C164.292 169.06 165.718 170.617 165.637 172.456C165.557 174.295 164.001 175.721 162.162 175.64C160.323 175.56 158.897 174.004 158.977 172.165ZM163.907 135.678C162.067 135.598 160.511 137.024 160.431 138.863C160.351 140.702 161.777 142.258 163.616 142.338C165.455 142.419 167.011 140.993 167.091 139.154C167.172 137.314 165.746 135.758 163.907 135.678ZM161.885 105.563C161.965 103.724 163.522 102.298 165.361 102.378C167.2 102.459 168.626 104.015 168.545 105.854C168.465 107.693 166.909 109.119 165.07 109.039C163.231 108.958 161.805 107.402 161.885 105.563ZM166.815 69.0772C164.976 68.9969 163.42 70.4227 163.339 72.2619C163.259 74.1011 164.685 75.6571 166.524 75.7374C168.363 75.8177 169.919 74.3919 170 72.5527C170.08 70.7135 168.654 69.1574 166.815 69.0772ZM164.793 38.9598C164.874 37.1206 166.43 35.6948 168.269 35.7751C170.108 35.8554 171.534 37.4114 171.454 39.2506C171.373 41.0898 169.817 42.5156 167.978 42.4353C166.139 42.355 164.713 40.799 164.793 38.9598ZM169.723 2.47378C167.884 2.39349 166.328 3.81935 166.247 5.6585C166.167 7.49771 167.593 9.05375 169.432 9.13404C171.271 9.21435 172.827 7.78849 172.908 5.94931C172.988 4.11014 171.562 2.55409 169.723 2.47378ZM116.952 373.427C117.032 371.588 118.588 370.162 120.428 370.243C122.267 370.323 123.693 371.879 123.612 373.718C123.532 375.557 121.976 376.983 120.137 376.903C118.298 376.823 116.872 375.267 116.952 373.427ZM121.882 336.941C120.043 336.861 118.487 338.287 118.406 340.126C118.326 341.965 119.752 343.521 121.591 343.602C123.43 343.682 124.986 342.256 125.066 340.417C125.147 338.578 123.721 337.022 121.882 336.941ZM119.86 306.825C119.941 304.986 121.497 303.56 123.336 303.64C125.175 303.72 126.601 305.276 126.521 307.116C126.44 308.955 124.884 310.381 123.045 310.3C121.206 310.22 119.78 308.664 119.86 306.825ZM124.79 270.339C122.951 270.258 121.395 271.684 121.314 273.524C121.234 275.363 122.66 276.919 124.499 276.999C126.338 277.079 127.894 275.653 127.975 273.814C128.055 271.975 126.629 270.419 124.79 270.339ZM122.768 240.222C122.849 238.383 124.405 236.957 126.244 237.037C128.083 237.118 129.509 238.674 129.429 240.513C129.348 242.352 127.792 243.778 125.953 243.698C124.114 243.617 122.688 242.061 122.768 240.222ZM127.697 203.735C125.858 203.655 124.302 205.081 124.222 206.92C124.141 208.759 125.567 210.315 127.406 210.396C129.246 210.476 130.802 209.05 130.882 207.211C130.962 205.372 129.536 203.816 127.697 203.735ZM125.676 173.619C125.756 171.78 127.312 170.354 129.151 170.434C130.99 170.514 132.416 172.07 132.336 173.91C132.256 175.749 130.7 177.175 128.86 177.094C127.021 177.014 125.595 175.458 125.676 173.619ZM130.605 137.132C128.766 137.052 127.21 138.478 127.13 140.317C127.049 142.156 128.475 143.712 130.314 143.792C132.154 143.873 133.71 142.447 133.79 140.608C133.87 138.768 132.444 137.212 130.605 137.132ZM128.584 107.017C128.664 105.178 130.22 103.752 132.059 103.832C133.899 103.913 135.324 105.469 135.244 107.308C135.164 109.147 133.608 110.573 131.769 110.493C129.929 110.412 128.503 108.856 128.584 107.017ZM133.513 70.5311C131.674 70.4508 130.118 71.8767 130.038 73.7159C129.958 75.555 131.383 77.1111 133.223 77.1914C135.062 77.2717 136.618 75.8458 136.698 74.0067C136.778 72.1675 135.353 70.6114 133.513 70.5311ZM131.492 40.4138C131.572 38.5746 133.128 37.1487 134.967 37.229C136.807 37.3093 138.232 38.8654 138.152 40.7046C138.072 42.5437 136.516 43.9696 134.677 43.8893C132.837 43.809 131.412 42.2529 131.492 40.4138ZM136.421 3.92775C134.582 3.84746 133.026 5.27332 132.946 7.11247C132.866 8.95168 134.291 10.5077 136.131 10.588C137.97 10.6683 139.526 9.24246 139.606 7.40328C139.686 5.56411 138.261 4.00806 136.421 3.92775ZM83.6507 374.881C83.7311 373.042 85.2871 371.616 87.1263 371.697C88.9655 371.777 90.3913 373.333 90.311 375.172C90.2307 377.011 88.6747 378.437 86.8355 378.357C84.9963 378.277 83.5705 376.72 83.6507 374.881ZM88.5803 338.395C86.7412 338.315 85.1851 339.741 85.1048 341.58C85.0245 343.419 86.4504 344.975 88.2896 345.056C90.1288 345.136 91.6848 343.71 91.7651 341.871C91.8454 340.032 90.4195 338.476 88.5803 338.395ZM86.5589 308.279C86.6392 306.44 88.1952 305.014 90.0344 305.094C91.8736 305.174 93.2995 306.73 93.2191 308.57C93.1388 310.409 91.5828 311.835 89.7436 311.754C87.9044 311.674 86.4786 310.118 86.5589 308.279ZM91.4885 271.793C89.6493 271.712 88.0932 273.138 88.0129 274.977C87.9326 276.817 89.3585 278.373 91.1977 278.453C93.0369 278.533 94.5929 277.107 94.6732 275.268C94.7535 273.429 93.3276 271.873 91.4885 271.793ZM89.467 241.676C89.5473 239.837 91.1033 238.411 92.9425 238.491C94.7817 238.572 96.2076 240.128 96.1273 241.967C96.047 243.806 94.4909 245.232 92.6517 245.152C90.8125 245.071 89.3867 243.515 89.467 241.676ZM94.3957 205.189C92.5565 205.109 91.0005 206.535 90.9202 208.374C90.8399 210.213 92.2657 211.769 94.1049 211.85C95.9441 211.93 97.5002 210.504 97.5805 208.665C97.6608 206.826 96.2349 205.27 94.3957 205.189ZM92.3742 175.073C92.4546 173.234 94.0106 171.808 95.8498 171.888C97.689 171.968 99.1148 173.524 99.0345 175.364C98.9542 177.203 97.3982 178.629 95.559 178.548C93.7198 178.468 92.2939 176.912 92.3742 175.073ZM97.3038 138.586C95.4646 138.506 93.9086 139.932 93.8283 141.771C93.748 143.61 95.1738 145.166 97.013 145.246C98.8522 145.327 100.408 143.901 100.489 142.062C100.569 140.222 99.143 138.666 97.3038 138.586ZM95.2824 108.471C95.3627 106.632 96.9187 105.206 98.7579 105.286C100.597 105.367 102.023 106.923 101.943 108.762C101.862 110.601 100.306 112.027 98.4671 111.947C96.6279 111.866 95.2021 110.31 95.2824 108.471ZM100.212 71.9851C98.3728 71.9048 96.8168 73.3306 96.7365 75.1698C96.6562 77.009 98.082 78.565 99.9212 78.6454C101.76 78.7256 103.316 77.2998 103.397 75.4606C103.477 73.6214 102.051 72.0654 100.212 71.9851ZM98.1905 41.8677C98.2708 40.0286 99.8268 38.6027 101.666 38.683C103.505 38.7633 104.931 40.3193 104.851 42.1586C104.77 43.9977 103.214 45.4236 101.375 45.3433C99.536 45.263 98.1102 43.7069 98.1905 41.8677ZM103.12 5.38172C101.281 5.30143 99.7248 6.72729 99.6445 8.56644C99.5642 10.4056 100.99 11.9617 102.829 12.042C104.668 12.1223 106.225 10.6964 106.305 8.85725C106.385 7.01808 104.959 5.46203 103.12 5.38172ZM50.3494 376.335C50.4297 374.496 51.9857 373.07 53.8249 373.151C55.6641 373.231 57.09 374.787 57.0096 376.626C56.9293 378.465 55.3733 379.891 53.5341 379.811C51.6949 379.731 50.2691 378.174 50.3494 376.335ZM55.279 339.849C53.4398 339.769 51.8837 341.195 51.8034 343.034C51.7231 344.873 53.149 346.429 54.9882 346.51C56.8274 346.59 58.3834 345.164 58.4637 343.325C58.544 341.486 57.1181 339.93 55.279 339.849ZM53.2575 309.733C53.3378 307.894 54.8938 306.468 56.733 306.548C58.5722 306.628 59.9981 308.184 59.9178 310.024C59.8375 311.863 58.2814 313.289 56.4422 313.208C54.603 313.128 53.1772 311.572 53.2575 309.733ZM58.1871 273.247C56.3479 273.166 54.7919 274.592 54.7115 276.431C54.6312 278.271 56.0571 279.827 57.8963 279.907C59.7355 279.987 61.2915 278.561 61.3718 276.722C61.4521 274.883 60.0263 273.327 58.1871 273.247ZM56.1656 243.13C56.2459 241.291 57.8019 239.865 59.6411 239.945C61.4803 240.026 62.9062 241.582 62.8259 243.421C62.7456 245.26 61.1895 246.686 59.3504 246.606C57.5112 246.525 56.0853 244.969 56.1656 243.13ZM61.0943 206.643C59.2552 206.563 57.6991 207.989 57.6188 209.828C57.5385 211.667 58.9644 213.223 60.8036 213.304C62.6427 213.384 64.1988 211.958 64.2791 210.119C64.3594 208.28 62.9335 206.724 61.0943 206.643ZM59.0729 176.527C59.1532 174.688 60.7092 173.262 62.5484 173.342C64.3876 173.422 65.8135 174.978 65.7331 176.818C65.6528 178.657 64.0968 180.083 62.2576 180.002C60.4184 179.922 58.9926 178.366 59.0729 176.527ZM64.0024 140.04C62.1632 139.96 60.6072 141.386 60.5269 143.225C60.4466 145.064 61.8724 146.62 63.7116 146.7C65.5508 146.781 67.1069 145.355 67.1872 143.516C67.2675 141.676 65.8416 140.12 64.0024 140.04ZM61.981 109.925C62.0613 108.086 63.6174 106.66 65.4565 106.74C67.2957 106.821 68.7216 108.377 68.6413 110.216C68.561 112.055 67.0049 113.481 65.1658 113.401C63.3266 113.32 61.9007 111.764 61.981 109.925ZM66.9106 73.4391C65.0714 73.3588 63.5154 74.7846 63.4351 76.6238C63.3548 78.463 64.7806 80.019 66.6198 80.0993C68.459 80.1796 70.015 78.7538 70.0953 76.9146C70.1757 75.0754 68.7498 73.5194 66.9106 73.4391ZM64.8891 43.3217C64.9694 41.4825 66.5254 40.0567 68.3646 40.137C70.2038 40.2173 71.6297 41.7733 71.5494 43.6125C71.4691 45.4517 69.913 46.8775 68.0738 46.7972C66.2347 46.7169 64.8088 45.1609 64.8891 43.3217ZM69.8187 6.83569C67.9795 6.7554 66.4235 8.18126 66.3431 10.0204C66.2629 11.8596 67.6887 13.4157 69.5279 13.4959C71.3671 13.5763 72.9231 12.1504 73.0034 10.3112C73.0837 8.47205 71.6579 6.916 69.8187 6.83569ZM17.048 377.789C17.1283 375.95 18.6843 374.524 20.5235 374.605C22.3627 374.685 23.7886 376.241 23.7083 378.08C23.628 379.919 22.0719 381.345 20.2327 381.265C18.3935 381.184 16.9677 379.628 17.048 377.789ZM21.9776 341.303C20.1384 341.223 18.5824 342.649 18.502 344.488C18.4217 346.327 19.8476 347.883 21.6868 347.964C23.526 348.044 25.082 346.618 25.1623 344.779C25.2426 342.94 23.8168 341.384 21.9776 341.303ZM19.9561 311.187C20.0364 309.348 21.5925 307.922 23.4316 308.002C25.2708 308.082 26.6967 309.638 26.6164 311.477C26.5361 313.317 24.98 314.743 23.1409 314.662C21.3017 314.582 19.8758 313.026 19.9561 311.187ZM24.8849 274.701C23.0457 274.62 21.4897 276.046 21.4093 277.885C21.329 279.725 22.7549 281.281 24.5941 281.361C26.4333 281.441 27.9893 280.015 28.0696 278.176C28.1499 276.337 26.7241 274.781 24.8849 274.701ZM22.8634 244.584C22.9437 242.745 24.4998 241.319 26.3389 241.399C28.1781 241.48 29.604 243.036 29.5237 244.875C29.4434 246.714 27.8873 248.14 26.0482 248.06C24.209 247.979 22.7831 246.423 22.8634 244.584ZM27.793 208.097C25.9538 208.017 24.3977 209.443 24.3174 211.282C24.2371 213.121 25.663 214.677 27.5022 214.758C29.3414 214.838 30.8974 213.412 30.9777 211.573C31.058 209.734 29.6321 208.178 27.793 208.097ZM25.7707 177.981C25.851 176.142 27.407 174.716 29.2462 174.796C31.0854 174.876 32.5113 176.432 32.4309 178.272C32.3506 180.111 30.7946 181.537 28.9554 181.456C27.1162 181.376 25.6904 179.82 25.7707 177.981ZM30.7002 141.494C28.861 141.414 27.305 142.84 27.2247 144.679C27.1444 146.518 28.5702 148.074 30.4094 148.154C32.2486 148.235 33.8047 146.809 33.885 144.97C33.9653 143.13 32.5394 141.574 30.7002 141.494ZM28.6804 111.379C28.7608 109.54 30.3168 108.114 32.156 108.194C33.9952 108.275 35.421 109.831 35.3407 111.67C35.2604 113.509 33.7044 114.935 31.8652 114.855C30.026 114.774 28.6001 113.218 28.6804 111.379ZM33.6092 74.893C31.77 74.8127 30.214 76.2386 30.1337 78.0778C30.0534 79.9169 31.4792 81.473 33.3184 81.5533C35.1576 81.6336 36.7137 80.2078 36.794 78.3686C36.8743 76.5294 35.4484 74.9733 33.6092 74.893ZM31.5877 44.7757C31.668 42.9365 33.2241 41.5106 35.0632 41.591C36.9024 41.6712 38.3283 43.2273 38.248 45.0665C38.1677 46.9056 36.6116 48.3315 34.7725 48.2512C32.9333 48.1709 31.5074 46.6149 31.5877 44.7757ZM36.5173 8.28966C34.6781 8.20937 33.1221 9.63523 33.0418 11.4744C32.9615 13.3136 34.3873 14.8696 36.2265 14.9499C38.0657 15.0302 39.6217 13.6044 39.702 11.7652C39.7824 9.92602 38.3565 8.36997 36.5173 8.28966Z" fill="#E9EBF2" fill-opacity="0.2"/>
</svg>
