<?xml version="1.0" encoding="UTF-8"?>
<svg width="124px" height="224px" viewBox="0 0 124 224" version="1.1" xmlns="http://www.w3.org/2000/svg" xmlns:xlink="http://www.w3.org/1999/xlink">
    <!-- Generator: Sketch 52.6 (67491) - http://www.bohemiancoding.com/sketch -->
    <title>Dots Copy 4</title>
    <desc>Created with Sketch.</desc>
    <g id="Page-1" stroke="none" stroke-width="1" fill="none" fill-rule="evenodd" fill-opacity="0.2">
        <g id="Стр.-Главная" transform="translate(-127.000000, -4852.000000)" fill="#E9EBF2" fill-rule="nonzero">
            <g id="Dots-Copy-4" transform="translate(189.000000, 4964.000000) rotate(-270.000000) translate(-189.000000, -4964.000000) translate(77.000000, 4902.000000)">
                <circle id="Oval" transform="translate(2.166700, 21.341000) rotate(-5.000000) translate(-2.166700, -21.341000) " cx="2.1667" cy="21.341" r="2"></circle>
                <circle id="Oval" transform="translate(22.090600, 19.597900) rotate(-5.000000) translate(-22.090600, -19.597900) " cx="22.0906" cy="19.5979" r="2"></circle>
                <circle id="Oval" transform="translate(42.014500, 17.854700) rotate(-5.000000) translate(-42.014500, -17.854700) " cx="42.0145" cy="17.8547" r="2"></circle>
                <circle id="Oval" transform="translate(61.938400, 16.111500) rotate(-5.000000) translate(-61.938400, -16.111500) " cx="61.9384" cy="16.1115" r="2"></circle>
                <circle id="Oval" transform="translate(81.862300, 14.368400) rotate(-5.000000) translate(-81.862300, -14.368400) " cx="81.8623" cy="14.3684" r="2"></circle>
                <circle id="Oval" transform="translate(101.786000, 12.625700) rotate(-5.000000) translate(-101.786000, -12.625700) " cx="101.786" cy="12.6257" r="2"></circle>
                <circle id="Oval" transform="translate(121.710000, 10.882500) rotate(-5.000000) translate(-121.710000, -10.882500) " cx="121.71" cy="10.8825" r="2"></circle>
                <circle id="Oval" transform="translate(141.634000, 9.139370) rotate(-5.000000) translate(-141.634000, -9.139370) " cx="141.634" cy="9.13937" r="2"></circle>
                <circle id="Oval" transform="translate(161.558000, 7.396200) rotate(-5.000000) translate(-161.558000, -7.396200) " cx="161.558" cy="7.3962" r="2"></circle>
                <circle id="Oval" transform="translate(181.482000, 5.653040) rotate(-5.000000) translate(-181.482000, -5.653040) " cx="181.482" cy="5.65304" r="2"></circle>
                <circle id="Oval" transform="translate(201.406000, 3.909870) rotate(-5.000000) translate(-201.406000, -3.909870) " cx="201.406" cy="3.90987" r="2"></circle>
                <circle id="Oval" transform="translate(221.330000, 2.166710) rotate(-5.000000) translate(-221.330000, -2.166710) " cx="221.33" cy="2.16671" r="2"></circle>
                <circle id="Oval" transform="translate(2.285350, 41.395200) rotate(-5.000000) translate(-2.285350, -41.395200) " cx="2.28535" cy="41.3952" r="2"></circle>
                <circle id="Oval" transform="translate(22.209200, 39.652100) rotate(-5.000000) translate(-22.209200, -39.652100) " cx="22.2092" cy="39.6521" r="2"></circle>
                <circle id="Oval" transform="translate(42.133100, 37.908900) rotate(-5.000000) translate(-42.133100, -37.908900) " cx="42.1331" cy="37.9089" r="2"></circle>
                <circle id="Oval" transform="translate(62.057000, 36.165700) rotate(-5.000000) translate(-62.057000, -36.165700) " cx="62.057" cy="36.1657" r="2"></circle>
                <circle id="Oval" transform="translate(81.980900, 34.422600) rotate(-5.000000) translate(-81.980900, -34.422600) " cx="81.9809" cy="34.4226" r="2"></circle>
                <circle id="Oval" transform="translate(101.905000, 32.679900) rotate(-5.000000) translate(-101.905000, -32.679900) " cx="101.905" cy="32.6799" r="2"></circle>
                <circle id="Oval" transform="translate(121.829000, 30.936700) rotate(-5.000000) translate(-121.829000, -30.936700) " cx="121.829" cy="30.9367" r="2"></circle>
                <circle id="Oval" transform="translate(141.753000, 29.193600) rotate(-5.000000) translate(-141.753000, -29.193600) " cx="141.753" cy="29.1936" r="2"></circle>
                <circle id="Oval" transform="translate(161.676000, 27.450400) rotate(-5.000000) translate(-161.676000, -27.450400) " cx="161.676" cy="27.4504" r="2"></circle>
                <circle id="Oval" transform="translate(181.600000, 25.707200) rotate(-5.000000) translate(-181.600000, -25.707200) " cx="181.6" cy="25.7072" r="2"></circle>
                <circle id="Oval" transform="translate(201.524000, 23.964100) rotate(-5.000000) translate(-201.524000, -23.964100) " cx="201.524" cy="23.9641" r="2"></circle>
                <circle id="Oval" transform="translate(221.448000, 22.220900) rotate(-5.000000) translate(-221.448000, -22.220900) " cx="221.448" cy="22.2209" r="2"></circle>
                <circle id="Oval" transform="translate(2.285350, 61.395200) rotate(-5.000000) translate(-2.285350, -61.395200) " cx="2.28535" cy="61.3952" r="2"></circle>
                <circle id="Oval" transform="translate(22.209200, 59.652100) rotate(-5.000000) translate(-22.209200, -59.652100) " cx="22.2092" cy="59.6521" r="2"></circle>
                <circle id="Oval" transform="translate(42.133100, 57.908900) rotate(-5.000000) translate(-42.133100, -57.908900) " cx="42.1331" cy="57.9089" r="2"></circle>
                <circle id="Oval" transform="translate(62.057000, 56.165700) rotate(-5.000000) translate(-62.057000, -56.165700) " cx="62.057" cy="56.1657" r="2"></circle>
                <circle id="Oval" transform="translate(81.980900, 54.422600) rotate(-5.000000) translate(-81.980900, -54.422600) " cx="81.9809" cy="54.4226" r="2"></circle>
                <circle id="Oval" transform="translate(101.905000, 52.679900) rotate(-5.000000) translate(-101.905000, -52.679900) " cx="101.905" cy="52.6799" r="2"></circle>
                <circle id="Oval" transform="translate(121.829000, 50.936700) rotate(-5.000000) translate(-121.829000, -50.936700) " cx="121.829" cy="50.9367" r="2"></circle>
                <circle id="Oval" transform="translate(141.753000, 49.193600) rotate(-5.000000) translate(-141.753000, -49.193600) " cx="141.753" cy="49.1936" r="2"></circle>
                <circle id="Oval" transform="translate(161.676000, 47.450400) rotate(-5.000000) translate(-161.676000, -47.450400) " cx="161.676" cy="47.4504" r="2"></circle>
                <circle id="Oval" transform="translate(181.600000, 45.707200) rotate(-5.000000) translate(-181.600000, -45.707200) " cx="181.6" cy="45.7072" r="2"></circle>
                <circle id="Oval" transform="translate(201.524000, 43.964100) rotate(-5.000000) translate(-201.524000, -43.964100) " cx="201.524" cy="43.9641" r="2"></circle>
                <circle id="Oval" transform="translate(221.448000, 42.220900) rotate(-5.000000) translate(-221.448000, -42.220900) " cx="221.448" cy="42.2209" r="2"></circle>
                <circle id="Oval" transform="translate(2.285350, 81.395200) rotate(-5.000000) translate(-2.285350, -81.395200) " cx="2.28535" cy="81.3952" r="2"></circle>
                <circle id="Oval" transform="translate(22.209200, 79.652100) rotate(-5.000000) translate(-22.209200, -79.652100) " cx="22.2092" cy="79.6521" r="2"></circle>
                <circle id="Oval" transform="translate(42.133100, 77.908900) rotate(-5.000000) translate(-42.133100, -77.908900) " cx="42.1331" cy="77.9089" r="2"></circle>
                <circle id="Oval" transform="translate(62.057000, 76.165700) rotate(-5.000000) translate(-62.057000, -76.165700) " cx="62.057" cy="76.1657" r="2"></circle>
                <circle id="Oval" transform="translate(81.980900, 74.422600) rotate(-5.000000) translate(-81.980900, -74.422600) " cx="81.9809" cy="74.4226" r="2"></circle>
                <circle id="Oval" transform="translate(101.905000, 72.679900) rotate(-5.000000) translate(-101.905000, -72.679900) " cx="101.905" cy="72.6799" r="2"></circle>
                <circle id="Oval" transform="translate(121.829000, 70.936700) rotate(-5.000000) translate(-121.829000, -70.936700) " cx="121.829" cy="70.9367" r="2"></circle>
                <circle id="Oval" transform="translate(141.753000, 69.193600) rotate(-5.000000) translate(-141.753000, -69.193600) " cx="141.753" cy="69.1936" r="2"></circle>
                <circle id="Oval" transform="translate(161.676000, 67.450400) rotate(-5.000000) translate(-161.676000, -67.450400) " cx="161.676" cy="67.4504" r="2"></circle>
                <circle id="Oval" transform="translate(181.600000, 65.707200) rotate(-5.000000) translate(-181.600000, -65.707200) " cx="181.6" cy="65.7072" r="2"></circle>
                <circle id="Oval" transform="translate(201.524000, 63.964100) rotate(-5.000000) translate(-201.524000, -63.964100) " cx="201.524" cy="63.9641" r="2"></circle>
                <circle id="Oval" transform="translate(221.448000, 62.220900) rotate(-5.000000) translate(-221.448000, -62.220900) " cx="221.448" cy="62.2209" r="2"></circle>
                <circle id="Oval" transform="translate(2.285350, 101.395000) rotate(-5.000000) translate(-2.285350, -101.395000) " cx="2.28535" cy="101.395" r="2"></circle>
                <circle id="Oval" transform="translate(22.209200, 99.652100) rotate(-5.000000) translate(-22.209200, -99.652100) " cx="22.2092" cy="99.6521" r="2"></circle>
                <circle id="Oval" transform="translate(42.133100, 97.908900) rotate(-5.000000) translate(-42.133100, -97.908900) " cx="42.1331" cy="97.9089" r="2"></circle>
                <circle id="Oval" transform="translate(62.057000, 96.165700) rotate(-5.000000) translate(-62.057000, -96.165700) " cx="62.057" cy="96.1657" r="2"></circle>
                <circle id="Oval" transform="translate(81.980900, 94.422600) rotate(-5.000000) translate(-81.980900, -94.422600) " cx="81.9809" cy="94.4226" r="2"></circle>
                <circle id="Oval" transform="translate(101.905000, 92.679900) rotate(-5.000000) translate(-101.905000, -92.679900) " cx="101.905" cy="92.6799" r="2"></circle>
                <circle id="Oval" transform="translate(121.829000, 90.936700) rotate(-5.000000) translate(-121.829000, -90.936700) " cx="121.829" cy="90.9367" r="2"></circle>
                <circle id="Oval" transform="translate(141.753000, 89.193600) rotate(-5.000000) translate(-141.753000, -89.193600) " cx="141.753" cy="89.1936" r="2"></circle>
                <circle id="Oval" transform="translate(161.676000, 87.450400) rotate(-5.000000) translate(-161.676000, -87.450400) " cx="161.676" cy="87.4504" r="2"></circle>
                <circle id="Oval" transform="translate(181.600000, 85.707200) rotate(-5.000000) translate(-181.600000, -85.707200) " cx="181.6" cy="85.7072" r="2"></circle>
                <circle id="Oval" transform="translate(201.524000, 83.964100) rotate(-5.000000) translate(-201.524000, -83.964100) " cx="201.524" cy="83.9641" r="2"></circle>
                <circle id="Oval" transform="translate(221.448000, 82.220900) rotate(-5.000000) translate(-221.448000, -82.220900) " cx="221.448" cy="82.2209" r="2"></circle>
                <circle id="Oval" transform="translate(2.285350, 121.395000) rotate(-5.000000) translate(-2.285350, -121.395000) " cx="2.28535" cy="121.395" r="2"></circle>
                <circle id="Oval" transform="translate(22.209200, 119.652000) rotate(-5.000000) translate(-22.209200, -119.652000) " cx="22.2092" cy="119.652" r="2"></circle>
                <circle id="Oval" transform="translate(42.133100, 117.909000) rotate(-5.000000) translate(-42.133100, -117.909000) " cx="42.1331" cy="117.909" r="2"></circle>
                <circle id="Oval" transform="translate(62.057000, 116.166000) rotate(-5.000000) translate(-62.057000, -116.166000) " cx="62.057" cy="116.166" r="2"></circle>
                <circle id="Oval" transform="translate(81.980900, 114.423000) rotate(-5.000000) translate(-81.980900, -114.423000) " cx="81.9809" cy="114.423" r="2"></circle>
                <circle id="Oval" transform="translate(101.905000, 112.680000) rotate(-5.000000) translate(-101.905000, -112.680000) " cx="101.905" cy="112.68" r="2"></circle>
                <circle id="Oval" transform="translate(121.829000, 110.937000) rotate(-5.000000) translate(-121.829000, -110.937000) " cx="121.829" cy="110.937" r="2"></circle>
                <circle id="Oval" transform="translate(141.753000, 109.194000) rotate(-5.000000) translate(-141.753000, -109.194000) " cx="141.753" cy="109.194" r="2"></circle>
                <circle id="Oval" transform="translate(161.676000, 107.450000) rotate(-5.000000) translate(-161.676000, -107.450000) " cx="161.676" cy="107.45" r="2"></circle>
                <circle id="Oval" transform="translate(181.600000, 105.707000) rotate(-5.000000) translate(-181.600000, -105.707000) " cx="181.6" cy="105.707" r="2"></circle>
                <circle id="Oval" transform="translate(201.524000, 103.964000) rotate(-5.000000) translate(-201.524000, -103.964000) " cx="201.524" cy="103.964" r="2"></circle>
                <circle id="Oval" transform="translate(221.448000, 102.221000) rotate(-5.000000) translate(-221.448000, -102.221000) " cx="221.448" cy="102.221" r="2"></circle>
            </g>
        </g>
    </g>
</svg>