<svg width="143" height="286" viewBox="0 0 143 286" fill="none" xmlns="http://www.w3.org/2000/svg">
<path fill-rule="evenodd" clip-rule="evenodd" d="M139.615 0.256396C138.236 0.196176 137.069 1.26556 137.008 2.64495C136.948 4.02432 138.018 5.19137 139.397 5.25159C140.776 5.31181 141.943 4.24243 142.004 2.86303C142.064 1.48364 140.995 0.316616 139.615 0.256396ZM135.918 27.6209C135.978 26.2415 137.145 25.1721 138.525 25.2324C139.904 25.2926 140.973 26.4596 140.913 27.839C140.853 29.2184 139.686 30.2878 138.306 30.2275C136.927 30.1673 135.858 29.0003 135.918 27.6209ZM137.434 50.2083C136.055 50.1481 134.888 51.2175 134.827 52.5969C134.767 53.9763 135.837 55.1433 137.216 55.2035C138.595 55.2637 139.762 54.1943 139.823 52.815C139.883 51.4356 138.813 50.2685 137.434 50.2083ZM133.737 77.5734C133.797 76.1941 134.964 75.1247 136.344 75.1849C137.723 75.2451 138.792 76.4121 138.732 77.7915C138.672 79.1709 137.505 80.2403 136.125 80.1801C134.746 80.1199 133.677 78.9528 133.737 77.5734ZM135.253 100.161C133.874 100.101 132.707 101.17 132.646 102.549C132.586 103.929 133.655 105.096 135.035 105.156C136.414 105.216 137.581 104.147 137.642 102.767C137.702 101.388 136.632 100.221 135.253 100.161ZM131.556 127.525C131.616 126.146 132.783 125.077 134.162 125.137C135.542 125.197 136.611 126.364 136.551 127.743C136.491 129.123 135.324 130.192 133.944 130.132C132.565 130.072 131.496 128.905 131.556 127.525ZM133.072 150.113C131.693 150.053 130.525 151.123 130.465 152.502C130.405 153.881 131.474 155.048 132.854 155.109C134.233 155.169 135.4 154.099 135.46 152.72C135.521 151.341 134.451 150.174 133.072 150.113ZM129.375 177.477C129.436 176.098 130.603 175.028 131.982 175.089C133.361 175.149 134.431 176.316 134.371 177.695C134.31 179.075 133.143 180.144 131.764 180.084C130.384 180.024 129.315 178.857 129.375 177.477ZM130.891 200.065C129.512 200.005 128.345 201.074 128.285 202.454C128.225 203.833 129.294 205 130.673 205.06C132.053 205.121 133.22 204.051 133.28 202.672C133.34 201.293 132.271 200.125 130.891 200.065ZM127.194 227.43C127.254 226.05 128.422 224.981 129.801 225.041C131.18 225.101 132.25 226.268 132.189 227.648C132.129 229.027 130.962 230.097 129.583 230.036C128.203 229.976 127.134 228.809 127.194 227.43ZM128.71 250.017C127.331 249.957 126.164 251.026 126.104 252.406C126.043 253.785 127.113 254.952 128.492 255.012C129.872 255.073 131.039 254.003 131.099 252.624C131.159 251.244 130.09 250.077 128.71 250.017ZM127.62 274.993C126.24 274.933 125.073 276.002 125.013 277.382C124.953 278.761 126.022 279.928 127.402 279.988C128.781 280.049 129.948 278.979 130.008 277.6C130.069 276.22 128.999 275.053 127.62 274.993ZM99.963 278.327C100.023 276.948 101.19 275.878 102.57 275.938C103.949 275.999 105.018 277.166 104.958 278.545C104.898 279.924 103.731 280.994 102.352 280.934C100.972 280.873 99.9028 279.706 99.963 278.327ZM103.66 250.962C102.281 250.902 101.114 251.972 101.054 253.351C100.993 254.73 102.063 255.897 103.442 255.958C104.821 256.018 105.989 254.948 106.049 253.569C106.109 252.19 105.04 251.023 103.66 250.962ZM102.144 228.375C102.204 226.996 103.371 225.926 104.751 225.986C106.13 226.047 107.199 227.214 107.139 228.593C107.079 229.973 105.912 231.042 104.533 230.982C103.153 230.921 102.084 229.754 102.144 228.375ZM105.841 201.011C104.462 200.95 103.295 202.02 103.235 203.399C103.174 204.778 104.244 205.945 105.623 206.006C107.003 206.066 108.17 204.997 108.23 203.617C108.29 202.238 107.221 201.071 105.841 201.011ZM104.325 178.423C104.385 177.044 105.552 175.974 106.932 176.035C108.311 176.095 109.381 177.262 109.32 178.641C109.26 180.021 108.093 181.09 106.714 181.03C105.334 180.97 104.265 179.802 104.325 178.423ZM108.022 151.058C106.642 150.998 105.475 152.067 105.415 153.447C105.355 154.826 106.424 155.993 107.804 156.053C109.183 156.113 110.35 155.044 110.41 153.665C110.47 152.285 109.401 151.118 108.022 151.058ZM106.506 128.471C106.566 127.091 107.733 126.022 109.112 126.082C110.492 126.142 111.561 127.309 111.501 128.689C111.441 130.068 110.274 131.137 108.894 131.077C107.515 131.017 106.445 129.85 106.506 128.471ZM110.203 101.105C108.823 101.045 107.656 102.115 107.596 103.494C107.536 104.873 108.605 106.04 109.985 106.101C111.364 106.161 112.531 105.092 112.591 103.712C112.652 102.333 111.582 101.166 110.203 101.105ZM108.687 78.5193C108.747 77.1399 109.914 76.0705 111.293 76.1307C112.673 76.191 113.742 77.358 113.682 78.7374C113.622 80.1168 112.455 81.1862 111.075 81.1259C109.696 81.0657 108.626 79.8987 108.687 78.5193ZM112.384 51.1548C111.005 51.0946 109.837 52.164 109.777 53.5433C109.717 54.9227 110.786 56.0898 112.166 56.15C113.545 56.2102 114.712 55.1408 114.772 53.7614C114.833 52.382 113.763 51.215 112.384 51.1548ZM110.868 28.5668C110.928 27.1874 112.095 26.118 113.474 26.1782C114.854 26.2384 115.923 27.4055 115.863 28.7849C115.803 30.1643 114.636 31.2336 113.256 31.1734C111.877 31.1132 110.808 29.9462 110.868 28.5668ZM114.565 1.20226C113.186 1.14204 112.019 2.21142 111.958 3.59082C111.898 4.97022 112.967 6.13724 114.347 6.19746C115.726 6.25768 116.893 5.1883 116.954 3.8089C117.014 2.42953 115.944 1.26248 114.565 1.20226ZM74.9869 279.417C75.0472 278.038 76.2142 276.969 77.5936 277.029C78.973 277.089 80.0424 278.256 79.9821 279.636C79.9219 281.015 78.7549 282.084 77.3755 282.024C75.9961 281.964 74.9267 280.797 74.9869 279.417ZM78.6841 252.053C77.3047 251.993 76.1377 253.062 76.0775 254.441C76.0173 255.821 77.0867 256.988 78.466 257.048C79.8454 257.108 81.0125 256.039 81.0727 254.66C81.1329 253.28 80.0635 252.113 78.6841 252.053ZM77.168 229.466C77.2282 228.086 78.3953 227.017 79.7747 227.077C81.1541 227.137 82.2235 228.304 82.1632 229.684C82.103 231.063 80.936 232.132 79.5566 232.072C78.1772 232.012 77.1078 230.845 77.168 229.466ZM80.8652 202.101C79.4858 202.041 78.3188 203.11 78.2586 204.49C78.1983 205.869 79.2677 207.036 80.6471 207.096C82.0265 207.156 83.1936 206.087 83.2538 204.708C83.314 203.328 82.2446 202.161 80.8652 202.101ZM79.3491 179.514C79.4093 178.134 80.5764 177.065 81.9558 177.125C83.3352 177.185 84.4045 178.352 84.3443 179.732C84.2841 181.111 83.1171 182.18 81.7377 182.12C80.3583 182.06 79.2889 180.893 79.3491 179.514ZM83.0457 152.148C81.6663 152.088 80.4992 153.158 80.439 154.537C80.3788 155.916 81.4482 157.083 82.8276 157.144C84.207 157.204 85.374 156.135 85.4342 154.755C85.4944 153.376 84.4251 152.209 83.0457 152.148ZM81.5296 129.561C81.5898 128.182 82.7568 127.112 84.1362 127.173C85.5156 127.233 86.585 128.4 86.5248 129.779C86.4645 131.159 85.2975 132.228 83.9181 132.168C82.5387 132.108 81.4693 130.94 81.5296 129.561ZM85.2267 102.196C83.8473 102.136 82.6803 103.205 82.6201 104.585C82.5598 105.964 83.6292 107.131 85.0086 107.191C86.388 107.251 87.5551 106.182 87.6153 104.803C87.6755 103.423 86.6061 102.256 85.2267 102.196ZM83.7107 79.6098C83.7709 78.2304 84.9379 77.161 86.3173 77.2212C87.6967 77.2814 88.7661 78.4485 88.7059 79.8279C88.6457 81.2073 87.4786 82.2767 86.0992 82.2164C84.7198 82.1562 83.6504 80.9892 83.7107 79.6098ZM87.4079 52.2453C86.0285 52.185 84.8614 53.2544 84.8012 54.6338C84.741 56.0132 85.8104 57.1802 87.1898 57.2405C88.5692 57.3007 89.7362 56.2313 89.7964 54.8519C89.8566 53.4725 88.7873 52.3055 87.4079 52.2453ZM85.8917 29.6572C85.952 28.2779 87.119 27.2085 88.4984 27.2687C89.8778 27.3289 90.9472 28.496 90.8869 29.8754C90.8267 31.2547 89.6597 32.3241 88.2803 32.2639C86.9009 32.2037 85.8315 31.0366 85.8917 29.6572ZM89.5889 2.29274C88.2095 2.23252 87.0425 3.3019 86.9823 4.6813C86.922 6.0607 87.9914 7.22772 89.3708 7.28794C90.7502 7.34816 91.9172 6.27878 91.9775 4.89938C92.0377 3.52001 90.9683 2.35296 89.5889 2.29274ZM50.0109 280.508C50.0711 279.129 51.2382 278.059 52.6176 278.119C53.9969 278.18 55.0663 279.347 55.0061 280.726C54.9459 282.105 53.7788 283.175 52.3995 283.115C51.0201 283.054 49.9507 281.887 50.0109 280.508ZM53.7081 253.143C52.3287 253.083 51.1617 254.153 51.1014 255.532C51.0412 256.911 52.1106 258.078 53.49 258.139C54.8694 258.199 56.0364 257.129 56.0966 255.75C56.1569 254.371 55.0875 253.204 53.7081 253.143ZM52.192 230.556C52.2522 229.177 53.4192 228.107 54.7986 228.167C56.178 228.228 57.2474 229.395 57.1872 230.774C57.127 232.153 55.9599 233.223 54.5805 233.163C53.2011 233.102 52.1318 231.935 52.192 230.556ZM55.8892 203.191C54.5098 203.131 53.3428 204.201 53.2825 205.58C53.2223 206.959 54.2917 208.126 55.6711 208.187C57.0505 208.247 58.2175 207.178 58.2777 205.798C58.338 204.419 57.2686 203.252 55.8892 203.191ZM54.3731 180.604C54.4333 179.225 55.6003 178.155 56.9797 178.216C58.3591 178.276 59.4285 179.443 59.3683 180.822C59.308 182.202 58.141 183.271 56.7616 183.211C55.3822 183.15 54.3128 181.983 54.3731 180.604ZM58.0696 153.239C56.6902 153.179 55.5232 154.248 55.463 155.628C55.4028 157.007 56.4721 158.174 57.8515 158.234C59.2309 158.294 60.398 157.225 60.4582 155.846C60.5184 154.466 59.449 153.299 58.0696 153.239ZM56.5535 130.652C56.6137 129.272 57.7808 128.203 59.1602 128.263C60.5396 128.323 61.609 129.49 61.5487 130.87C61.4885 132.249 60.3215 133.318 58.9421 133.258C57.5627 133.198 56.4933 132.031 56.5535 130.652ZM60.2507 103.286C58.8713 103.226 57.7043 104.296 57.644 105.675C57.5838 107.054 58.6532 108.221 60.0326 108.282C61.412 108.342 62.579 107.272 62.6392 105.893C62.6995 104.514 61.6301 103.347 60.2507 103.286ZM58.7346 80.7002C58.7949 79.3209 59.9619 78.2515 61.3413 78.3117C62.7207 78.3719 63.7901 79.539 63.7298 80.9184C63.6696 82.2977 62.5026 83.3671 61.1232 83.3069C59.7438 83.2467 58.6744 82.0796 58.7346 80.7002ZM62.4318 53.3357C61.0524 53.2755 59.8854 54.3449 59.8252 55.7243C59.765 57.1037 60.8343 58.2707 62.2137 58.3309C63.5931 58.3912 64.7602 57.3218 64.8204 55.9424C64.8806 54.563 63.8112 53.396 62.4318 53.3357ZM60.9157 30.7477C60.9759 29.3684 62.143 28.299 63.5223 28.3592C64.9017 28.4194 65.9711 29.5864 65.9109 30.9658C65.8507 32.3452 64.6836 33.4146 63.3042 33.3544C61.9249 33.2942 60.8555 32.1271 60.9157 30.7477ZM64.6129 3.38322C63.2335 3.323 62.0665 4.39238 62.0062 5.77178C61.946 7.15117 63.0154 8.31819 64.3948 8.37841C65.7742 8.43863 66.9412 7.36925 67.0014 5.98986C67.0617 4.61049 65.9923 3.44344 64.6129 3.38322ZM25.0349 281.598C25.0951 280.219 26.2621 279.15 27.6415 279.21C29.0209 279.27 30.0903 280.437 30.0301 281.816C29.9698 283.196 28.8028 284.265 27.4234 284.205C26.044 284.145 24.9746 282.978 25.0349 281.598ZM28.7321 254.234C27.3527 254.174 26.1856 255.243 26.1254 256.622C26.0652 258.002 27.1346 259.169 28.514 259.229C29.8933 259.289 31.0604 258.22 31.1206 256.841C31.1808 255.461 30.1114 254.294 28.7321 254.234ZM27.2159 231.646C27.2762 230.267 28.4432 229.198 29.8226 229.258C31.202 229.318 32.2714 230.485 32.2112 231.865C32.1509 233.244 30.9839 234.313 29.6045 234.253C28.2251 234.193 27.1557 233.026 27.2159 231.646ZM30.9131 204.282C29.5338 204.222 28.3667 205.291 28.3065 206.671C28.2463 208.05 29.3157 209.217 30.6951 209.277C32.0744 209.337 33.2415 208.268 33.3017 206.889C33.3619 205.509 32.2925 204.342 30.9131 204.282ZM29.397 181.695C29.4573 180.315 30.6243 179.246 32.0037 179.306C33.3831 179.366 34.4525 180.533 34.3922 181.913C34.332 183.292 33.165 184.361 31.7856 184.301C30.4062 184.241 29.3368 183.074 29.397 181.695ZM33.0936 154.329C31.7142 154.269 30.5472 155.339 30.4869 156.718C30.4267 158.097 31.4961 159.264 32.8755 159.325C34.2549 159.385 35.4219 158.315 35.4821 156.936C35.5424 155.557 34.473 154.39 33.0936 154.329ZM31.5775 131.742C31.6377 130.363 32.8047 129.293 34.1841 129.353C35.5635 129.414 36.6329 130.581 36.5727 131.96C36.5125 133.34 35.3454 134.409 33.966 134.349C32.5866 134.288 31.5173 133.121 31.5775 131.742ZM35.2746 104.377C33.8953 104.317 32.7282 105.386 32.668 106.765C32.6078 108.145 33.6772 109.312 35.0566 109.372C36.4359 109.432 37.603 108.363 37.6632 106.984C37.7234 105.604 36.654 104.437 35.2746 104.377ZM33.7586 81.7907C33.8188 80.4114 34.9859 79.342 36.3652 79.4022C37.7446 79.4624 38.814 80.6294 38.7538 82.0088C38.6936 83.3882 37.5265 84.4576 36.1471 84.3974C34.7678 84.3372 33.6984 83.1701 33.7586 81.7907ZM37.4558 54.4262C36.0764 54.366 34.9094 55.4354 34.8491 56.8148C34.7889 58.1942 35.8583 59.3612 37.2377 59.4214C38.6171 59.4817 39.7841 58.4123 39.8443 57.0329C39.9046 55.6535 38.8352 54.4864 37.4558 54.4262ZM35.9396 31.8382C35.9999 30.4588 37.1669 29.3894 38.5463 29.4497C39.9257 29.5099 40.9951 30.6769 40.9349 32.0563C40.8746 33.4357 39.7076 34.5051 38.3282 34.4448C36.9488 34.3846 35.8794 33.2176 35.9396 31.8382ZM39.6368 4.4737C38.2575 4.41348 37.0904 5.48286 37.0302 6.86225C36.97 8.24165 38.0394 9.40867 39.4187 9.46889C40.7981 9.52911 41.9652 8.45973 42.0254 7.08033C42.0856 5.70097 41.0162 4.53392 39.6368 4.4737ZM0.058815 282.689C0.11905 281.309 1.28609 280.24 2.66548 280.3C4.04487 280.361 5.11426 281.528 5.05402 282.907C4.9938 284.286 3.82677 285.356 2.44739 285.296C1.06799 285.235 -0.00140504 284.068 0.058815 282.689ZM3.75602 255.324C2.37663 255.264 1.20959 256.334 1.14937 257.713C1.08914 259.092 2.15853 260.259 3.53793 260.32C4.91731 260.38 6.08435 259.31 6.14457 257.931C6.2048 256.552 5.13541 255.385 3.75602 255.324ZM2.23991 232.737C2.30013 231.358 3.46717 230.288 4.84657 230.348C6.22595 230.409 7.29534 231.576 7.23511 232.955C7.17489 234.334 6.00785 235.404 4.62847 235.344C3.24907 235.283 2.17968 234.116 2.23991 232.737ZM5.9365 205.372C4.5571 205.312 3.39007 206.382 3.32985 207.761C3.26961 209.14 4.33901 210.307 5.7184 210.368C7.09779 210.428 8.26482 209.358 8.32504 207.979C8.38528 206.6 7.31588 205.433 5.9365 205.372ZM4.42039 182.785C4.48061 181.406 5.64764 180.336 7.02704 180.396C8.40642 180.457 9.47582 181.624 9.4156 183.003C9.35536 184.383 8.18833 185.452 6.80894 185.392C5.42955 185.331 4.36015 184.164 4.42039 182.785ZM8.11755 155.42C6.73816 155.36 5.57112 156.429 5.5109 157.808C5.45067 159.188 6.52006 160.355 7.89946 160.415C9.27884 160.475 10.4459 159.406 10.5061 158.027C10.5663 156.647 9.49694 155.48 8.11755 155.42ZM6.60083 132.833C6.66105 131.453 7.82809 130.384 9.20749 130.444C10.5869 130.504 11.6563 131.671 11.596 133.051C11.5358 134.43 10.3688 135.499 8.98939 135.439C7.60999 135.379 6.5406 134.212 6.60083 132.833ZM10.298 105.467C8.9186 105.407 7.75159 106.477 7.69135 107.856C7.63113 109.235 8.70051 110.402 10.0799 110.463C11.4593 110.523 12.6263 109.453 12.6866 108.074C12.7468 106.695 11.6774 105.528 10.298 105.467ZM8.78316 82.8812C8.8434 81.5018 10.0104 80.4324 11.3898 80.4926C12.7692 80.5529 13.8386 81.7199 13.7784 83.0993C13.7181 84.4787 12.5511 85.5481 11.1717 85.4878C9.79232 85.4276 8.72294 84.2606 8.78316 82.8812ZM12.4797 55.5167C11.1004 55.4565 9.93333 56.5259 9.8731 57.9052C9.81288 59.2846 10.8823 60.4517 12.2617 60.5119C13.6411 60.5721 14.8081 59.5027 14.8683 58.1234C14.9285 56.744 13.8591 55.5769 12.4797 55.5167ZM10.9636 32.9287C11.0238 31.5493 12.1909 30.4799 13.5703 30.5401C14.9496 30.6004 16.019 31.7674 15.9588 33.1468C15.8986 34.5262 14.7316 35.5955 13.3522 35.5353C11.9728 35.4751 10.9034 34.3081 10.9636 32.9287ZM14.6608 5.56417C13.2814 5.50395 12.1144 6.57333 12.0542 7.95273C11.9939 9.33213 13.0633 10.4991 14.4427 10.5594C15.8221 10.6196 16.9891 9.55021 17.0494 8.17081C17.1096 6.79144 16.0402 5.62439 14.6608 5.56417Z" fill="#DADDEC"/>
</svg>
