<svg width="24" height="24" viewBox="0 0 24 24" fill="none" xmlns="http://www.w3.org/2000/svg">
<rect x="2" y="2" width="20" height="20" rx="6" stroke="#14146D" stroke-width="2"/>
<path fill-rule="evenodd" clip-rule="evenodd" d="M7 12C7 9.23875 9.23875 7 12 7C14.7612 7 17 9.23875 17 12C17 14.7612 14.7612 17 12 17C9.23875 17 7 14.7612 7 12ZM9 12C9 13.6536 10.3464 15 12 15C13.6536 15 15 13.6536 15 12C15 10.3452 13.6536 9 12 9C10.3464 9 9 10.3452 9 12Z" fill="#14146D"/>
<path d="M17.5 8C18.3284 8 19 7.32843 19 6.5C19 5.67157 18.3284 5 17.5 5C16.6716 5 16 5.67157 16 6.5C16 7.32843 16.6716 8 17.5 8Z" fill="#14146D"/>
</svg>
