<svg width="32" height="33" viewBox="0 0 32 33" fill="none" xmlns="http://www.w3.org/2000/svg">
<g opacity="0.5">
<rect x="2.66634" y="3.33333" width="26.6667" height="26.6667" rx="8" stroke="#1A1A76" stroke-width="2.66667"/>
<path fill-rule="evenodd" clip-rule="evenodd" d="M9.33301 16.6667C9.33301 12.985 12.318 10 15.9997 10C19.6813 10 22.6663 12.985 22.6663 16.6667C22.6663 20.3483 19.6813 23.3333 15.9997 23.3333C12.318 23.3333 9.33301 20.3483 9.33301 16.6667ZM12 16.6667C12 18.8715 13.7952 20.6667 16 20.6667C18.2048 20.6667 20 18.8715 20 16.6667C20 14.4603 18.2048 12.6667 16 12.6667C13.7952 12.6667 12 14.4603 12 16.6667Z" fill="#1A1A76"/>
<path d="M23.333 11.3334C24.4376 11.3334 25.333 10.4379 25.333 9.33337C25.333 8.2288 24.4376 7.33337 23.333 7.33337C22.2284 7.33337 21.333 8.2288 21.333 9.33337C21.333 10.4379 22.2284 11.3334 23.333 11.3334Z" fill="#1A1A76"/>
</g>
</svg>
