<svg width="392" height="243" viewBox="0 0 392 243" fill="none" xmlns="http://www.w3.org/2000/svg">
<path fill-rule="evenodd" clip-rule="evenodd" d="M390.982 41.6901C390.954 43.5308 389.439 45.0005 387.599 44.9728C385.758 44.945 384.288 43.4303 384.316 41.5896C384.344 39.7489 385.858 38.2792 387.699 38.3069C389.54 38.3347 391.01 39.8494 390.982 41.6901ZM354.269 44.4704C356.11 44.4982 357.625 43.0285 357.653 41.1878C357.68 39.347 356.211 37.8323 354.37 37.8046C352.529 37.7768 351.014 39.2465 350.987 41.0873C350.959 42.928 352.429 44.4427 354.269 44.4704ZM324.323 40.6854C324.296 42.5261 322.781 43.9958 320.94 43.9681C319.099 43.9404 317.63 42.4257 317.658 40.5849C317.685 38.7442 319.2 37.2745 321.041 37.3022C322.881 37.33 324.351 38.8447 324.323 40.6854ZM287.61 43.4657C289.451 43.4934 290.966 42.0237 290.993 40.183C291.021 38.3423 289.551 36.8276 287.711 36.7998C285.87 36.7721 284.355 38.2418 284.327 40.0825C284.3 41.9232 285.769 43.4379 287.61 43.4657ZM257.664 39.6806C257.636 41.5214 256.122 42.9911 254.281 42.9633C252.44 42.9356 250.971 41.4209 250.998 39.5801C251.026 37.7394 252.541 36.2697 254.381 36.2975C256.222 36.3252 257.692 37.8399 257.664 39.6806ZM220.952 42.4609C222.792 42.4886 224.307 41.0189 224.335 39.1782C224.363 37.3375 222.893 35.8228 221.052 35.795C219.212 35.7673 217.697 37.237 217.669 39.0777C217.641 40.9184 219.111 42.4331 220.952 42.4609ZM191.005 38.6759C190.977 40.5166 189.462 41.9863 187.622 41.9585C185.781 41.9308 184.311 40.4161 184.339 38.5754C184.367 36.7346 185.881 35.2649 187.722 35.2927C189.563 35.3204 191.033 36.8351 191.005 38.6759ZM154.293 41.4555C156.134 41.4832 157.649 40.0135 157.677 38.1728C157.704 36.3321 156.235 34.8174 154.394 34.7896C152.553 34.7619 151.038 36.2316 151.011 38.0723C150.983 39.913 152.453 41.4277 154.293 41.4555ZM124.347 37.6703C124.319 39.511 122.804 40.9807 120.963 40.9529C119.123 40.9252 117.653 39.4105 117.681 37.5698C117.708 35.729 119.223 34.2593 121.064 34.2871C122.905 34.3148 124.374 35.8295 124.347 37.6703ZM87.6341 40.4507C89.4748 40.4784 90.9895 39.0087 91.0173 37.168C91.045 35.3273 89.5753 33.8126 87.7346 33.7848C85.8939 33.7571 84.3792 35.2268 84.3514 37.0675C84.3237 38.9083 85.7934 40.423 87.6341 40.4507ZM57.6881 36.6658C57.6603 38.5065 56.1456 39.9762 54.3049 39.9485C52.4642 39.9207 50.9944 38.406 51.0222 36.5653C51.0499 34.7246 52.5646 33.2548 54.4054 33.2826C56.2461 33.3103 57.7158 34.825 57.6881 36.6658ZM24.3588 36.1633C24.3311 38.0041 22.8164 39.4738 20.9757 39.446C19.1349 39.4183 17.6652 37.9036 17.693 36.0628C17.7207 34.2221 19.2354 32.7524 21.0762 32.7801C22.9169 32.8079 24.3866 34.3226 24.3588 36.1633ZM17.7578 72.7148C19.5985 72.7425 21.1132 71.2728 21.141 69.4321C21.1687 67.5914 19.699 66.0767 17.8583 66.0489C16.0176 66.0212 14.5029 67.4909 14.4751 69.3316C14.4474 71.1723 15.9171 72.687 17.7578 72.7148ZM54.4702 69.9345C54.4424 71.7753 52.9277 73.245 51.087 73.2172C49.2463 73.1895 47.7766 71.6748 47.8043 69.834C47.8321 67.9933 49.3468 66.5236 51.1875 66.5514C53.0282 66.5791 54.4979 68.0938 54.4702 69.9345ZM84.4162 73.7195C86.257 73.7472 87.7717 72.2775 87.7994 70.4368C87.8272 68.5961 86.3575 67.0814 84.5167 67.0536C82.676 67.0259 81.1613 68.4956 81.1336 70.3363C81.1058 72.177 82.5755 73.6917 84.4162 73.7195ZM121.129 70.939C121.101 72.7798 119.586 74.2495 117.745 74.2217C115.905 74.194 114.435 72.6793 114.463 70.8385C114.491 68.9978 116.005 67.5281 117.846 67.5558C119.687 67.5836 121.156 69.0983 121.129 70.939ZM151.075 74.7242C152.915 74.7519 154.43 73.2822 154.458 71.4415C154.486 69.6007 153.016 68.086 151.175 68.0583C149.334 68.0305 147.82 69.5003 147.792 71.341C147.764 73.1817 149.234 74.6964 151.075 74.7242ZM187.788 71.9447C187.76 73.7854 186.245 75.2551 184.405 75.2274C182.564 75.1996 181.094 73.685 181.122 71.8442C181.15 70.0035 182.664 68.5338 184.505 68.5615C186.346 68.5893 187.816 70.104 187.788 71.9447ZM217.734 75.7297C219.575 75.7575 221.089 74.2878 221.117 72.4471C221.145 70.6063 219.675 69.0916 217.834 69.0639C215.994 69.0361 214.479 70.5058 214.451 72.3466C214.423 74.1873 215.893 75.702 217.734 75.7297ZM254.447 72.9496C254.419 74.7903 252.905 76.26 251.064 76.2323C249.223 76.2045 247.753 74.6898 247.781 72.8491C247.809 71.0084 249.324 69.5387 251.164 69.5664C253.005 69.5942 254.475 71.1089 254.447 72.9496ZM284.392 76.7344C286.232 76.7621 287.747 75.2924 287.775 73.4517C287.802 71.6109 286.333 70.0962 284.492 70.0685C282.651 70.0407 281.137 71.5105 281.109 73.3512C281.081 75.1919 282.551 76.7066 284.392 76.7344ZM321.104 73.9539C321.076 75.7946 319.561 77.2643 317.721 77.2366C315.88 77.2089 314.41 75.6942 314.438 73.8534C314.466 72.0127 315.98 70.543 317.821 70.5707C319.662 70.5985 321.132 72.1132 321.104 73.9539ZM351.051 77.7391C352.891 77.7669 354.406 76.2972 354.434 74.4564C354.462 72.6157 352.992 71.101 351.151 71.0733C349.311 71.0455 347.796 72.5152 347.768 74.356C347.74 76.1967 349.21 77.7114 351.051 77.7391ZM387.763 74.9588C387.735 76.7995 386.221 78.2692 384.38 78.2415C382.539 78.2137 381.07 76.699 381.097 74.8583C381.125 73.0176 382.64 71.5479 384.48 71.5756C386.321 71.6034 387.791 73.1181 387.763 74.9588ZM14.3524 105.873C16.1932 105.901 17.7079 104.431 17.7356 102.591C17.7634 100.75 16.2936 99.2353 14.4529 99.2076C12.6122 99.1798 11.0975 100.65 11.0697 102.49C11.042 104.331 12.5117 105.846 14.3524 105.873ZM51.0648 103.093C51.0371 104.934 49.5224 106.404 47.6816 106.376C45.8409 106.348 44.3712 104.833 44.399 102.993C44.4267 101.152 45.9414 99.6823 47.7821 99.71C49.6229 99.7378 51.0926 101.252 51.0648 103.093ZM81.0109 106.878C82.8516 106.906 84.3663 105.436 84.3941 103.595C84.4218 101.755 82.9521 100.24 81.1114 100.212C79.2706 100.185 77.7559 101.654 77.7282 103.495C77.7004 105.336 79.1701 106.85 81.0109 106.878ZM117.723 104.098C117.696 105.938 116.181 107.408 114.34 107.38C112.499 107.353 111.03 105.838 111.057 103.997C111.085 102.157 112.6 100.687 114.441 100.715C116.281 100.742 117.751 102.257 117.723 104.098ZM147.669 107.883C149.51 107.911 151.025 106.441 151.052 104.6C151.08 102.759 149.611 101.245 147.77 101.217C145.929 101.189 144.414 102.659 144.387 104.5C144.359 106.34 145.829 107.855 147.669 107.883ZM184.382 105.103C184.355 106.944 182.84 108.414 180.999 108.386C179.159 108.358 177.689 106.844 177.717 105.003C177.744 103.162 179.259 101.692 181.1 101.72C182.94 101.748 184.41 103.263 184.382 105.103ZM214.328 108.888C216.169 108.916 217.684 107.446 217.712 105.606C217.739 103.765 216.27 102.25 214.429 102.223C212.588 102.195 211.074 103.665 211.046 105.505C211.018 107.346 212.488 108.861 214.328 108.888ZM251.042 106.108C251.014 107.949 249.499 109.419 247.659 109.391C245.818 109.363 244.348 107.849 244.376 106.008C244.404 104.167 245.918 102.697 247.759 102.725C249.6 102.753 251.069 104.268 251.042 106.108ZM280.986 109.893C282.827 109.921 284.342 108.451 284.369 106.61C284.397 104.77 282.927 103.255 281.087 103.227C279.246 103.199 277.731 104.669 277.703 106.51C277.676 108.351 279.145 109.865 280.986 109.893ZM317.699 107.113C317.671 108.953 316.156 110.423 314.315 110.395C312.475 110.368 311.005 108.853 311.033 107.012C311.06 105.171 312.575 103.702 314.416 103.729C316.257 103.757 317.726 105.272 317.699 107.113ZM347.645 110.898C349.486 110.926 351.001 109.456 351.029 107.615C351.056 105.774 349.587 104.26 347.746 104.232C345.905 104.204 344.39 105.674 344.363 107.515C344.335 109.355 345.805 110.87 347.645 110.898ZM384.358 108.117C384.33 109.958 382.815 111.428 380.975 111.4C379.134 111.372 377.664 109.858 377.692 108.017C377.72 106.176 379.234 104.707 381.075 104.734C382.916 104.762 384.386 106.277 384.358 108.117ZM10.9471 139.032C12.7878 139.06 14.3025 137.59 14.3302 135.749C14.358 133.909 12.8883 132.394 11.0475 132.366C9.20682 132.339 7.69212 133.808 7.66437 135.649C7.63662 137.49 9.10633 139.004 10.9471 139.032ZM47.6594 136.252C47.6317 138.093 46.117 139.562 44.2763 139.535C42.4355 139.507 40.9658 137.992 40.9936 136.151C41.0213 134.311 42.536 132.841 44.3768 132.869C46.2175 132.896 47.6872 134.411 47.6594 136.252ZM77.6055 140.037C79.4462 140.065 80.9609 138.595 80.9887 136.754C81.0164 134.913 79.5467 133.399 77.706 133.371C75.8653 133.343 74.3506 134.813 74.3228 136.654C74.2951 138.494 75.7648 140.009 77.6055 140.037ZM114.318 137.256C114.29 139.097 112.775 140.567 110.935 140.539C109.094 140.511 107.624 138.997 107.652 137.156C107.68 135.315 109.194 133.846 111.035 133.873C112.876 133.901 114.346 135.416 114.318 137.256ZM144.264 141.042C146.105 141.069 147.619 139.6 147.647 137.759C147.675 135.918 146.205 134.404 144.364 134.376C142.524 134.348 141.009 135.818 140.981 137.658C140.954 139.499 142.423 141.014 144.264 141.042ZM180.977 138.262C180.949 140.103 179.435 141.573 177.594 141.545C175.753 141.517 174.283 140.002 174.311 138.162C174.339 136.321 175.854 134.851 177.694 134.879C179.535 134.907 181.005 136.421 180.977 138.262ZM210.923 142.047C212.764 142.075 214.279 140.605 214.306 138.764C214.334 136.924 212.864 135.409 211.024 135.381C209.183 135.354 207.668 136.823 207.64 138.664C207.613 140.505 209.082 142.019 210.923 142.047ZM247.636 139.267C247.609 141.108 246.094 142.577 244.253 142.55C242.412 142.522 240.943 141.007 240.97 139.166C240.998 137.326 242.513 135.856 244.354 135.884C246.194 135.912 247.664 137.426 247.636 139.267ZM277.581 143.052C279.421 143.08 280.936 141.61 280.964 139.769C280.992 137.928 279.522 136.414 277.681 136.386C275.841 136.358 274.326 137.828 274.298 139.669C274.27 141.509 275.74 143.024 277.581 143.052ZM314.293 140.271C314.265 142.112 312.751 143.582 310.91 143.554C309.069 143.526 307.6 142.012 307.627 140.171C307.655 138.33 309.17 136.86 311.01 136.888C312.851 136.916 314.321 138.431 314.293 140.271ZM344.24 144.057C346.081 144.084 347.595 142.615 347.623 140.774C347.651 138.933 346.181 137.418 344.34 137.391C342.5 137.363 340.985 138.833 340.957 140.673C340.93 142.514 342.399 144.029 344.24 144.057ZM380.952 141.276C380.925 143.117 379.41 144.587 377.569 144.559C375.729 144.531 374.259 143.016 374.287 141.176C374.314 139.335 375.829 137.865 377.67 137.893C379.51 137.921 380.98 139.435 380.952 141.276ZM7.54173 172.191C9.38246 172.218 10.8972 170.749 10.9249 168.908C10.9527 167.067 9.48294 165.552 7.64221 165.525C5.80149 165.497 4.28679 166.967 4.25904 168.807C4.23129 170.648 5.701 172.163 7.54173 172.191ZM44.2541 169.411C44.2263 171.251 42.7116 172.721 40.8709 172.693C39.0302 172.666 37.5605 171.151 37.5882 169.31C37.616 167.469 39.1307 166 40.9714 166.027C42.8121 166.055 44.2818 167.57 44.2541 169.411ZM74.2001 173.196C76.0409 173.223 77.5556 171.754 77.5833 169.913C77.6111 168.072 76.1413 166.557 74.3006 166.53C72.4599 166.502 70.9452 167.972 70.9174 169.812C70.8897 171.653 72.3594 173.168 74.2001 173.196ZM110.913 170.415C110.885 172.256 109.37 173.726 107.529 173.698C105.689 173.67 104.219 172.155 104.247 170.315C104.274 168.474 105.789 167.004 107.63 167.032C109.471 167.06 110.94 168.574 110.913 170.415ZM140.859 174.2C142.699 174.228 144.214 172.758 144.242 170.918C144.27 169.077 142.8 167.562 140.959 167.534C139.118 167.507 137.604 168.976 137.576 170.817C137.548 172.658 139.018 174.173 140.859 174.2ZM177.572 171.421C177.544 173.262 176.029 174.731 174.189 174.704C172.348 174.676 170.878 173.161 170.906 171.32C170.934 169.48 172.448 168.01 174.289 168.038C176.13 168.065 177.599 169.58 177.572 171.421ZM207.518 175.206C209.358 175.234 210.873 173.764 210.901 171.923C210.929 170.082 209.459 168.568 207.618 168.54C205.778 168.512 204.263 169.982 204.235 171.823C204.207 173.663 205.677 175.178 207.518 175.206ZM244.231 172.426C244.203 174.266 242.689 175.736 240.848 175.708C239.007 175.681 237.537 174.166 237.565 172.325C237.593 170.484 239.108 169.015 240.948 169.042C242.789 169.07 244.259 170.585 244.231 172.426ZM274.175 176.21C276.016 176.238 277.531 174.769 277.559 172.928C277.586 171.087 276.117 169.572 274.276 169.545C272.435 169.517 270.92 170.987 270.893 172.827C270.865 174.668 272.335 176.183 274.175 176.21ZM310.888 173.43C310.86 175.271 309.345 176.741 307.505 176.713C305.664 176.685 304.194 175.17 304.222 173.33C304.25 171.489 305.764 170.019 307.605 170.047C309.446 170.075 310.916 171.589 310.888 173.43ZM340.835 177.215C342.675 177.243 344.19 175.773 344.218 173.933C344.246 172.092 342.776 170.577 340.935 170.549C339.094 170.522 337.58 171.991 337.552 173.832C337.524 175.673 338.994 177.188 340.835 177.215ZM377.547 174.435C377.519 176.276 376.005 177.745 374.164 177.718C372.323 177.69 370.853 176.175 370.881 174.334C370.909 172.494 372.424 171.024 374.264 171.052C376.105 171.079 377.575 172.594 377.547 174.435ZM4.13636 205.349C5.97709 205.377 7.49179 203.907 7.51953 202.067C7.54728 200.226 6.07757 198.711 4.23684 198.683C2.39612 198.656 0.881418 200.125 0.85367 201.966C0.82592 203.807 2.29563 205.321 4.13636 205.349ZM40.8487 202.569C40.821 204.41 39.3063 205.88 37.4656 205.852C35.6248 205.824 34.1551 204.309 34.1829 202.469C34.2106 200.628 35.7253 199.158 37.566 199.186C39.4068 199.214 40.8765 200.728 40.8487 202.569ZM70.7947 206.354C72.6355 206.382 74.1502 204.912 74.1779 203.072C74.2057 201.231 72.736 199.716 70.8952 199.689C69.0545 199.661 67.5398 201.131 67.5121 202.971C67.4843 204.812 68.954 206.327 70.7947 206.354ZM107.507 203.574C107.479 205.415 105.965 206.885 104.124 206.857C102.283 206.829 100.814 205.315 100.841 203.474C100.869 201.633 102.384 200.163 104.224 200.191C106.065 200.219 107.535 201.734 107.507 203.574ZM137.453 207.36C139.294 207.387 140.809 205.918 140.836 204.077C140.864 202.236 139.394 200.722 137.554 200.694C135.713 200.666 134.198 202.136 134.17 203.977C134.143 205.817 135.612 207.332 137.453 207.36ZM174.166 204.58C174.139 206.42 172.624 207.89 170.783 207.862C168.942 207.835 167.473 206.32 167.5 204.479C167.528 202.639 169.043 201.169 170.884 201.197C172.724 201.224 174.194 202.739 174.166 204.58ZM204.112 208.365C205.953 208.393 207.468 206.923 207.496 205.082C207.523 203.242 206.054 201.727 204.213 201.699C202.372 201.671 200.857 203.141 200.83 204.982C200.802 206.823 202.272 208.337 204.112 208.365ZM240.826 205.585C240.798 207.426 239.283 208.895 237.442 208.868C235.602 208.84 234.132 207.325 234.16 205.485C234.187 203.644 235.702 202.174 237.543 202.202C239.384 202.23 240.853 203.744 240.826 205.585ZM270.77 209.369C272.611 209.396 274.125 207.927 274.153 206.086C274.181 204.245 272.711 202.73 270.871 202.703C269.03 202.675 267.515 204.145 267.487 205.985C267.46 207.826 268.929 209.341 270.77 209.369ZM307.482 206.588C307.455 208.429 305.94 209.899 304.099 209.871C302.259 209.843 300.789 208.329 300.817 206.488C300.844 204.647 302.359 203.178 304.2 203.205C306.041 203.233 307.51 204.748 307.482 206.588ZM337.429 210.374C339.27 210.402 340.785 208.932 340.812 207.091C340.84 205.25 339.371 203.736 337.53 203.708C335.689 203.68 334.174 205.15 334.147 206.991C334.119 208.831 335.589 210.346 337.429 210.374ZM374.142 207.594C374.114 209.434 372.599 210.904 370.758 210.876C368.918 210.849 367.448 209.334 367.476 207.493C367.504 205.653 369.018 204.183 370.859 204.211C372.7 204.238 374.169 205.753 374.142 207.594Z" fill="#DADDEC"/>
</svg>
