<svg width="100" height="187" viewBox="0 0 100 187" fill="none" xmlns="http://www.w3.org/2000/svg">
<path fill-rule="evenodd" clip-rule="evenodd" d="M100 0H17.0073L0 187H82.9927L100 0ZM44 139.959C44.3823 139.987 44.7659 140 45.15 140C53.3687 140 60 133.715 60 125.996C60 118.278 53.3687 112 45.15 112C38.6487 112 32.9627 115.917 31 121.753L36.051 123.462C36.6012 121.822 37.6406 120.422 39 119.377V146H44V139.959ZM44 134.594C44.3766 134.636 44.7558 134.657 45.1356 134.656C50.3887 134.656 54.6531 130.768 54.6531 125.967C54.6531 121.167 50.4031 117.344 45.15 117.344C44.7615 117.344 44.3776 117.365 44 117.405V134.594ZM56 159H34V154H56V159Z" fill="#14146D"/>
</svg>
