<svg width="186" height="148" viewBox="0 0 186 148" fill="none" xmlns="http://www.w3.org/2000/svg">
<path d="M159 0L0.333496 26.6667L28.3335 148L141.667 138.667L159 0Z" fill="#E8E8F1"/>
<path opacity="0.1" fill-rule="evenodd" clip-rule="evenodd" d="M179.432 52.396C179.981 50.8851 181.652 50.1061 183.163 50.656C184.674 51.2059 185.453 52.8765 184.903 54.3874C184.353 55.8983 182.682 56.6774 181.172 56.1274C179.661 55.5775 178.882 53.9069 179.432 52.396ZM173.206 78.0132C171.695 77.4632 170.024 78.2423 169.474 79.7532C168.924 81.2641 169.703 82.9347 171.214 83.4846C172.725 84.0345 174.396 83.2555 174.946 81.7446C175.496 80.2337 174.717 78.5631 173.206 78.0132ZM163.248 105.37C161.738 104.82 160.067 105.599 159.517 107.11C158.967 108.621 159.746 110.292 161.257 110.842C162.768 111.392 164.439 110.613 164.988 109.102C165.538 107.591 164.759 105.92 163.248 105.37ZM131.364 99.3881C131.914 97.8772 133.585 97.0982 135.096 97.6481C136.607 98.198 137.386 99.8686 136.836 101.38C136.286 102.89 134.615 103.669 133.104 103.12C131.594 102.57 130.815 100.899 131.364 99.3881ZM145.053 70.2909C143.542 69.741 141.872 70.52 141.322 72.0309C140.772 73.5418 141.551 75.2124 143.062 75.7624C144.573 76.3123 146.243 75.5333 146.793 74.0224C147.343 72.5115 146.564 70.8408 145.053 70.2909ZM151.279 44.6737C151.829 43.1628 153.5 42.3838 155.01 42.9337C156.521 43.4837 157.3 45.1543 156.75 46.6652C156.201 48.1761 154.53 48.9551 153.019 48.4052C151.508 47.8553 150.729 46.1846 151.279 44.6737ZM103.243 91.8531C103.793 90.3422 105.464 89.5632 106.975 90.1131C108.486 90.663 109.265 92.3336 108.715 93.8445C108.165 95.3554 106.494 96.1345 104.983 95.5845C103.473 95.0346 102.694 93.364 103.243 91.8531ZM116.932 62.7559C115.421 62.206 113.751 62.985 113.201 64.4959C112.651 66.0068 113.43 67.6774 114.941 68.2274C116.452 68.7773 118.122 67.9983 118.672 66.4874C119.222 64.9765 118.443 63.3058 116.932 62.7559ZM123.158 37.1387C123.708 35.6278 125.379 34.8488 126.889 35.3987C128.4 35.9487 129.179 37.6193 128.629 39.1302C128.08 40.6411 126.409 41.4201 124.898 40.8702C123.387 40.3203 122.608 38.6496 123.158 37.1387ZM75.1224 84.3181C75.6724 82.8072 77.343 82.0282 78.8539 82.5781C80.3648 83.128 81.1438 84.7986 80.5939 86.3095C80.044 87.8204 78.3734 88.5995 76.8625 88.0495C75.3515 87.4996 74.5725 85.829 75.1224 84.3181ZM88.8112 55.2209C87.3003 54.671 85.6297 55.45 85.0797 56.9609C84.5298 58.4718 85.3088 60.1424 86.8197 60.6924C88.3306 61.2423 90.0013 60.4633 90.5512 58.9524C91.1011 57.4415 90.3221 55.7708 88.8112 55.2209ZM95.037 29.6037C95.5869 28.0928 97.2576 27.3138 98.7685 27.8637C100.279 28.4137 101.058 30.0843 100.508 31.5952C99.9585 33.1061 98.2879 33.8851 96.777 33.3352C95.2661 32.7853 94.4871 31.1146 95.037 29.6037ZM47.0014 76.7831C47.5514 75.2722 49.222 74.4932 50.7329 75.0431C52.2438 75.593 53.0228 77.2636 52.4729 78.7745C51.923 80.2854 50.2523 81.0645 48.7414 80.5145C47.2305 79.9646 46.4515 78.294 47.0014 76.7831ZM60.6902 47.6859C59.1793 47.136 57.5086 47.915 56.9587 49.4259C56.4088 50.9368 57.1878 52.6074 58.6987 53.1574C60.2096 53.7073 61.8802 52.9283 62.4302 51.4174C62.9801 49.9065 62.2011 48.2358 60.6902 47.6859ZM66.916 22.0687C67.4659 20.5578 69.1365 19.7788 70.6474 20.3287C72.1583 20.8787 72.9374 22.5493 72.3874 24.0602C71.8375 25.5711 70.1669 26.3501 68.656 25.8002C67.1451 25.2503 66.3661 23.5796 66.916 22.0687ZM18.8804 69.2481C19.4303 67.7372 21.101 66.9582 22.6119 67.5081C24.1228 68.058 24.9018 69.7286 24.3519 71.2395C23.8019 72.7504 22.1313 73.5295 20.6204 72.9795C19.1095 72.4296 18.3305 70.759 18.8804 69.2481ZM32.5691 40.1509C31.0582 39.601 29.3876 40.38 28.8377 41.8909C28.2878 43.4018 29.0668 45.0724 30.5777 45.6224C32.0886 46.1723 33.7592 45.3933 34.3092 43.8824C34.8591 42.3715 34.08 40.7008 32.5691 40.1509ZM38.795 14.5337C39.3449 13.0228 41.0155 12.2438 42.5264 12.7937C44.0373 13.3437 44.8164 15.0143 44.2664 16.5252C43.7165 18.0361 42.0459 18.8151 40.535 18.2652C39.0241 17.7153 38.2451 16.0446 38.795 14.5337Z" fill="#14146D"/>
</svg>
