<svg width="208" height="158" viewBox="0 0 208 158" fill="none" xmlns="http://www.w3.org/2000/svg">
<path d="M0.713044 13.6667L143.94 23.7395L143.894 157.804L0.666504 147.732L0.713044 13.6667Z" fill="#E8E8F1"/>
<path opacity="0.1" fill-rule="evenodd" clip-rule="evenodd" d="M185.999 4.55499C185.72 2.97154 186.777 1.46158 188.361 1.18237C189.944 0.903172 191.454 1.96046 191.733 3.5439C192.013 5.12735 190.955 6.63731 189.372 6.91651C187.789 7.19572 186.279 6.13843 185.999 4.55499ZM193.416 29.853C191.833 30.1322 190.775 31.6422 191.055 33.2256C191.334 34.8091 192.844 35.8664 194.427 35.5872C196.011 35.308 197.068 33.798 196.789 32.2145C196.51 30.6311 195 29.5738 193.416 29.853ZM198.472 58.5237C196.888 58.8029 195.831 60.3128 196.11 61.8963C196.389 63.4797 197.899 64.537 199.483 64.2578C201.066 63.9786 202.123 62.4686 201.844 60.8852C201.565 59.3018 200.055 58.2445 198.472 58.5237ZM167.868 69.2849C167.589 67.7014 168.646 66.1915 170.23 65.9123C171.813 65.633 173.323 66.6903 173.602 68.2738C173.881 69.8572 172.824 71.3672 171.241 71.6464C169.657 71.9256 168.147 70.8683 167.868 69.2849ZM165.174 37.2416C163.591 37.5208 162.534 39.0308 162.813 40.6142C163.092 42.1977 164.602 43.255 166.185 42.9758C167.769 42.6965 168.826 41.1866 168.547 39.6031C168.268 38.0197 166.758 36.9624 165.174 37.2416ZM157.757 11.9436C157.478 10.3601 158.536 8.85016 160.119 8.57096C161.702 8.29176 163.212 9.34905 163.492 10.9325C163.771 12.5159 162.713 14.0259 161.13 14.3051C159.547 14.5843 158.037 13.527 157.757 11.9436ZM139.747 76.8199C139.468 75.2364 140.525 73.7265 142.109 73.4473C143.692 73.168 145.202 74.2253 145.481 75.8088C145.76 77.3922 144.703 78.9022 143.12 79.1814C141.536 79.4606 140.026 78.4033 139.747 76.8199ZM137.053 44.7766C135.47 45.0558 134.413 46.5658 134.692 48.1492C134.971 49.7327 136.481 50.79 138.064 50.5108C139.648 50.2315 140.705 48.7216 140.426 47.1381C140.147 45.5547 138.637 44.4974 137.053 44.7766ZM129.636 19.4786C129.357 17.8951 130.414 16.3852 131.998 16.106C133.581 15.8268 135.091 16.884 135.371 18.4675C135.65 20.0509 134.592 21.5609 133.009 21.8401C131.426 22.1193 129.916 21.062 129.636 19.4786ZM111.626 84.3549C111.347 82.7714 112.404 81.2615 113.988 80.9822C115.571 80.703 117.081 81.7603 117.36 83.3438C117.639 84.9272 116.582 86.4372 114.999 86.7164C113.415 86.9956 111.905 85.9383 111.626 84.3549ZM108.932 52.3116C107.349 52.5908 106.292 54.1008 106.571 55.6842C106.85 57.2677 108.36 58.325 109.943 58.0457C111.527 57.7665 112.584 56.2566 112.305 54.6731C112.026 53.0897 110.516 52.0324 108.932 52.3116ZM101.515 27.0136C101.236 25.4301 102.293 23.9202 103.877 23.641C105.46 23.3618 106.97 24.419 107.25 26.0025C107.529 27.5859 106.471 29.0959 104.888 29.3751C103.305 29.6543 101.795 28.597 101.515 27.0136ZM83.505 91.8899C83.2258 90.3064 84.2831 88.7965 85.8666 88.5173C87.45 88.238 88.96 89.2953 89.2392 90.8788C89.5184 92.4622 88.4611 93.9722 86.8777 94.2514C85.2942 94.5306 83.7842 93.4733 83.505 91.8899ZM80.8112 59.8466C79.2278 60.1258 78.1705 61.6358 78.4497 63.2192C78.7289 64.8027 80.2389 65.86 81.8223 65.5807C83.4058 65.3015 84.4631 63.7916 84.1839 62.2081C83.9047 60.6247 82.3947 59.5674 80.8112 59.8466ZM73.3944 34.5486C73.1152 32.9651 74.1725 31.4552 75.7559 31.176C77.3394 30.8968 78.8493 31.954 79.1285 33.5375C79.4077 35.1209 78.3505 36.6309 76.767 36.9101C75.1836 37.1893 73.6736 36.132 73.3944 34.5486ZM55.384 99.4249C55.1048 97.8414 56.1621 96.3315 57.7456 96.0522C59.329 95.773 60.839 96.8303 61.1182 98.4138C61.3974 99.9972 60.3401 101.507 58.7566 101.786C57.1732 102.066 55.6632 101.008 55.384 99.4249ZM52.6902 67.3816C51.1068 67.6608 50.0495 69.1708 50.3287 70.7542C50.6079 72.3377 52.1179 73.395 53.7013 73.1157C55.2848 72.8365 56.342 71.3266 56.0628 69.7431C55.7836 68.1597 54.2737 67.1024 52.6902 67.3816ZM45.2734 42.0836C44.9942 40.5001 46.0515 38.9902 47.6349 38.711C49.2184 38.4318 50.7283 39.489 51.0075 41.0725C51.2867 42.6559 50.2295 44.1659 48.646 44.4451C47.0626 44.7243 45.5526 43.667 45.2734 42.0836Z" fill="#14146D"/>
</svg>
