<svg width="141" height="169" viewBox="0 0 141 169" fill="none" xmlns="http://www.w3.org/2000/svg">
<path d="M0.244563 23.3488L138.385 12.2528L140.679 143.631L2.53779 154.727L0.244563 23.3488Z" fill="#E8E8F1"/>
<path opacity="0.1" fill-rule="evenodd" clip-rule="evenodd" d="M69.4702 6.94468C67.9593 6.39476 67.1803 4.72413 67.7302 3.21323C68.2801 1.70233 69.9508 0.923302 71.4617 1.47322C72.9726 2.02315 73.7516 3.69377 73.2017 5.20467C72.6517 6.71558 70.9811 7.4946 69.4702 6.94468ZM95.0874 13.1705C94.5375 14.6814 95.3165 16.352 96.8274 16.902C98.3383 17.4519 100.009 16.6729 100.559 15.162C101.109 13.6511 100.33 11.9804 98.8188 11.4305C97.3079 10.8806 95.6373 11.6596 95.0874 13.1705ZM122.445 23.1278C121.895 24.6387 122.674 26.3093 124.185 26.8592C125.695 27.4092 127.366 26.6301 127.916 25.1192C128.466 23.6083 127.687 21.9377 126.176 21.3878C124.665 20.8379 122.994 21.6169 122.445 23.1278ZM116.462 55.0118C114.951 54.4618 114.172 52.7912 114.722 51.2803C115.272 49.7694 116.943 48.9904 118.454 49.5403C119.965 50.0902 120.744 51.7609 120.194 53.2718C119.644 54.7827 117.973 55.5617 116.462 55.0118ZM87.3651 41.323C86.8152 42.8339 87.5942 44.5046 89.1051 45.0545C90.616 45.6044 92.2867 44.8254 92.8366 43.3145C93.3865 41.8036 92.6075 40.1329 91.0966 39.583C89.5857 39.0331 87.915 39.8121 87.3651 41.323ZM61.748 35.0972C60.2371 34.5473 59.458 32.8766 60.008 31.3657C60.5579 29.8548 62.2285 29.0758 63.7394 29.6257C65.2503 30.1757 66.0293 31.8463 65.4794 33.3572C64.9295 34.8681 63.2589 35.6471 61.748 35.0972ZM108.927 83.1328C107.416 82.5828 106.637 80.9122 107.187 79.4013C107.737 77.8904 109.408 77.1114 110.919 77.6613C112.43 78.2112 113.209 79.8819 112.659 81.3928C112.109 82.9037 110.438 83.6827 108.927 83.1328ZM79.8301 69.444C79.2802 70.9549 80.0592 72.6256 81.5701 73.1755C83.081 73.7254 84.7517 72.9464 85.3016 71.4355C85.8515 69.9246 85.0725 68.2539 83.5616 67.704C82.0507 67.1541 80.38 67.9331 79.8301 69.444ZM54.213 63.2182C52.7021 62.6683 51.923 60.9976 52.4729 59.4868C53.0229 57.9758 54.6935 57.1968 56.2044 57.7467C57.7153 58.2967 58.4943 59.9673 57.9444 61.4782C57.3945 62.9891 55.7239 63.7681 54.213 63.2182ZM101.392 111.254C99.8814 110.704 99.1024 109.033 99.6523 107.522C100.202 106.011 101.873 105.232 103.384 105.782C104.895 106.332 105.674 108.003 105.124 109.514C104.574 111.025 102.903 111.804 101.392 111.254ZM72.2951 97.565C71.7452 99.0759 72.5242 100.747 74.0351 101.296C75.546 101.846 77.2167 101.067 77.7666 99.5565C78.3165 98.0456 77.5375 96.375 76.0266 95.825C74.5157 95.2751 72.845 96.0541 72.2951 97.565ZM46.678 91.3392C45.1671 90.7893 44.388 89.1187 44.9379 87.6078C45.4879 86.0969 47.1585 85.3178 48.6694 85.8678C50.1803 86.4177 50.9593 88.0883 50.4094 89.5992C49.8595 91.1101 48.1889 91.8891 46.678 91.3392ZM93.8573 139.375C92.3464 138.825 91.5674 137.154 92.1173 135.643C92.6672 134.132 94.3378 133.353 95.8487 133.903C97.3596 134.453 98.1387 136.124 97.5887 137.635C97.0388 139.146 95.3682 139.925 93.8573 139.375ZM64.7601 125.686C64.2102 127.197 64.9892 128.868 66.5001 129.418C68.011 129.967 69.6816 129.188 70.2316 127.677C70.7815 126.167 70.0025 124.496 68.4916 123.946C66.9807 123.396 65.31 124.175 64.7601 125.686ZM39.143 119.46C37.632 118.91 36.853 117.24 37.4029 115.729C37.9529 114.218 39.6235 113.439 41.1344 113.989C42.6453 114.539 43.4243 116.209 42.8744 117.72C42.3245 119.231 40.6539 120.01 39.143 119.46ZM86.3223 167.496C84.8114 166.946 84.0324 165.275 84.5823 163.764C85.1322 162.253 86.8028 161.474 88.3137 162.024C89.8246 162.574 90.6037 164.245 90.0537 165.756C89.5038 167.267 87.8332 168.046 86.3223 167.496ZM57.2251 153.807C56.6752 155.318 57.4542 156.989 58.9651 157.539C60.476 158.088 62.1466 157.309 62.6966 155.798C63.2465 154.288 62.4675 152.617 60.9566 152.067C59.4457 151.517 57.775 152.296 57.2251 153.807ZM31.6079 147.581C30.097 147.031 29.318 145.361 29.8679 143.85C30.4179 142.339 32.0885 141.56 33.5994 142.11C35.1103 142.66 35.8893 144.33 35.3394 145.841C34.7895 147.352 33.1188 148.131 31.6079 147.581Z" fill="#14146D"/>
</svg>
