<svg width="75" height="126" viewBox="0 0 75 126" fill="none" xmlns="http://www.w3.org/2000/svg">
<path opacity="0.1" fill-rule="evenodd" clip-rule="evenodd" d="M30.1029 5.20845C28.9697 4.79601 28.3855 3.54304 28.7979 2.40986C29.2103 1.27669 30.4633 0.692416 31.5965 1.10486C32.7297 1.5173 33.3139 2.77027 32.9015 3.90345C32.4891 5.03662 31.2361 5.62089 30.1029 5.20845ZM49.3158 9.87782C48.9033 11.011 49.4876 12.264 50.6208 12.6764C51.754 13.0889 53.0069 12.5046 53.4194 11.3714C53.8318 10.2382 53.2475 8.98526 52.1144 8.57282C50.9812 8.16038 49.7282 8.74465 49.3158 9.87782ZM69.8337 17.3458C69.4212 18.479 70.0055 19.7319 71.1387 20.1444C72.2718 20.5568 73.5248 19.9725 73.9372 18.8394C74.3497 17.7062 73.7654 16.4532 72.6322 16.0408C71.4991 15.6283 70.2461 16.2126 69.8337 17.3458ZM65.347 41.2588C64.2138 40.8463 63.6295 39.5933 64.042 38.4602C64.4544 37.327 65.7074 36.7427 66.8406 37.1552C67.9737 37.5676 68.558 38.8206 68.1456 39.9538C67.7331 41.0869 66.4801 41.6712 65.347 41.2588ZM43.5241 30.9922C43.1116 32.1254 43.6959 33.3784 44.8291 33.7908C45.9623 34.2032 47.2152 33.619 47.6277 32.4858C48.0401 31.3526 47.4559 30.0996 46.3227 29.6872C45.1895 29.2748 43.9365 29.859 43.5241 30.9922ZM24.3112 26.3228C23.178 25.9104 22.5938 24.6574 23.0062 23.5242C23.4187 22.3911 24.6716 21.8068 25.8048 22.2192C26.938 22.6317 27.5222 23.8846 27.1098 25.0178C26.6974 26.151 25.4444 26.7353 24.3112 26.3228ZM59.6957 62.3495C58.5625 61.9371 57.9783 60.6841 58.3907 59.5509C58.8032 58.4177 60.0561 57.8335 61.1893 58.2459C62.3225 58.6584 62.9067 59.9113 62.4943 61.0445C62.0819 62.1777 60.8289 62.762 59.6957 62.3495ZM37.8728 52.083C37.4604 53.2161 38.0447 54.4691 39.1778 54.8815C40.311 55.294 41.564 54.7097 41.9764 53.5765C42.3889 52.4434 41.8046 51.1904 40.6714 50.778C39.5382 50.3655 38.2853 50.9498 37.8728 52.083ZM18.66 47.4136C17.5268 47.0011 16.9425 45.7482 17.355 44.615C17.7674 43.4818 19.0204 42.8975 20.1535 43.31C21.2867 43.7224 21.871 44.9754 21.4586 46.1086C21.0461 47.2418 19.7931 47.826 18.66 47.4136ZM54.0445 83.4403C52.9113 83.0278 52.327 81.7748 52.7395 80.6417C53.1519 79.5085 54.4049 78.9242 55.538 79.3367C56.6712 79.7491 57.2555 81.0021 56.8431 82.1353C56.4306 83.2684 55.1776 83.8527 54.0445 83.4403ZM32.2216 73.1737C31.8091 74.3069 32.3934 75.5599 33.5266 75.9723C34.6598 76.3847 35.9127 75.8005 36.3252 74.6673C36.7376 73.5341 36.1533 72.2812 35.0202 71.8687C33.887 71.4563 32.634 72.0405 32.2216 73.1737ZM13.0087 68.5043C11.8755 68.0919 11.2913 66.8389 11.7037 65.7058C12.1161 64.5726 13.3691 63.9883 14.5023 64.4007C15.6355 64.8132 16.2197 66.0662 15.8073 67.1993C15.3949 68.3325 14.1419 68.9168 13.0087 68.5043ZM48.3932 104.531C47.26 104.119 46.6758 102.866 47.0882 101.732C47.5007 100.599 48.7536 100.015 49.8868 100.427C51.02 100.84 51.6042 102.093 51.1918 103.226C50.7794 104.359 49.5264 104.943 48.3932 104.531ZM26.5703 94.2645C26.1579 95.3976 26.7422 96.6506 27.8753 97.0631C29.0085 97.4755 30.2615 96.8912 30.6739 95.7581C31.0864 94.6249 30.5021 93.3719 29.3689 92.9595C28.2357 92.547 26.9828 93.1313 26.5703 94.2645ZM7.35746 89.5951C6.22428 89.1826 5.64001 87.9297 6.05245 86.7965C6.4649 85.6633 7.71787 85.0791 8.85104 85.4915C9.98422 85.9039 10.5685 87.1569 10.156 88.2901C9.74361 89.4233 8.49063 90.0075 7.35746 89.5951ZM42.742 125.622C41.6088 125.209 41.0245 123.956 41.437 122.823C41.8494 121.69 43.1024 121.106 44.2355 121.518C45.3687 121.931 45.953 123.184 45.5405 124.317C45.1281 125.45 43.8751 126.034 42.742 125.622ZM20.9191 115.355C20.5066 116.488 21.0909 117.741 22.2241 118.154C23.3573 118.566 24.6102 117.982 25.0227 116.849C25.4351 115.716 24.8508 114.463 23.7177 114.05C22.5845 113.638 21.3315 114.222 20.9191 115.355ZM1.70621 110.686C0.57303 110.273 -0.0112415 109.02 0.401204 107.887C0.813647 106.754 2.06661 106.17 3.19979 106.582C4.33297 106.995 4.91724 108.248 4.5048 109.381C4.09235 110.514 2.83938 111.098 1.70621 110.686Z" fill="#1A1A76"/>
</svg>
