<svg width="248" height="243" viewBox="0 0 248 243" fill="none" xmlns="http://www.w3.org/2000/svg">
<path d="M27.3868 89.4468L174.525 33.3843L220.917 153.347L73.7787 209.409L27.3868 89.4468Z" fill="#E8E8F1"/>
<path opacity="0.1" fill-rule="evenodd" clip-rule="evenodd" d="M38.734 52.3178C37.2768 52.9973 35.5446 52.3668 34.8651 50.9096C34.1856 49.4524 34.8161 47.7202 36.2733 47.0407C37.7305 46.3612 39.4627 46.9916 40.1422 48.4489C40.8217 49.9061 40.1912 51.6383 38.734 52.3178ZM61.2504 38.606C61.9299 40.0632 63.6621 40.6937 65.1193 40.0142C66.5765 39.3347 67.207 37.6025 66.5275 36.1453C65.848 34.6881 64.1158 34.0576 62.6586 34.7371C61.2014 35.4166 60.5709 37.1488 61.2504 38.606ZM87.6357 26.3024C88.3152 27.7597 90.0474 28.3901 91.5046 27.7106C92.9618 27.0311 93.5923 25.2989 92.9128 23.8417C92.2333 22.3845 90.5011 21.754 89.0439 22.4335C87.5867 23.1131 86.9562 24.8452 87.6357 26.3024ZM105.951 53.0779C104.494 53.7574 102.762 53.127 102.082 51.6697C101.403 50.2125 102.033 48.4803 103.49 47.8008C104.947 47.1213 106.68 47.7518 107.359 49.209C108.039 50.6662 107.408 52.3984 105.951 53.0779ZM75.6968 63.9733C76.3763 65.4305 78.1085 66.061 79.5657 65.3815C81.0229 64.702 81.6534 62.9698 80.9739 61.5126C80.2943 60.0554 78.5622 59.4249 77.105 60.1044C75.6477 60.7839 75.0173 62.5161 75.6968 63.9733ZM53.1804 77.6851C51.7232 78.3646 49.991 77.7341 49.3115 76.2769C48.632 74.8197 49.2624 73.0875 50.7197 72.408C52.1769 71.7285 53.909 72.3589 54.5886 73.8162C55.2681 75.2734 54.6376 77.0055 53.1804 77.6851ZM120.507 78.2905C119.05 78.97 117.318 78.3396 116.639 76.8823C115.959 75.4251 116.59 73.693 118.047 73.0134C119.504 72.3339 121.236 72.9644 121.916 74.4216C122.595 75.8788 121.965 77.611 120.507 78.2905ZM90.2533 89.1859C90.9328 90.6431 92.665 91.2736 94.1222 90.5941C95.5794 89.9146 96.2099 88.1824 95.5304 86.7252C94.8509 85.268 93.1187 84.6375 91.6615 85.317C90.2042 85.9965 89.5738 87.7287 90.2533 89.1859ZM67.7369 102.898C66.2797 103.577 64.5475 102.947 63.868 101.49C63.1885 100.032 63.8189 98.3001 65.2762 97.6206C66.7334 96.9411 68.4655 97.5715 69.1451 99.0288C69.8246 100.486 69.1941 102.218 67.7369 102.898ZM135.064 103.503C133.607 104.183 131.875 103.552 131.195 102.095C130.516 100.638 131.146 98.9056 132.603 98.226C134.06 97.5465 135.793 98.177 136.472 99.6342C137.152 101.091 136.521 102.824 135.064 103.503ZM104.81 114.399C105.489 115.856 107.221 116.486 108.679 115.807C110.136 115.127 110.766 113.395 110.087 111.938C109.407 110.481 107.675 109.85 106.218 110.53C104.761 111.209 104.13 112.941 104.81 114.399ZM82.2934 128.11C80.8362 128.79 79.104 128.159 78.4245 126.702C77.745 125.245 78.3754 123.513 79.8327 122.833C81.2899 122.154 83.0221 122.784 83.7016 124.241C84.3811 125.699 83.7506 127.431 82.2934 128.11ZM149.621 128.716C148.163 129.395 146.431 128.765 145.752 127.308C145.072 125.85 145.703 124.118 147.16 123.439C148.617 122.759 150.349 123.39 151.029 124.847C151.708 126.304 151.078 128.036 149.621 128.716ZM119.366 139.611C120.046 141.068 121.778 141.699 123.235 141.019C124.692 140.34 125.323 138.608 124.643 137.15C123.964 135.693 122.232 135.063 120.774 135.742C119.317 136.422 118.687 138.154 119.366 139.611ZM96.8499 153.323C95.3927 154.002 93.6605 153.372 92.981 151.915C92.3015 150.457 92.9319 148.725 94.3892 148.046C95.8464 147.366 97.5786 147.997 98.2581 149.454C98.9376 150.911 98.3071 152.643 96.8499 153.323ZM164.177 153.928C162.72 154.608 160.988 153.977 160.308 152.52C159.629 151.063 160.259 149.331 161.716 148.651C163.174 147.972 164.906 148.602 165.585 150.059C166.265 151.517 165.634 153.249 164.177 153.928ZM133.923 164.824C134.602 166.281 136.334 166.911 137.792 166.232C139.249 165.552 139.879 163.82 139.2 162.363C138.52 160.906 136.788 160.275 135.331 160.955C133.874 161.634 133.243 163.367 133.923 164.824ZM111.406 178.535C109.949 179.215 108.217 178.585 107.538 177.127C106.858 175.67 107.488 173.938 108.946 173.258C110.403 172.579 112.135 173.209 112.815 174.667C113.494 176.124 112.864 177.856 111.406 178.535Z" fill="#14146D"/>
</svg>
