<svg width="204" height="181" viewBox="0 0 204 181" fill="none" xmlns="http://www.w3.org/2000/svg">
<path fill-rule="evenodd" clip-rule="evenodd" d="M56.4262 176.42L178.595 47.7302C156.538 23.4524 121.84 12.3499 88.1765 22.0027C40.9508 35.5445 13.6445 84.8062 27.1863 132.032C32.3833 150.156 42.8413 165.346 56.4262 176.42Z" fill="#E8E8F1"/>
<path opacity="0.1" fill-rule="evenodd" clip-rule="evenodd" d="M6.68541 79.2395C6.13549 80.7504 4.46486 81.5294 2.95396 80.9795C1.44306 80.4296 0.664034 78.759 1.21396 77.2481C1.76388 75.7372 3.43451 74.9581 4.94541 75.5081C6.45631 76.058 7.23533 77.7286 6.68541 79.2395ZM12.9112 53.6223C14.4221 54.1723 16.0928 53.3932 16.6427 51.8823C17.1926 50.3714 16.4136 48.7008 14.9027 48.1509C13.3918 47.601 11.7212 48.38 11.1712 49.8909C10.6213 51.4018 11.4003 53.0724 12.9112 53.6223ZM22.8685 26.2652C24.3794 26.8151 26.05 26.0361 26.6 24.5252C27.1499 23.0143 26.3709 21.3436 24.86 20.7937C23.3491 20.2438 21.6784 21.0228 21.1285 22.5337C20.5786 24.0446 21.3576 25.7152 22.8685 26.2652ZM54.7525 32.2474C54.2026 33.7583 52.5319 34.5373 51.021 33.9874C49.5101 33.4375 48.7311 31.7669 49.281 30.256C49.8309 28.7451 51.5016 27.966 53.0125 28.516C54.5234 29.0659 55.3024 30.7365 54.7525 32.2474ZM41.0638 61.3446C42.5747 61.8945 44.2453 61.1155 44.7952 59.6046C45.3451 58.0937 44.5661 56.4231 43.0552 55.8731C41.5443 55.3232 39.8737 56.1022 39.3237 57.6131C38.7738 59.124 39.5528 60.7947 41.0638 61.3446ZM34.8379 86.9617C34.288 88.4727 32.6174 89.2517 31.1065 88.7018C29.5956 88.1518 28.8165 86.4812 29.3665 84.9703C29.9164 83.4594 31.587 82.6804 33.0979 83.2303C34.6088 83.7802 35.3878 85.4509 34.8379 86.9617ZM82.8735 39.7824C82.3236 41.2933 80.6529 42.0723 79.142 41.5224C77.6311 40.9725 76.8521 39.3019 77.402 37.791C77.952 36.2801 79.6226 35.501 81.1335 36.051C82.6444 36.6009 83.4234 38.2715 82.8735 39.7824ZM69.1848 68.8796C70.6957 69.4295 72.3663 68.6505 72.9162 67.1396C73.4661 65.6287 72.6871 63.9581 71.1762 63.4081C69.6653 62.8582 67.9947 63.6372 67.4447 65.1481C66.8948 66.659 67.6739 68.3297 69.1848 68.8796ZM62.9589 94.4967C62.409 96.0077 60.7384 96.7867 59.2275 96.2368C57.7166 95.6868 56.9375 94.0162 57.4875 92.5053C58.0374 90.9944 59.708 90.2154 61.2189 90.7653C62.7298 91.3152 63.5089 92.9858 62.9589 94.4967ZM110.994 47.3174C110.445 48.8283 108.774 49.6073 107.263 49.0574C105.752 48.5075 104.973 46.8369 105.523 45.326C106.073 43.8151 107.744 43.036 109.254 43.586C110.765 44.1359 111.544 45.8065 110.994 47.3174ZM97.3058 76.4146C98.8167 76.9645 100.487 76.1855 101.037 74.6746C101.587 73.1637 100.808 71.4931 99.2972 70.9431C97.7863 70.3932 96.1157 71.1722 95.5658 72.6831C95.0158 74.194 95.7949 75.8647 97.3058 76.4146ZM91.0799 102.032C90.53 103.543 88.8594 104.322 87.3485 103.772C85.8376 103.222 85.0585 101.551 85.6085 100.04C86.1584 98.5294 87.829 97.7504 89.3399 98.3003C90.8508 98.8502 91.6299 100.521 91.0799 102.032ZM139.116 54.8524C138.566 56.3633 136.895 57.1423 135.384 56.5924C133.873 56.0425 133.094 54.3719 133.644 52.861C134.194 51.3501 135.865 50.571 137.375 51.121C138.886 51.6709 139.665 53.3415 139.116 54.8524ZM125.427 83.9496C126.938 84.4995 128.608 83.7205 129.158 82.2096C129.708 80.6987 128.929 79.0281 127.418 78.4781C125.907 77.9282 124.237 78.7072 123.687 80.2181C123.137 81.729 123.916 83.3997 125.427 83.9496ZM119.201 109.567C118.651 111.078 116.98 111.857 115.469 111.307C113.959 110.757 113.18 109.086 113.729 107.575C114.279 106.064 115.95 105.285 117.461 105.835C118.972 106.385 119.751 108.056 119.201 109.567ZM167.237 62.3874C166.687 63.8983 165.016 64.6773 163.505 64.1274C161.994 63.5775 161.215 61.9069 161.765 60.396C162.315 58.8851 163.986 58.106 165.497 58.656C167.007 59.2059 167.786 60.8765 167.237 62.3874ZM153.548 91.4846C155.059 92.0345 156.729 91.2555 157.279 89.7446C157.829 88.2337 157.05 86.5631 155.539 86.0131C154.028 85.4632 152.358 86.2422 151.808 87.7531C151.258 89.264 152.037 90.9347 153.548 91.4846ZM147.322 117.102C146.772 118.613 145.101 119.392 143.591 118.842C142.08 118.292 141.301 116.621 141.851 115.11C142.4 113.599 144.071 112.82 145.582 113.37C147.093 113.92 147.872 115.591 147.322 117.102Z" fill="#14146D"/>
</svg>
