<svg width="198" height="195" viewBox="0 0 198 195" fill="none" xmlns="http://www.w3.org/2000/svg">
<path d="M21.6667 26.1865L51.3035 194.265L182.832 82.816L21.6667 26.1865Z" fill="#E8E8F1"/>
<path opacity="0.1" fill-rule="evenodd" clip-rule="evenodd" d="M99.5827 9.26876C98.4477 8.12989 98.4509 6.28656 99.5897 5.15157C100.729 4.01658 102.572 4.01972 103.707 5.15859C104.842 6.29746 104.839 8.14079 103.7 9.27578C102.561 10.4108 100.718 10.4076 99.5827 9.26876ZM120.141 25.7726C119.002 26.9076 118.998 28.751 120.133 29.8898C121.268 31.0287 123.112 31.0318 124.251 29.8968C125.39 28.7619 125.393 26.9185 124.258 25.7797C123.123 24.6408 121.279 24.6376 120.141 25.7726ZM140.691 46.3937C139.552 47.5287 139.549 49.372 140.684 50.5109C141.819 51.6498 143.663 51.6529 144.801 50.5179C145.94 49.3829 145.943 47.5396 144.808 46.4007C143.673 45.2618 141.83 45.2587 140.691 46.3937ZM121.75 72.7299C120.615 71.5911 120.618 69.7477 121.757 68.6127C122.896 67.4777 124.739 67.4809 125.874 68.6197C127.009 69.7586 127.006 71.6019 125.867 72.7369C124.728 73.8719 122.885 73.8688 121.75 72.7299ZM101.206 47.9917C100.067 49.1267 100.064 50.97 101.199 52.1089C102.334 53.2477 104.177 53.2509 105.316 52.1159C106.455 50.9809 106.458 49.1375 105.323 47.9987C104.188 46.8598 102.345 46.8567 101.206 47.9917ZM80.6483 31.4878C79.5133 30.3489 79.5165 28.5056 80.6553 27.3706C81.7942 26.2356 83.6375 26.2387 84.7725 27.3776C85.9075 28.5165 85.9044 30.3598 84.7655 31.4948C83.6266 32.6298 81.7833 32.6267 80.6483 31.4878ZM102.998 94.9998C101.863 93.861 101.867 92.0176 103.005 90.8827C104.144 89.7477 105.988 89.7508 107.123 90.8897C108.258 92.0285 108.254 93.8719 107.116 95.0069C105.977 96.1419 104.133 96.1387 102.998 94.9998ZM82.4546 70.2616C81.3158 71.3966 81.3126 73.2399 82.4476 74.3788C83.5826 75.5176 85.4259 75.5208 86.5648 74.3858C87.7037 73.2508 87.7068 71.4075 86.5718 70.2686C85.4368 69.1297 83.5935 69.1266 82.4546 70.2616ZM61.8968 53.7577C60.7618 52.6188 60.765 50.7755 61.9039 49.6405C63.0427 48.5055 64.8861 48.5087 66.0211 49.6475C67.156 50.7864 67.1529 52.6297 66.014 53.7647C64.8752 54.8997 63.0318 54.8966 61.8968 53.7577ZM84.2469 117.27C83.1119 116.131 83.115 114.288 84.2539 113.153C85.3928 112.018 87.2361 112.021 88.3711 113.16C89.5061 114.298 89.503 116.142 88.3641 117.277C87.2252 118.412 85.3819 118.409 84.2469 117.27ZM63.7031 92.5315C62.5643 93.6665 62.5611 95.5098 63.6961 96.6487C64.8311 97.7876 66.6745 97.7907 67.8133 96.6557C68.9522 95.5207 68.9553 93.6774 67.8203 92.5385C66.6854 91.3997 64.842 91.3965 63.7031 92.5315ZM43.1454 76.0276C42.0104 74.8888 42.0135 73.0454 43.1524 71.9104C44.2913 70.7755 46.1346 70.7786 47.2696 71.9175C48.4046 73.0563 48.4014 74.8997 47.2626 76.0347C46.1237 77.1697 44.2804 77.1665 43.1454 76.0276ZM65.4954 139.54C64.3604 138.401 64.3636 136.557 65.5024 135.423C66.6413 134.288 68.4846 134.291 69.6196 135.43C70.7546 136.568 70.7515 138.412 69.6126 139.547C68.4737 140.682 66.6304 140.679 65.4954 139.54ZM44.9517 114.801C43.8128 115.936 43.8097 117.78 44.9447 118.919C46.0797 120.058 47.923 120.061 49.0619 118.926C50.2007 117.791 50.2039 115.947 49.0689 114.808C47.9339 113.67 46.0905 113.666 44.9517 114.801ZM24.3939 98.2976C23.2589 97.1587 23.262 95.3154 24.4009 94.1804C25.5398 93.0454 27.3831 93.0485 28.5181 94.1874C29.6531 95.3263 29.65 97.1696 28.5111 98.3046C27.3722 99.4396 25.5289 99.4364 24.3939 98.2976ZM46.7439 161.81C45.6089 160.671 45.6121 158.827 46.751 157.692C47.8898 156.557 49.7332 156.561 50.8682 157.699C52.0031 158.838 52 160.682 50.8611 161.817C49.7223 162.952 47.8789 162.949 46.7439 161.81ZM26.2002 137.071C25.0613 138.206 25.0582 140.05 26.1932 141.189C27.3282 142.327 29.1715 142.331 30.3104 141.196C31.4493 140.061 31.4524 138.217 30.3174 137.078C29.1824 135.94 27.3391 135.936 26.2002 137.071ZM5.64242 120.567C4.50743 119.429 4.51057 117.585 5.64944 116.45C6.78831 115.315 8.63164 115.318 9.76662 116.457C10.9016 117.596 10.8985 119.44 9.75962 120.575C8.62075 121.71 6.77741 121.706 5.64242 120.567Z" fill="#14146D"/>
</svg>
