<svg width="177" height="151" viewBox="0 0 177 151" fill="none" xmlns="http://www.w3.org/2000/svg">
<path d="M0.666504 8L176.667 0V142.667L0.666504 150.667V8Z" fill="#14146D"/>
<path fill-rule="evenodd" clip-rule="evenodd" d="M90.1074 53.8745C84.2652 54.2097 78.5931 58.2112 76.9022 63.7181C77.436 50.4222 86.727 49.7893 95.1749 49.2137C98.7614 48.9694 102.196 48.7354 104.744 47.5473C114.475 42.9577 110.923 28.8596 98.7349 30.8589C97.9634 30.9341 97.8249 31.432 97.6063 32.2177L97.6062 32.2179C97.5857 32.2916 97.5645 32.3679 97.542 32.4466C97.0039 34.6995 94.8774 35.0348 91.4145 35.581C88.3334 36.0669 84.1943 36.7197 79.1746 39.0384C67.1564 44.6247 66.3094 60.8956 67.2459 73.8264C68.0928 84.0053 76.1388 95.1044 89.2545 95.1044C103.217 95.1044 111.681 86.8455 111.681 74.3292C111.69 61.7188 102.546 53.2071 90.1074 53.8745ZM98.3204 37.2977C98.7861 36.97 99.0858 36.5458 99.3766 36.1342C99.8215 35.5046 100.245 34.9047 101.21 34.7251C102.749 34.4458 104.16 35.6071 103.673 37.6182C103.187 39.6293 101.097 40.1262 98.9407 40.1056C96.6414 40.0909 95.0638 39.3382 94.9744 38.8884C94.8832 38.4569 95.5542 38.2761 96.3761 38.0548C97.0327 37.8779 97.7857 37.6751 98.3234 37.2977H98.3204ZM83.5972 74.3139C83.5972 78.8182 84.4382 85.5806 89.2634 85.5806C94.4226 85.5806 95.0161 79.071 95.0161 74.3139C95.0161 69.2244 94.2497 62.9678 89.2634 62.9678C84.3577 62.9678 83.5972 69.392 83.5972 74.3139Z" fill="white"/>
<path fill-rule="evenodd" clip-rule="evenodd" d="M43.8277 110.886C46.1111 110.886 47.2421 109.563 47.2421 107.665C47.2421 105.928 45.7376 104.53 43.0915 104.985V103.885C43.0915 103.885 44.9694 104.239 45.791 103.861C46.5043 103.575 46.8772 102.701 46.6259 101.904C46.6096 101.866 46.5755 101.842 46.5379 101.841C44.6043 101.627 42.6564 101.627 40.7228 101.841C40.6918 101.841 40.6667 101.869 40.6667 101.904V107.421C40.6667 108.977 41.491 110.886 43.8277 110.886ZM43.1022 106.454C44.1239 106.234 44.8814 106.626 44.8814 107.911C44.8814 108.595 44.596 109.404 43.9932 109.404C43.3343 109.404 43.1156 108.729 43.1022 108.155V106.454Z" fill="white"/>
<path fill-rule="evenodd" clip-rule="evenodd" d="M54.8886 110.884C55.6109 110.884 56.3082 110.412 56.4369 110.025C56.4728 109.925 56.414 109.894 56.3159 109.844C56.0965 109.731 55.6808 109.517 55.6895 108.19C55.6895 107.358 55.7805 104.609 55.7805 104.609C55.778 104.58 55.7568 104.555 55.7271 104.547H53.1424C53.1066 104.556 53.0811 104.586 53.0796 104.62V105.456C52.726 104.761 51.9784 104.316 51.1544 104.31C49.4616 104.31 48.5571 105.963 48.5571 107.578C48.5571 109.193 49.4616 110.869 51.0885 110.869C51.993 110.869 52.6902 110.292 53.1299 109.509C53.2557 110.319 54.0129 110.91 54.8886 110.884ZM52.1878 105.94C52.8191 105.94 53.1551 106.676 53.1551 107.579H53.1426C53.1426 108.484 52.8222 109.208 52.1878 109.208C51.5534 109.208 51.2174 108.481 51.2174 107.579C51.2174 106.676 51.5566 105.94 52.1878 105.94Z" fill="white"/>
<path fill-rule="evenodd" clip-rule="evenodd" d="M61.7508 111.031C63.4453 111.031 64.3382 109.377 64.3382 107.683C64.3382 106.028 63.4453 104.31 61.8356 104.31C60.9302 104.31 60.2323 104.902 59.7921 105.719C59.6622 104.892 58.9067 104.287 58.0316 104.31C57.3022 104.31 56.6042 104.791 56.4596 105.187C56.4234 105.291 56.4739 105.322 56.5607 105.374C56.7521 105.49 57.1198 105.713 57.1198 107.067V113.455C57.1073 113.515 57.1733 113.515 57.1733 113.515H59.7607C59.7967 113.508 59.8228 113.478 59.8236 113.443V109.857C60.1781 110.568 60.9262 111.024 61.7508 111.031ZM60.7166 106.017C61.3517 106.017 61.6881 106.759 61.6881 107.684C61.6881 108.612 61.3517 109.366 60.7166 109.366C60.0815 109.366 59.7483 108.609 59.7483 107.684C59.7483 106.759 60.0815 106.017 60.7166 106.017Z" fill="white"/>
<path fill-rule="evenodd" clip-rule="evenodd" d="M71.9811 110.884C72.7061 110.884 73.403 110.412 73.5317 110.025C73.5697 109.924 73.5121 109.894 73.4146 109.843C73.198 109.73 72.7846 109.514 72.7846 108.19C72.7846 107.358 72.8725 104.609 72.8725 104.609C72.8713 104.58 72.8512 104.556 72.8223 104.547H70.239C70.2019 104.555 70.1749 104.585 70.1731 104.62V105.456C69.8208 104.76 69.0729 104.315 68.2489 104.31C66.5571 104.31 65.6531 105.963 65.6531 107.578C65.6531 109.193 66.5571 110.869 68.1862 110.869C69.0902 110.869 69.787 110.292 70.2264 109.509C70.3508 110.318 71.1065 110.91 71.9811 110.884ZM69.2813 105.94C69.9154 105.94 70.2513 106.676 70.2513 107.579C70.2513 108.484 69.9154 109.208 69.2845 109.208C68.6536 109.208 68.3177 108.484 68.3177 107.579C68.3177 106.673 68.6473 105.94 69.2813 105.94Z" fill="white"/>
<path d="M81.4213 110.062C81.2915 110.438 80.6049 110.885 79.8936 110.885C78.8638 110.885 78.1123 110.209 78.1123 109.072V108.261H76.8753V110.582C76.8745 110.618 76.8475 110.649 76.8103 110.656H74.2652C74.2652 110.656 74.2033 110.656 74.2157 110.594C74.2157 110.594 74.3054 107.838 74.3054 107.007C74.3054 105.082 73.4395 105.494 73.5539 105.167C73.693 104.78 74.3796 104.31 75.1002 104.31C76.13 104.31 76.8815 105.012 76.8815 106.146V106.848H78.1185V104.645C78.1176 104.628 78.1238 104.613 78.1355 104.601C78.1472 104.589 78.1634 104.583 78.1803 104.583H80.6235C80.6235 104.583 80.676 104.583 80.676 104.645V108.223C80.6699 110.136 81.5481 109.724 81.4213 110.062Z" fill="white"/>
<path d="M89.3142 110.024C89.1761 110.412 88.4949 110.884 87.7799 110.884C86.9208 110.907 86.1817 110.307 86.0646 109.492C85.5338 110.52 84.6868 110.884 84.0179 110.884C83.0974 110.884 82.2873 110.097 82.2873 108.891V107.005C82.2873 105.085 81.3299 105.496 81.4434 105.167C81.5815 104.783 82.2627 104.31 82.9777 104.31C83.4854 104.301 83.9743 104.494 84.3287 104.842C84.6831 105.19 84.8716 105.663 84.8495 106.148V108.497C84.8495 109.672 85.9848 109.293 86.0339 107.942V104.609C86.0321 104.576 86.0535 104.546 86.0861 104.536H88.6237C88.652 104.545 88.6717 104.569 88.6728 104.598C88.6728 104.598 88.5716 107.352 88.5716 108.186C88.5685 110.109 89.4277 109.698 89.3142 110.024Z" fill="white"/>
<path fill-rule="evenodd" clip-rule="evenodd" d="M92.7655 110.885C94.6091 110.885 95.6599 109.463 95.7982 108.955C95.835 108.847 95.8105 108.8 95.7613 108.773C95.7121 108.738 95.6445 108.738 95.5954 108.773C94.0529 109.594 92.3722 109.474 91.9298 108.266C93.5859 108.533 95.8996 108.304 95.8996 106.409C95.8996 105.553 95.0024 104.31 92.9284 104.31C90.753 104.31 89.3242 105.832 89.3242 107.591C89.321 108.464 89.6822 109.303 90.328 109.921C90.9738 110.539 91.851 110.886 92.7655 110.885ZM91.8292 107.196C91.829 107.196 91.8287 107.196 91.8285 107.196V107.204C91.8287 107.202 91.829 107.199 91.8292 107.196ZM91.8292 107.196C92.9533 107.292 93.5122 106.902 93.5122 106.245C93.513 106.08 93.4403 105.921 93.3121 105.81C93.1839 105.698 93.0122 105.643 92.8393 105.659H92.8025C92.6932 105.674 92.5886 105.711 92.4952 105.767C92.0702 106.036 91.8825 106.609 91.8292 107.196Z" fill="white"/>
<path d="M103.777 110.062C103.65 110.438 102.961 110.885 102.25 110.885C101.22 110.885 100.468 110.209 100.468 109.072V108.261H99.2312V110.582C99.2305 110.618 99.2034 110.649 99.1663 110.656H96.6211C96.6211 110.656 96.5593 110.656 96.5716 110.594C96.5716 110.594 96.6613 107.838 96.6613 107.007C96.6613 105.082 95.7954 105.494 95.9098 105.167C96.049 104.78 96.7355 104.31 97.4561 104.31C98.4859 104.31 99.2374 105.012 99.2374 106.146V106.848H100.474V104.645C100.474 104.628 100.48 104.613 100.491 104.601C100.503 104.589 100.519 104.583 100.536 104.583H102.982C102.982 104.583 103.032 104.583 103.032 104.645V108.223C103.029 110.136 103.904 109.724 103.777 110.062Z" fill="white"/>
<path fill-rule="evenodd" clip-rule="evenodd" d="M107.192 105.005C106.307 105.054 105.54 105.609 105.249 106.41C105.328 104.515 106.688 104.422 107.928 104.337C108.459 104.301 108.967 104.266 109.343 104.092C110.774 103.438 110.25 101.424 108.459 101.708C108.347 101.708 108.326 101.786 108.297 101.9L108.287 101.937C108.207 102.257 107.894 102.305 107.386 102.383C106.933 102.453 106.324 102.547 105.585 102.878C103.818 103.675 103.694 105.999 103.83 107.847C103.954 109.296 105.137 110.886 107.068 110.886C109.122 110.886 110.365 109.707 110.365 107.919C110.365 106.132 109.025 104.909 107.192 105.005ZM108.402 102.634C108.47 102.588 108.514 102.528 108.557 102.47C108.623 102.38 108.686 102.294 108.829 102.269C108.946 102.233 109.074 102.269 109.153 102.359C109.232 102.449 109.246 102.576 109.189 102.681C109.119 102.97 108.81 103.04 108.493 103.037C108.175 103.034 107.924 102.927 107.909 102.863C107.894 102.802 107.992 102.775 108.113 102.743C108.209 102.718 108.32 102.688 108.399 102.634H108.402ZM106.235 107.924C106.235 108.567 106.359 109.531 107.069 109.532C107.068 109.532 107.068 109.532 107.067 109.532H107.07C107.07 109.532 107.069 109.532 107.069 109.532C107.815 109.531 107.912 108.602 107.915 107.924C107.915 107.197 107.794 106.302 107.07 106.302C106.347 106.302 106.235 107.22 106.235 107.924Z" fill="white"/>
<path fill-rule="evenodd" clip-rule="evenodd" d="M118.007 110.884C118.729 110.884 119.426 110.412 119.558 110.025C119.598 109.924 119.541 109.894 119.444 109.842C119.229 109.729 118.816 109.511 118.808 108.19C118.808 107.358 118.899 104.609 118.899 104.609C118.896 104.58 118.875 104.555 118.845 104.547H116.262C116.227 104.556 116.201 104.586 116.2 104.62V105.456C115.848 104.76 115.1 104.315 114.276 104.31C112.584 104.31 111.68 105.963 111.68 107.578C111.68 109.193 112.584 110.869 114.21 110.869C115.114 110.869 115.814 110.292 116.25 109.509C116.376 110.319 117.132 110.91 118.007 110.884ZM115.308 105.94C115.942 105.94 116.278 106.676 116.278 107.579C116.278 108.484 115.942 109.208 115.308 109.208C114.674 109.208 114.342 108.481 114.342 107.579C114.342 106.676 114.674 105.94 115.308 105.94Z" fill="white"/>
<path d="M122.953 113.515C121.269 113.515 120.491 112.316 120.354 111.836C120.169 111.236 120.284 111.119 120.413 111.146C120.693 111.194 121.025 112.109 122.316 112.109C123.118 112.113 123.778 111.434 123.806 110.577V109.344C123.334 110.406 122.549 110.774 121.937 110.774C121.095 110.774 120.354 109.974 120.354 108.739V107.062C120.354 105.101 119.475 105.521 119.579 105.185C119.706 104.793 120.331 104.31 120.983 104.31C121.444 104.302 121.888 104.5 122.207 104.856C122.527 105.212 122.693 105.694 122.666 106.187V108.331C122.666 109.566 123.75 109.134 123.789 107.692V104.616C123.789 104.556 123.834 104.556 123.834 104.556H126.062C126.076 104.556 126.089 104.563 126.098 104.575C126.107 104.586 126.111 104.601 126.11 104.616C126.11 104.616 126.144 108.214 126.144 109.848C126.208 111.983 125.088 113.515 122.953 113.515Z" fill="white"/>
<path d="M136.667 110.582C136.667 110.646 136.618 110.646 136.618 110.646H134.18C134.18 110.646 134.132 110.646 134.132 110.582C134.132 110.582 134.132 109.462 134.132 108.177L134.26 106.819L132.666 110.533C132.642 110.606 132.617 110.634 132.504 110.634H132.2C132.133 110.639 132.071 110.597 132.05 110.533L130.783 107.311C130.787 107.753 130.765 108.194 130.719 108.633C130.509 110.258 129.78 110.885 128.778 110.885C127.961 110.885 127.461 110.294 127.461 110.028C127.461 109.762 127.888 109.927 128.351 107.886C128.638 106.663 128.513 104.374 128.513 104.374C128.513 104.31 128.564 104.31 128.564 104.31H131.182C131.219 104.31 131.243 104.362 131.243 104.362L132.37 106.715H132.41L133.629 104.35C133.639 104.324 133.665 104.308 133.693 104.31H136.499C136.499 104.31 136.539 104.31 136.539 104.362C136.554 104.655 136.667 110.582 136.667 110.582Z" fill="white"/>
</svg>
