<svg width="222" height="382" viewBox="0 0 222 382" fill="none" xmlns="http://www.w3.org/2000/svg">
<path fill-rule="evenodd" clip-rule="evenodd" d="M202.153 1.00903C200.314 0.928713 198.758 2.35457 198.678 4.19375C198.598 6.03293 200.023 7.58897 201.863 7.66929C203.702 7.74957 205.258 6.32371 205.338 4.48456C205.418 2.64536 203.993 1.08931 202.153 1.00903ZM197.224 37.495C197.304 35.6558 198.86 34.23 200.699 34.3103C202.539 34.3906 203.964 35.9466 203.884 37.7858C203.804 39.625 202.248 41.0509 200.409 40.9706C198.569 40.8903 197.144 39.3342 197.224 37.495ZM199.245 67.6116C197.406 67.5313 195.85 68.9571 195.77 70.7963C195.69 72.6355 197.115 74.1915 198.955 74.2718C200.794 74.3521 202.35 72.9263 202.43 71.0871C202.51 69.2479 201.085 67.6919 199.245 67.6116ZM194.316 104.098C194.396 102.259 195.952 100.833 197.791 100.914C199.631 100.994 201.056 102.55 200.976 104.389C200.896 106.228 199.34 107.654 197.501 107.574C195.661 107.494 194.235 105.938 194.316 104.098ZM196.337 134.215C194.498 134.135 192.942 135.56 192.862 137.4C192.781 139.239 194.207 140.795 196.046 140.875C197.886 140.956 199.442 139.53 199.522 137.69C199.602 135.851 198.176 134.295 196.337 134.215ZM191.408 170.701C191.488 168.862 193.044 167.436 194.883 167.516C196.722 167.597 198.148 169.153 198.068 170.992C197.988 172.831 196.432 174.257 194.592 174.177C192.753 174.096 191.327 172.54 191.408 170.701ZM193.429 200.818C191.59 200.738 190.034 202.164 189.954 204.003C189.873 205.842 191.299 207.398 193.138 207.479C194.978 207.559 196.534 206.133 196.614 204.294C196.694 202.455 195.268 200.899 193.429 200.818ZM188.5 237.303C188.581 235.464 190.137 234.038 191.976 234.119C193.815 234.199 195.241 235.755 195.161 237.594C195.08 239.433 193.524 240.859 191.685 240.779C189.846 240.699 188.42 239.143 188.5 237.303ZM190.522 267.421C188.683 267.341 187.127 268.766 187.046 270.606C186.966 272.445 188.392 274.001 190.231 274.081C192.07 274.161 193.626 272.736 193.707 270.896C193.787 269.057 192.361 267.501 190.522 267.421ZM185.592 303.907C185.673 302.068 187.229 300.642 189.068 300.722C190.907 300.802 192.333 302.358 192.253 304.198C192.172 306.037 190.616 307.463 188.777 307.382C186.938 307.302 185.512 305.746 185.592 303.907ZM187.614 334.023C185.775 333.943 184.219 335.369 184.138 337.208C184.058 339.047 185.484 340.603 187.323 340.684C189.162 340.764 190.718 339.338 190.799 337.499C190.879 335.66 189.453 334.104 187.614 334.023ZM186.16 367.325C184.321 367.244 182.764 368.67 182.684 370.509C182.604 372.349 184.03 373.905 185.869 373.985C187.708 374.065 189.264 372.639 189.344 370.8C189.425 368.961 187.999 367.405 186.16 367.325ZM149.284 371.77C149.364 369.931 150.92 368.505 152.759 368.585C154.599 368.665 156.025 370.221 155.944 372.061C155.864 373.9 154.308 375.326 152.469 375.245C150.629 375.165 149.204 373.609 149.284 371.77ZM154.214 335.284C152.374 335.203 150.818 336.629 150.738 338.468C150.658 340.308 152.084 341.864 153.923 341.944C155.762 342.024 157.318 340.598 157.398 338.759C157.479 336.92 156.053 335.364 154.214 335.284ZM152.192 305.167C152.272 303.328 153.828 301.902 155.668 301.982C157.507 302.063 158.933 303.619 158.852 305.458C158.772 307.297 157.216 308.723 155.377 308.643C153.538 308.562 152.112 307.006 152.192 305.167ZM157.122 268.681C155.282 268.601 153.726 270.027 153.646 271.866C153.566 273.705 154.992 275.261 156.831 275.341C158.67 275.422 160.226 273.996 160.306 272.157C160.387 270.318 158.961 268.761 157.122 268.681ZM155.1 238.565C155.18 236.725 156.737 235.3 158.576 235.38C160.415 235.46 161.841 237.016 161.76 238.855C161.68 240.695 160.124 242.12 158.285 242.04C156.446 241.96 155.02 240.404 155.1 238.565ZM160.029 202.078C158.19 201.998 156.634 203.423 156.553 205.263C156.473 207.102 157.899 208.658 159.738 208.738C161.577 208.818 163.133 207.393 163.214 205.553C163.294 203.714 161.868 202.158 160.029 202.078ZM158.007 171.961C158.088 170.122 159.644 168.696 161.483 168.777C163.322 168.857 164.748 170.413 164.668 172.252C164.587 174.091 163.031 175.517 161.192 175.437C159.353 175.357 157.927 173.8 158.007 171.961ZM162.937 135.474C161.098 135.394 159.542 136.82 159.461 138.659C159.381 140.498 160.807 142.054 162.646 142.135C164.485 142.215 166.041 140.789 166.122 138.95C166.202 137.111 164.776 135.555 162.937 135.474ZM160.916 105.36C160.996 103.52 162.552 102.095 164.391 102.175C166.23 102.255 167.656 103.811 167.576 105.65C167.496 107.49 165.939 108.915 164.1 108.835C162.261 108.755 160.835 107.199 160.916 105.36ZM165.845 68.8736C164.006 68.7932 162.45 70.2191 162.37 72.0583C162.289 73.8975 163.715 75.4535 165.554 75.5338C167.394 75.6141 168.95 74.1883 169.03 72.3491C169.11 70.5099 167.684 68.9538 165.845 68.8736ZM163.824 38.7562C163.904 36.917 165.46 35.4911 167.299 35.5715C169.138 35.6517 170.564 37.2078 170.484 39.047C170.404 40.8861 168.848 42.312 167.008 42.2317C165.169 42.1514 163.743 40.5954 163.824 38.7562ZM168.753 2.27016C166.914 2.18988 165.358 3.61574 165.278 5.45489C165.197 7.29409 166.623 8.85014 168.462 8.93042C170.302 9.01074 171.858 7.58488 171.938 5.7457C172.018 3.90652 170.592 2.35048 168.753 2.27016ZM115.983 373.224C116.063 371.385 117.619 369.959 119.458 370.039C121.297 370.119 122.723 371.675 122.643 373.515C122.563 375.354 121.006 376.78 119.167 376.699C117.328 376.619 115.902 375.063 115.983 373.224ZM120.912 336.738C119.073 336.657 117.517 338.083 117.437 339.922C117.356 341.762 118.782 343.318 120.621 343.398C122.461 343.478 124.017 342.052 124.097 340.213C124.177 338.374 122.751 336.818 120.912 336.738ZM118.891 306.621C118.971 304.782 120.527 303.356 122.366 303.436C124.205 303.517 125.631 305.073 125.551 306.912C125.471 308.751 123.915 310.177 122.075 310.097C120.236 310.016 118.81 308.46 118.891 306.621ZM123.82 270.135C121.981 270.055 120.425 271.481 120.345 273.32C120.264 275.159 121.69 276.715 123.529 276.795C125.369 276.876 126.925 275.45 127.005 273.611C127.085 271.772 125.659 270.215 123.82 270.135ZM121.799 240.019C121.879 238.179 123.435 236.754 125.274 236.834C127.113 236.914 128.539 238.47 128.459 240.309C128.379 242.149 126.823 243.574 124.984 243.494C123.144 243.414 121.718 241.858 121.799 240.019ZM126.728 203.532C124.888 203.452 123.332 204.877 123.252 206.717C123.172 208.556 124.598 210.112 126.437 210.192C128.276 210.272 129.832 208.847 129.912 207.007C129.993 205.168 128.567 203.612 126.728 203.532ZM124.706 173.415C124.786 171.576 126.342 170.15 128.182 170.231C130.021 170.311 131.447 171.867 131.366 173.706C131.286 175.545 129.73 176.971 127.891 176.891C126.052 176.811 124.626 175.254 124.706 173.415ZM129.636 136.928C127.796 136.848 126.24 138.274 126.16 140.113C126.08 141.952 127.506 143.508 129.345 143.589C131.184 143.669 132.74 142.243 132.82 140.404C132.901 138.565 131.475 137.009 129.636 136.928ZM127.614 106.814C127.694 104.974 129.251 103.549 131.09 103.629C132.929 103.709 134.355 105.265 134.274 107.104C134.194 108.944 132.638 110.369 130.799 110.289C128.96 110.209 127.534 108.653 127.614 106.814ZM132.544 70.3275C130.705 70.2472 129.149 71.6731 129.068 73.5122C128.988 75.3514 130.414 76.9075 132.253 76.9878C134.092 77.0681 135.648 75.6422 135.729 73.8031C135.809 71.9639 134.383 70.4078 132.544 70.3275ZM130.522 40.2102C130.603 38.371 132.159 36.9451 133.998 37.0254C135.837 37.1057 137.263 38.6618 137.183 40.501C137.102 42.3401 135.546 43.766 133.707 43.6857C131.868 43.6054 130.442 42.0493 130.522 40.2102ZM135.452 3.72413C133.613 3.64385 132.057 5.06971 131.976 6.90886C131.896 8.74806 133.322 10.3041 135.161 10.3844C137 10.4647 138.556 9.03885 138.637 7.19967C138.717 5.36049 137.291 3.80445 135.452 3.72413ZM82.6811 374.678C82.7615 372.839 84.3175 371.413 86.1567 371.493C87.9959 371.573 89.4217 373.129 89.3414 374.968C89.2611 376.808 87.7051 378.234 85.8659 378.153C84.0267 378.073 82.6009 376.517 82.6811 374.678ZM87.6107 338.192C85.7716 338.111 84.2155 339.537 84.1352 341.376C84.0549 343.216 85.4808 344.772 87.32 344.852C89.1591 344.932 90.7152 343.506 90.7955 341.667C90.8758 339.828 89.4499 338.272 87.6107 338.192ZM85.5893 308.075C85.6696 306.236 87.2256 304.81 89.0648 304.89C90.904 304.971 92.3299 306.527 92.2495 308.366C92.1692 310.205 90.6132 311.631 88.774 311.551C86.9348 311.47 85.509 309.914 85.5893 308.075ZM90.5189 271.589C88.6797 271.509 87.1236 272.935 87.0433 274.774C86.963 276.613 88.3889 278.169 90.2281 278.249C92.0673 278.33 93.6233 276.904 93.7036 275.065C93.7839 273.225 92.358 271.669 90.5189 271.589ZM88.4974 241.473C88.5777 239.633 90.1337 238.208 91.9729 238.288C93.8121 238.368 95.238 239.924 95.1577 241.763C95.0774 243.603 93.5213 245.028 91.6821 244.948C89.8429 244.868 88.4171 243.312 88.4974 241.473ZM93.4261 204.986C91.5869 204.905 90.0309 206.331 89.9506 208.171C89.8703 210.01 91.2961 211.566 93.1353 211.646C94.9745 211.726 96.5306 210.301 96.6109 208.461C96.6912 206.622 95.2653 205.066 93.4261 204.986ZM91.4046 174.869C91.4849 173.03 93.041 171.604 94.8802 171.684C96.7194 171.765 98.1452 173.321 98.0649 175.16C97.9846 176.999 96.4286 178.425 94.5894 178.345C92.7502 178.264 91.3243 176.708 91.4046 174.869ZM96.3342 138.382C94.495 138.302 92.939 139.728 92.8587 141.567C92.7784 143.406 94.2042 144.962 96.0434 145.043C97.8826 145.123 99.4386 143.697 99.5189 141.858C99.5992 140.019 98.1734 138.463 96.3342 138.382ZM94.3128 108.267C94.3931 106.428 95.9491 105.002 97.7883 105.083C99.6275 105.163 101.053 106.719 100.973 108.558C100.893 110.397 99.3367 111.823 97.4975 111.743C95.6583 111.663 94.2325 110.107 94.3128 108.267ZM99.2424 71.7815C97.4032 71.7012 95.8472 73.127 95.7669 74.9662C95.6866 76.8054 97.1124 78.3614 98.9516 78.4417C100.791 78.522 102.347 77.0962 102.427 75.257C102.507 73.4178 101.082 71.8618 99.2424 71.7815ZM97.2209 41.6641C97.3012 39.8249 98.8572 38.3991 100.696 38.4794C102.536 38.5597 103.961 40.1157 103.881 41.9549C103.801 43.7941 102.245 45.2199 100.406 45.1397C98.5664 45.0593 97.1406 43.5033 97.2209 41.6641ZM102.15 5.1781C100.311 5.09782 98.7552 6.52368 98.6749 8.36282C98.5946 10.202 100.02 11.7581 101.86 11.8384C103.699 11.9187 105.255 10.4928 105.335 8.65364C105.416 6.81446 103.99 5.25842 102.15 5.1781ZM49.3798 376.132C49.4601 374.292 51.0161 372.867 52.8553 372.947C54.6945 373.027 56.1204 374.583 56.04 376.422C55.9597 378.262 54.4037 379.688 52.5645 379.607C50.7253 379.527 49.2995 377.971 49.3798 376.132ZM54.3094 339.646C52.4702 339.565 50.9141 340.991 50.8338 342.83C50.7535 344.67 52.1794 346.226 54.0186 346.306C55.8578 346.386 57.4138 344.96 57.4941 343.121C57.5744 341.282 56.1485 339.726 54.3094 339.646ZM52.2879 309.529C52.3682 307.69 53.9242 306.264 55.7634 306.344C57.6026 306.425 59.0285 307.981 58.9482 309.82C58.8679 311.659 57.3118 313.085 55.4726 313.005C53.6334 312.924 52.2076 311.368 52.2879 309.529ZM57.2175 273.043C55.3783 272.963 53.8222 274.389 53.7419 276.228C53.6616 278.067 55.0875 279.623 56.9267 279.703C58.7659 279.784 60.3219 278.358 60.4022 276.519C60.4825 274.679 59.0566 273.123 57.2175 273.043ZM55.196 242.927C55.2763 241.087 56.8323 239.662 58.6715 239.742C60.5107 239.822 61.9366 241.378 61.8563 243.217C61.776 245.057 60.2199 246.482 58.3807 246.402C56.5416 246.322 55.1157 244.766 55.196 242.927ZM60.1247 206.44C58.2856 206.359 56.7295 207.785 56.6492 209.624C56.5689 211.464 57.9948 213.02 59.834 213.1C61.6731 213.18 63.2292 211.754 63.3095 209.915C63.3898 208.076 61.9639 206.52 60.1247 206.44ZM58.1033 176.323C58.1836 174.484 59.7396 173.058 61.5788 173.138C63.418 173.219 64.8438 174.775 64.7635 176.614C64.6832 178.453 63.1272 179.879 61.288 179.799C59.4488 179.718 58.023 178.162 58.1033 176.323ZM63.0328 139.836C61.1936 139.756 59.6376 141.182 59.5573 143.021C59.477 144.86 60.9028 146.416 62.742 146.497C64.5812 146.577 66.1373 145.151 66.2176 143.312C66.2979 141.473 64.872 139.917 63.0328 139.836ZM61.0114 109.721C61.0917 107.882 62.6478 106.456 64.4869 106.537C66.3261 106.617 67.752 108.173 67.6717 110.012C67.5914 111.851 66.0353 113.277 64.1962 113.197C62.357 113.117 60.9311 111.561 61.0114 109.721ZM65.941 73.2355C64.1018 73.1551 62.5458 74.581 62.4655 76.4202C62.3852 78.2594 63.811 79.8154 65.6502 79.8957C67.4894 79.976 69.0454 78.5502 69.1257 76.711C69.206 74.8718 67.7802 73.3157 65.941 73.2355ZM63.9195 43.1181C63.9998 41.2789 65.5558 39.8531 67.395 39.9334C69.2342 40.0137 70.6601 41.5697 70.5798 43.4089C70.4995 45.2481 68.9434 46.6739 67.1042 46.5936C65.265 46.5133 63.8392 44.9573 63.9195 43.1181ZM68.8491 6.63207C67.0099 6.55179 65.4538 7.97765 65.3735 9.8168C65.2932 11.656 66.7191 13.212 68.5583 13.2923C70.3975 13.3726 71.9535 11.9468 72.0338 10.1076C72.1141 8.26843 70.6883 6.71239 68.8491 6.63207ZM16.0784 377.586C16.1587 375.746 17.7147 374.321 19.5539 374.401C21.3931 374.481 22.819 376.037 22.7387 377.876C22.6584 379.716 21.1023 381.141 19.2631 381.061C17.4239 380.981 15.9981 379.425 16.0784 377.586ZM21.008 341.1C19.1688 341.019 17.6128 342.445 17.5324 344.284C17.4521 346.124 18.878 347.68 20.7172 347.76C22.5564 347.84 24.1124 346.414 24.1927 344.575C24.273 342.736 22.8472 341.18 21.008 341.1ZM18.9865 310.983C19.0668 309.144 20.6228 307.718 22.462 307.798C24.3012 307.879 25.7271 309.435 25.6468 311.274C25.5665 313.113 24.0104 314.539 22.1713 314.459C20.3321 314.378 18.9062 312.822 18.9865 310.983ZM23.9153 274.497C22.0761 274.417 20.5201 275.843 20.4397 277.682C20.3594 279.521 21.7853 281.077 23.6245 281.157C25.4637 281.238 27.0197 279.812 27.1 277.973C27.1803 276.133 25.7545 274.577 23.9153 274.497ZM21.8938 244.381C21.9741 242.541 23.5302 241.116 25.3693 241.196C27.2085 241.276 28.6344 242.832 28.5541 244.671C28.4738 246.511 26.9177 247.936 25.0786 247.856C23.2394 247.776 21.8135 246.22 21.8938 244.381ZM26.8234 207.894C24.9842 207.813 23.4281 209.239 23.3478 211.078C23.2675 212.918 24.6934 214.474 26.5326 214.554C28.3718 214.634 29.9278 213.208 30.0081 211.369C30.0884 209.53 28.6625 207.974 26.8234 207.894ZM24.8011 177.777C24.8814 175.938 26.4374 174.512 28.2766 174.592C30.1158 174.673 31.5416 176.229 31.4613 178.068C31.381 179.907 29.825 181.333 27.9858 181.253C26.1466 181.172 24.7208 179.616 24.8011 177.777ZM29.7306 141.29C27.8914 141.21 26.3354 142.636 26.2551 144.475C26.1748 146.314 27.6006 147.87 29.4398 147.951C31.279 148.031 32.8351 146.605 32.9154 144.766C32.9957 142.927 31.5698 141.371 29.7306 141.29ZM27.7108 111.175C27.7911 109.336 29.3472 107.91 31.1864 107.991C33.0255 108.071 34.4514 109.627 34.3711 111.466C34.2908 113.305 32.7348 114.731 30.8956 114.651C29.0564 114.571 27.6305 113.015 27.7108 111.175ZM32.6396 74.6894C30.8004 74.6091 29.2444 76.035 29.1641 77.8742C29.0838 79.7133 30.5096 81.2694 32.3488 81.3497C34.188 81.43 35.7441 80.0041 35.8244 78.165C35.9047 76.3258 34.4788 74.7697 32.6396 74.6894ZM30.6181 44.5721C30.6984 42.7329 32.2545 41.307 34.0936 41.3873C35.9328 41.4676 37.3587 43.0237 37.2784 44.8629C37.1981 46.702 35.642 48.1279 33.8029 48.0476C31.9637 47.9673 30.5378 46.4112 30.6181 44.5721ZM35.5477 8.08604C33.7085 8.00576 32.1525 9.43162 32.0722 11.2708C31.9919 13.11 33.4177 14.666 35.2569 14.7463C37.0961 14.8266 38.6521 13.4008 38.7324 11.5616C38.8127 9.7224 37.3869 8.16636 35.5477 8.08604Z" fill="#E9EBF2" fill-opacity="0.3"/>
</svg>
