<svg width="172" height="172" viewBox="0 0 172 172" fill="none" xmlns="http://www.w3.org/2000/svg">
<path fill-rule="evenodd" clip-rule="evenodd" d="M114.894 156.99L103.458 156.79L117.215 24.0101L128.651 24.2097L114.894 156.99Z" fill="#AF78FF"/>
<path d="M22 88.4752L86.5993 41.4414L125 94.4076L60.4007 141.441L22 88.4752Z" fill="#2B2B7C"/>
<path d="M36 54.9995L40.3104 43.4414L50 46.8833L45.6896 58.4414L36 54.9995Z" fill="#FF4F61"/>
<path d="M151.681 64.4414L159 66.5848L157.319 73.4414L150 71.298L151.681 64.4414Z" fill="#FF4F61"/>
<path d="M75 98.5681L115.106 69.4414L139 102.315L98.8938 131.441L75 98.5681Z" fill="#373783"/>
<circle cx="36" cy="136" r="36" fill="#FF4F61"/>
<path d="M22.5 136.5L34 145L50 125" stroke="white" stroke-width="6"/>
</svg>
