<svg width="33" height="33" viewBox="0 0 33 33" fill="none" xmlns="http://www.w3.org/2000/svg">
<g opacity="0.5">
<g clip-path="url(#clip0)">
<path d="M27.3024 4.49479L26.8154 4.69271C26.8154 4.69271 9.51706 11.7654 4.15137 14.0234L3.33626 14.3672V17.3724L9.93001 20.0078L12.2399 26.9948L14.3363 27.0078L17.9404 23.9609L22.4743 28.3281H25.7451L29.9535 5.5L27.3024 4.49479ZM26.8623 7.55729L23.529 25.6406L18.0602 20.3724L14.2998 23.5469L15.3337 19.5L23.7087 11L23.443 10.7318C23.443 10.7318 14.9426 15.632 11.3363 17.6979L6.71647 15.8516C12.7697 13.3274 25.5976 8.0745 26.8623 7.55729Z" fill="#1A1A76"/>
<path d="M25.7451 28.3281H22.4743L25.1253 30.9583L25.7451 28.3281Z" fill="#1A1A76"/>
<path d="M27.3024 4.49479L29.9535 5.5L30.417 3.25L27.3024 4.49479Z" fill="#1A1A76"/>
<path d="M3.33626 17.3724V14.3672L0.166992 15.8516L3.33626 17.3724Z" fill="#1A1A76"/>
<path d="M14.3363 27.0078L12.2399 26.9948L12.7337 28.4667L14.3363 27.0078Z" fill="#1A1A76"/>
</g>
</g>
<defs>
<clipPath id="clip0">
<path d="M0.666992 0.333313H32.667V32.3333H0.666992V0.333313Z" fill="white"/>
</clipPath>
</defs>
</svg>
