<svg width="24" height="24" viewBox="0 0 24 24" fill="none" xmlns="http://www.w3.org/2000/svg">
<g clip-path="url(#clip0)">
<path d="M19.9766 3.12109L19.6113 3.26953C19.6113 3.26953 6.63755 8.57405 2.61328 10.2676L2.00195 10.5254V12.7793L6.94727 14.7559L8.67969 19.9961L10.252 20.0059L12.9551 17.7207L16.3555 20.9961H18.8086L21.9648 3.875L19.9766 3.12109ZM19.6465 5.41797L17.1465 18.9805L13.0449 15.0293L10.2246 17.4102L11 14.375L17.2812 8L17.082 7.79883C17.082 7.79883 10.7067 11.474 8.00195 13.0234L4.53711 11.6387C9.07704 9.74558 18.6979 5.80588 19.6465 5.41797Z" fill="#14146D"/>
<path d="M18.8086 20.9961H16.3555L18.3438 22.9688L18.8086 20.9961Z" fill="#14146D"/>
<path d="M19.9766 3.12109L21.9648 3.875L22.3125 2.1875L19.9766 3.12109Z" fill="#14146D"/>
<path d="M2.00195 12.7793V10.5254L-0.375 11.6387L2.00195 12.7793Z" fill="#14146D"/>
<path d="M10.252 20.0059L8.67969 19.9961L9.05 21.1L10.252 20.0059Z" fill="#14146D"/>
</g>
<defs>
<clipPath id="clip0">
<path d="M0 0H24V24H0V0Z" fill="white"/>
</clipPath>
</defs>
</svg>
