<svg width="33" height="33" viewBox="0 0 33 33" fill="none" xmlns="http://www.w3.org/2000/svg">
<g opacity="0.5">
<rect x="2.99935" y="3.33333" width="26.6667" height="26.6667" rx="8" stroke="#1A1A76" stroke-width="2.66667"/>
<path d="M15.7794 11.6693C14.8003 11.6589 13.967 11.6693 13.4982 11.8985C13.1857 12.0495 12.9461 12.3933 13.0919 12.4089C13.2742 12.4349 13.6857 12.5235 13.9044 12.8203C14.1857 13.2006 14.1753 14.0599 14.1753 14.0599C14.1753 14.0599 14.3315 16.4245 13.7951 16.7214C13.4253 16.9245 12.9201 16.5131 11.8263 14.6328C11.269 13.6641 10.8472 12.5964 10.8472 12.5964C10.8472 12.5964 10.769 12.3985 10.6232 12.2943C10.4461 12.1641 10.2013 12.1224 10.2013 12.1224L7.59195 12.1381C7.59195 12.1381 7.20132 12.1537 7.0607 12.3203C6.93049 12.4766 7.05028 12.7839 7.05028 12.7839C7.05028 12.7839 9.09195 17.5599 11.4044 19.9662C13.5242 22.1745 15.9305 22.0287 15.9305 22.0287H17.0242C17.0242 22.0287 17.3524 21.9922 17.519 21.8151C17.6753 21.6485 17.6701 21.336 17.6701 21.336C17.6701 21.336 17.6492 19.8724 18.3263 19.6537C18.9982 19.4453 19.8524 21.0703 20.7638 21.6953C21.4565 22.1693 21.9826 22.0651 21.9826 22.0651L24.4201 22.0287C24.4201 22.0287 25.6909 21.9506 25.0867 20.9453C25.0399 20.8672 24.7378 20.2058 23.2794 18.8516C21.7482 17.4349 21.9513 17.6641 23.7951 15.211C24.9149 13.7162 25.3628 12.8047 25.2222 12.4089C25.0867 12.0391 24.2638 12.1381 24.2638 12.1381L21.519 12.1537C21.519 12.1537 21.3159 12.1276 21.1649 12.2162C21.019 12.3047 20.9253 12.5131 20.9253 12.5131C20.9253 12.5131 20.4878 13.6693 19.9097 14.6537C18.6909 16.7266 18.1961 16.8412 17.9982 16.711C17.5347 16.4089 17.6492 15.5026 17.6492 14.862C17.6492 12.8464 17.9565 12.0131 17.0555 11.7943C16.7586 11.7214 16.5399 11.6745 15.7794 11.6693Z" fill="#1A1A76"/>
</g>
</svg>
