<svg width="24" height="24" viewBox="0 0 24 24" fill="none" xmlns="http://www.w3.org/2000/svg">
<rect x="2" y="2" width="20" height="20" rx="6" stroke="#14146D" stroke-width="2"/>
<path d="M11.5846 8.25196C10.8502 8.24415 10.2252 8.25196 9.87365 8.42384C9.63928 8.53712 9.45959 8.79493 9.56896 8.80665C9.70568 8.82618 10.0143 8.89259 10.1783 9.11524C10.3893 9.4004 10.3815 10.0449 10.3815 10.0449C10.3815 10.0449 10.4986 11.8184 10.0963 12.041C9.81896 12.1934 9.44006 11.8848 8.61974 10.4746C8.20178 9.74806 7.88537 8.94727 7.88537 8.94727C7.88537 8.94727 7.82678 8.79884 7.7174 8.72071C7.58459 8.62306 7.40099 8.59181 7.40099 8.59181L5.44396 8.60352C5.44396 8.60352 5.15099 8.61524 5.04553 8.74024C4.94787 8.85743 5.03771 9.0879 5.03771 9.0879C5.03771 9.0879 6.56896 12.6699 8.30334 14.4746C9.89318 16.1309 11.6979 16.0215 11.6979 16.0215H12.5182C12.5182 16.0215 12.7643 15.9941 12.8893 15.8613C13.0065 15.7363 13.0026 15.502 13.0026 15.502C13.0026 15.502 12.9869 14.4043 13.4947 14.2402C13.9987 14.084 14.6393 15.3027 15.3229 15.7715C15.8424 16.127 16.2369 16.0488 16.2369 16.0488L18.0651 16.0215C18.0651 16.0215 19.0182 15.9629 18.5651 15.209C18.5299 15.1504 18.3033 14.6543 17.2096 13.6387C16.0611 12.5762 16.2135 12.7481 17.5963 10.9082C18.4361 9.78712 18.7721 9.10352 18.6666 8.80665C18.5651 8.52931 17.9479 8.60352 17.9479 8.60352L15.8893 8.61524C15.8893 8.61524 15.7369 8.59571 15.6236 8.66212C15.5143 8.72852 15.444 8.88477 15.444 8.88477C15.444 8.88477 15.1158 9.75196 14.6822 10.4902C13.7682 12.0449 13.3971 12.1309 13.2486 12.0332C12.901 11.8066 12.9869 11.127 12.9869 10.6465C12.9869 9.13477 13.2174 8.50977 12.5416 8.34571C12.319 8.29102 12.1549 8.25587 11.5846 8.25196Z" fill="#14146D"/>
</svg>
