<svg width="33" height="33" viewBox="0 0 33 33" fill="none" xmlns="http://www.w3.org/2000/svg">
<g opacity="0.5">
<path d="M16.349 3C9.00762 3 3.03131 8.97117 3.02865 16.3125C3.02731 18.6592 3.64196 20.9501 4.80729 22.9688L3 29.6667L9.97656 28.0182C11.9219 29.0796 14.1118 29.6367 16.3411 29.638H16.3464C23.6864 29.638 29.6601 23.6655 29.6641 16.3255C29.6667 12.7669 28.2829 9.42098 25.7682 6.90365C23.2536 4.38765 19.9116 3.00133 16.349 3ZM16.3464 5.66667C19.1944 5.668 21.8708 6.7784 23.8828 8.78906C25.8948 10.8024 27.0001 13.4776 26.9974 16.3229C26.9947 22.1949 22.2184 26.9714 16.3437 26.9714C14.5664 26.97 12.8059 26.5238 11.2552 25.6771L10.3568 25.1875L9.36458 25.4219L6.73958 26.0417L7.38021 23.6615L7.66927 22.5938L7.11719 21.6354C6.18652 20.0247 5.69398 18.1832 5.69531 16.3125C5.69798 10.4432 10.4757 5.66667 16.3464 5.66667ZM11.6354 10.1667C11.4128 10.1667 11.0527 10.25 10.7474 10.5833C10.4421 10.9153 9.58073 11.7194 9.58073 13.3568C9.58073 14.9941 10.7734 16.5768 10.9401 16.7995C11.1054 17.0208 13.2423 20.487 16.625 21.8203C19.4357 22.9283 20.0065 22.7096 20.6172 22.6536C21.2279 22.599 22.5872 21.8503 22.8646 21.0729C23.1419 20.2956 23.1426 19.6269 23.0599 19.4896C22.9772 19.3509 22.7552 19.2682 22.4219 19.1016C22.0899 18.9349 20.4538 18.1315 20.1484 18.0208C19.8431 17.9102 19.6198 17.8542 19.3984 18.1875C19.1771 18.5208 18.541 19.2682 18.3464 19.4896C18.1517 19.7123 17.9583 19.7422 17.625 19.5755C17.2917 19.4075 16.2199 19.0552 14.9479 17.9219C13.9586 17.0405 13.291 15.9531 13.0964 15.6198C12.903 15.2878 13.0781 15.1054 13.2448 14.9401C13.3941 14.7908 13.5755 14.5514 13.7422 14.3568C13.9075 14.1621 13.9649 14.0234 14.0755 13.8021C14.1862 13.5807 14.1295 13.3854 14.0469 13.2188C13.9642 13.0521 13.3168 11.4087 13.0208 10.75C12.7715 10.1967 12.5082 10.1838 12.2708 10.1745C12.0775 10.1665 11.8568 10.1667 11.6354 10.1667Z" fill="#1A1A76"/>
</g>
</svg>
