<svg width="138" height="288" viewBox="0 0 138 288" fill="none" xmlns="http://www.w3.org/2000/svg">
    <path fill-rule="evenodd" clip-rule="evenodd" d="M135.077.063a2.499 2.499 0 1 0-.129 4.998 2.5 2.5 0 0 0 .129-4.998zm-3.211 27.426a2.5 2.5 0 1 1 4.999.13 2.5 2.5 0 0 1-4.999-.13zm1.916 22.557a2.5 2.5 0 1 0-.129 5 2.5 2.5 0 0 0 .129-5zm-3.211 27.426a2.5 2.5 0 1 1 5 .13 2.5 2.5 0 0 1-5-.13zm1.916 22.557a2.5 2.5 0 1 0-.129 5 2.5 2.5 0 0 0 .129-5zm-3.211 27.426a2.5 2.5 0 1 1 4.998.13 2.5 2.5 0 0 1-4.998-.13zm1.916 22.558a2.5 2.5 0 1 0-.13 4.998 2.5 2.5 0 0 0 .13-4.998zm-3.211 27.425a2.502 2.502 0 0 1 4.999.129 2.502 2.502 0 0 1-4.999-.129zm1.917 22.557a2.5 2.5 0 1 0-.128 5 2.5 2.5 0 0 0 .128-5zm-3.212 27.426a2.5 2.5 0 1 1 4.998.13 2.5 2.5 0 0 1-4.998-.13zm1.917 22.557a2.5 2.5 0 1 0-.13 4.998 2.5 2.5 0 0 0 .13-4.998zm-.648 24.991a2.502 2.502 0 0 0-.129 4.999 2.5 2.5 0 0 0 .129-4.999zm-27.593 3.824a2.5 2.5 0 1 1 4.998.13 2.5 2.5 0 0 1-4.998-.13zm3.211-27.426a2.5 2.5 0 1 0-.128 5 2.5 2.5 0 0 0 .128-5zm-1.916-22.557a2.5 2.5 0 1 1 4.998.13 2.5 2.5 0 0 1-4.998-.13zm3.211-27.425a2.5 2.5 0 1 0-.13 4.998 2.5 2.5 0 0 0 .13-4.998zm-1.916-22.557a2.5 2.5 0 1 1 4.999.129 2.5 2.5 0 0 1-4.999-.129zm3.211-27.427a2.5 2.5 0 1 0-.128 5 2.5 2.5 0 0 0 .128-5zm-1.917-22.557a2.5 2.5 0 1 1 4.998.13 2.5 2.5 0 0 1-4.998-.13zm3.212-27.426a2.5 2.5 0 1 0-.13 4.998 2.5 2.5 0 0 0 .13-4.998zm-1.916-22.556a2.499 2.499 0 1 1 4.998.13 2.5 2.5 0 0 1-4.998-.13zm3.211-27.426a2.5 2.5 0 1 0-.129 5 2.5 2.5 0 0 0 .129-5zm-1.916-22.557a2.499 2.499 0 1 1 4.998.13 2.5 2.5 0 0 1-4.998-.13zm3.211-27.426a2.5 2.5 0 1 0-.129 5 2.5 2.5 0 0 0 .129-5zM75.409 280.326a2.5 2.5 0 1 1 4.998.13 2.5 2.5 0 0 1-4.998-.13zm3.212-27.426a2.501 2.501 0 1 0-.128 5 2.501 2.501 0 0 0 .128-5zm-1.917-22.556a2.5 2.5 0 1 1 4.998.128 2.5 2.5 0 0 1-4.998-.128zm3.212-27.426a2.5 2.5 0 1 0-.13 4.998 2.5 2.5 0 0 0 .13-4.998zm-1.917-22.557a2.501 2.501 0 0 1 4.999.129 2.5 2.5 0 0 1-4.999-.129zm3.211-27.427a2.501 2.501 0 0 0-.13 4.999 2.5 2.5 0 0 0 .13-4.999zm-1.916-22.557a2.5 2.5 0 1 1 4.997.13 2.5 2.5 0 0 1-4.997-.13zm3.211-27.426a2.5 2.5 0 1 0-.13 4.998 2.5 2.5 0 0 0 .13-4.998zm-1.916-22.556a2.5 2.5 0 1 1 4.998.13 2.5 2.5 0 0 1-4.998-.13zM83.8 52.97a2.5 2.5 0 1 0-.13 4.998 2.5 2.5 0 0 0 .13-4.998zm-1.916-22.558a2.5 2.5 0 1 1 4.998.13 2.5 2.5 0 0 1-4.998-.13zm3.211-27.426a2.5 2.5 0 1 0-.13 4.998 2.5 2.5 0 0 0 .13-4.998zM50.456 281.86a2.5 2.5 0 1 1 4.998.13 2.5 2.5 0 0 1-4.998-.13zm3.212-27.425a2.5 2.5 0 1 0-.13 4.997 2.5 2.5 0 0 0 .13-4.997zm-1.917-22.557a2.5 2.5 0 1 1 5 .13 2.5 2.5 0 0 1-5-.13zm3.212-27.426a2.5 2.5 0 1 0-.13 4.998 2.5 2.5 0 0 0 .13-4.998zm-1.916-22.557a2.5 2.5 0 1 1 4.997.13 2.5 2.5 0 0 1-4.997-.13zm3.21-27.426a2.5 2.5 0 1 0-.13 4.998 2.5 2.5 0 0 0 .13-4.998zm-1.916-22.557a2.5 2.5 0 1 1 4.998.128 2.5 2.5 0 0 1-4.998-.128zm3.211-27.427a2.5 2.5 0 1 0-.13 4.998 2.5 2.5 0 0 0 .13-4.998zm-1.916-22.555a2.5 2.5 0 1 1 4.998.129 2.5 2.5 0 0 1-4.998-.13zm3.211-27.426a2.5 2.5 0 1 0-.129 4.998 2.5 2.5 0 0 0 .13-4.998zm-1.916-22.558a2.5 2.5 0 1 1 4.998.13 2.5 2.5 0 0 1-4.998-.13zM60.142 4.52a2.5 2.5 0 1 0-.129 4.999 2.5 2.5 0 0 0 .13-4.999zM25.504 283.393a2.5 2.5 0 1 1 4.997.128 2.5 2.5 0 0 1-4.997-.128zm3.211-27.426a2.5 2.5 0 1 0-.13 4.998 2.5 2.5 0 0 0 .13-4.998zm-1.916-22.557a2.501 2.501 0 0 1 4.998.129 2.5 2.5 0 0 1-4.998-.129zm3.211-27.426a2.5 2.5 0 1 0-.13 4.997 2.5 2.5 0 0 0 .13-4.997zm-1.916-22.557a2.5 2.5 0 1 1 4.997.13 2.5 2.5 0 0 1-4.997-.13zm3.21-27.426a2.5 2.5 0 1 0-.13 4.997 2.5 2.5 0 0 0 .13-4.997zm-1.916-22.557a2.501 2.501 0 0 1 4.998.129 2.5 2.5 0 0 1-4.998-.129zm3.211-27.427a2.501 2.501 0 1 0-.127 5 2.501 2.501 0 0 0 .127-5zm-1.916-22.555a2.5 2.5 0 1 1 4.999.13 2.5 2.5 0 0 1-4.999-.13zm3.212-27.426a2.5 2.5 0 1 0-.13 4.998 2.5 2.5 0 0 0 .13-4.998zm-1.917-22.558a2.5 2.5 0 1 1 4.999.13 2.5 2.5 0 0 1-4.999-.13zM35.19 6.053a2.5 2.5 0 1 0-.13 4.998 2.5 2.5 0 0 0 .13-4.998zM.55 284.926a2.5 2.5 0 1 1 5 .13 2.5 2.5 0 0 1-5-.13zM3.763 257.5a2.5 2.5 0 1 0-.13 4.998 2.5 2.5 0 0 0 .13-4.998zm-1.916-22.557a2.5 2.5 0 1 1 4.997.13 2.5 2.5 0 0 1-4.997-.13zm3.21-27.426a2.5 2.5 0 1 0-.13 4.998 2.5 2.5 0 0 0 .13-4.998zM3.14 184.96a2.5 2.5 0 1 1 4.998.13 2.5 2.5 0 0 1-4.998-.13zm3.212-27.426a2.5 2.5 0 1 0-.13 4.998 2.5 2.5 0 0 0 .13-4.998zm-1.917-22.557a2.5 2.5 0 1 1 4.997.13 2.5 2.5 0 0 1-4.997-.13zm3.211-27.426a2.5 2.5 0 1 0-.13 4.998 2.5 2.5 0 0 0 .13-4.998zM5.731 84.995a2.5 2.5 0 1 1 4.998.13 2.5 2.5 0 0 1-4.998-.13zm3.21-27.426a2.5 2.5 0 1 0-.129 4.998 2.5 2.5 0 0 0 .13-4.998zM7.026 35.011a2.5 2.5 0 1 1 4.999.13 2.5 2.5 0 0 1-4.999-.13zm3.212-27.425a2.5 2.5 0 1 0-.13 4.998 2.5 2.5 0 0 0 .13-4.998z" fill="#DADDEC"/>
</svg>
