<svg width="224" height="124" viewBox="0 0 224 124" xmlns="http://www.w3.org/2000/svg">
    <title>
        Dots Copy 3
    </title>
    <g fill="#E9EBF2" fill-rule="nonzero">
        <circle transform="rotate(-5 2.167 21.341)" cx="2.167" cy="21.341" r="2"/>
        <circle transform="rotate(-5 22.09 19.598)" cx="22.091" cy="19.598" r="2"/>
        <circle transform="rotate(-5 42.015 17.855)" cx="42.014" cy="17.855" r="2"/>
        <circle transform="rotate(-5 61.938 16.111)" cx="61.938" cy="16.111" r="2"/>
        <circle transform="rotate(-5 81.862 14.368)" cx="81.862" cy="14.368" r="2"/>
        <circle transform="rotate(-5 101.786 12.626)" cx="101.786" cy="12.626" r="2"/>
        <circle transform="rotate(-5 121.71 10.882)" cx="121.71" cy="10.883" r="2"/>
        <circle transform="rotate(-5 141.634 9.14)" cx="141.634" cy="9.139" r="2"/>
        <circle transform="rotate(-5 161.558 7.396)" cx="161.558" cy="7.396" r="2"/>
        <circle transform="rotate(-5 181.482 5.653)" cx="181.482" cy="5.653" r="2"/>
        <circle transform="rotate(-5 201.406 3.91)" cx="201.406" cy="3.91" r="2"/>
        <circle transform="rotate(-5 221.33 2.167)" cx="221.33" cy="2.167" r="2"/>
        <circle transform="rotate(-5 2.285 41.395)" cx="2.285" cy="41.395" r="2"/>
        <circle transform="rotate(-5 22.21 39.652)" cx="22.209" cy="39.652" r="2"/>
        <circle transform="rotate(-5 42.133 37.909)" cx="42.133" cy="37.909" r="2"/>
        <circle transform="rotate(-5 62.057 36.166)" cx="62.057" cy="36.166" r="2"/>
        <circle transform="rotate(-5 81.98 34.423)" cx="81.981" cy="34.423" r="2"/>
        <circle transform="rotate(-5 101.905 32.68)" cx="101.905" cy="32.68" r="2"/>
        <circle transform="rotate(-5 121.829 30.937)" cx="121.829" cy="30.937" r="2"/>
        <circle transform="rotate(-5 141.753 29.194)" cx="141.753" cy="29.194" r="2"/>
        <circle transform="rotate(-5 161.676 27.45)" cx="161.676" cy="27.45" r="2"/>
        <circle transform="rotate(-5 181.6 25.707)" cx="181.6" cy="25.707" r="2"/>
        <circle transform="rotate(-5 201.524 23.964)" cx="201.524" cy="23.964" r="2"/>
        <circle transform="rotate(-5 221.448 22.22)" cx="221.448" cy="22.221" r="2"/>
        <circle transform="rotate(-5 2.285 61.395)" cx="2.285" cy="61.395" r="2"/>
        <circle transform="rotate(-5 22.21 59.652)" cx="22.209" cy="59.652" r="2"/>
        <circle transform="rotate(-5 42.133 57.909)" cx="42.133" cy="57.909" r="2"/>
        <circle transform="rotate(-5 62.057 56.166)" cx="62.057" cy="56.166" r="2"/>
        <circle transform="rotate(-5 81.98 54.423)" cx="81.981" cy="54.423" r="2"/>
        <circle transform="rotate(-5 101.905 52.68)" cx="101.905" cy="52.68" r="2"/>
        <circle transform="rotate(-5 121.829 50.937)" cx="121.829" cy="50.937" r="2"/>
        <circle transform="rotate(-5 141.753 49.194)" cx="141.753" cy="49.194" r="2"/>
        <circle transform="rotate(-5 161.676 47.45)" cx="161.676" cy="47.45" r="2"/>
        <circle transform="rotate(-5 181.6 45.707)" cx="181.6" cy="45.707" r="2"/>
        <circle transform="rotate(-5 201.524 43.964)" cx="201.524" cy="43.964" r="2"/>
        <circle transform="rotate(-5 221.448 42.22)" cx="221.448" cy="42.221" r="2"/>
        <circle transform="rotate(-5 2.285 81.395)" cx="2.285" cy="81.395" r="2"/>
        <circle transform="rotate(-5 22.21 79.652)" cx="22.209" cy="79.652" r="2"/>
        <circle transform="rotate(-5 42.133 77.909)" cx="42.133" cy="77.909" r="2"/>
        <circle transform="rotate(-5 62.057 76.166)" cx="62.057" cy="76.166" r="2"/>
        <circle transform="rotate(-5 81.98 74.423)" cx="81.981" cy="74.423" r="2"/>
        <circle transform="rotate(-5 101.905 72.68)" cx="101.905" cy="72.68" r="2"/>
        <circle transform="rotate(-5 121.829 70.937)" cx="121.829" cy="70.937" r="2"/>
        <circle transform="rotate(-5 141.753 69.194)" cx="141.753" cy="69.194" r="2"/>
        <circle transform="rotate(-5 161.676 67.45)" cx="161.676" cy="67.45" r="2"/>
        <circle transform="rotate(-5 181.6 65.707)" cx="181.6" cy="65.707" r="2"/>
        <circle transform="rotate(-5 201.524 63.964)" cx="201.524" cy="63.964" r="2"/>
        <circle transform="rotate(-5 221.448 62.22)" cx="221.448" cy="62.221" r="2"/>
        <circle transform="rotate(-5 2.285 101.395)" cx="2.285" cy="101.395" r="2"/>
        <circle transform="rotate(-5 22.21 99.652)" cx="22.209" cy="99.652" r="2"/>
        <circle transform="rotate(-5 42.133 97.909)" cx="42.133" cy="97.909" r="2"/>
        <circle transform="rotate(-5 62.057 96.166)" cx="62.057" cy="96.166" r="2"/>
        <circle transform="rotate(-5 81.98 94.423)" cx="81.981" cy="94.423" r="2"/>
        <circle transform="rotate(-5 101.905 92.68)" cx="101.905" cy="92.68" r="2"/>
        <circle transform="rotate(-5 121.829 90.937)" cx="121.829" cy="90.937" r="2"/>
        <circle transform="rotate(-5 141.753 89.194)" cx="141.753" cy="89.194" r="2"/>
        <circle transform="rotate(-5 161.676 87.45)" cx="161.676" cy="87.45" r="2"/>
        <circle transform="rotate(-5 181.6 85.707)" cx="181.6" cy="85.707" r="2"/>
        <circle transform="rotate(-5 201.524 83.964)" cx="201.524" cy="83.964" r="2"/>
        <circle transform="rotate(-5 221.448 82.22)" cx="221.448" cy="82.221" r="2"/>
        <circle transform="rotate(-5 2.285 121.395)" cx="2.285" cy="121.395" r="2"/>
        <circle transform="rotate(-5 22.21 119.652)" cx="22.209" cy="119.652" r="2"/>
        <circle transform="rotate(-5 42.133 117.909)" cx="42.133" cy="117.909" r="2"/>
        <circle transform="rotate(-5 62.057 116.166)" cx="62.057" cy="116.166" r="2"/>
        <circle transform="rotate(-5 81.98 114.423)" cx="81.981" cy="114.423" r="2"/>
        <circle transform="rotate(-5 101.905 112.68)" cx="101.905" cy="112.68" r="2"/>
        <circle transform="rotate(-5 121.829 110.937)" cx="121.829" cy="110.937" r="2"/>
        <circle transform="rotate(-5 141.753 109.194)" cx="141.753" cy="109.194" r="2"/>
        <circle transform="rotate(-5 161.676 107.45)" cx="161.676" cy="107.45" r="2"/>
        <circle transform="rotate(-5 181.6 105.707)" cx="181.6" cy="105.707" r="2"/>
        <circle transform="rotate(-5 201.524 103.964)" cx="201.524" cy="103.964" r="2"/>
        <circle transform="rotate(-5 221.448 102.221)" cx="221.448" cy="102.221" r="2"/>
    </g>
</svg>
