<svg width="1205" height="696" viewBox="0 0 1205 696" fill="none" xmlns="http://www.w3.org/2000/svg">
    <path fill-rule="evenodd" clip-rule="evenodd" d="M100 509H17.007L0 696h82.993L100 509zM44 648.959c.382.028.766.041 1.15.041 8.219 0 14.85-6.285 14.85-14.004C60 627.278 53.369 621 45.15 621c-6.501 0-12.187 3.917-14.15 9.753l5.051 1.709c.55-1.64 1.59-3.04 2.949-4.085V655h5v-6.041zm0-5.365c.377.042.756.063 1.136.062 5.253 0 9.517-3.888 9.517-8.689 0-4.8-4.25-8.623-9.503-8.623-.389 0-.772.021-1.15.061v17.189zM56 668H34v-5h22v5z" fill="#14146D"/>
    <path d="M111.975 622.5V633h2.07v-3.45h1.845c1.005 0 1.86-.345 2.55-1.02.69-.675 1.035-1.515 1.035-2.505s-.345-1.83-1.035-2.505c-.69-.675-1.545-1.02-2.55-1.02h-3.915zm2.07 5.115v-3.18h1.845c.885 0 1.53.675 1.53 1.59 0 .9-.645 1.59-1.53 1.59h-1.845zm11.89-1.23c-.585-.735-1.395-1.095-2.445-1.095-1.005 0-1.86.39-2.58 1.155-.705.765-1.065 1.695-1.065 2.805s.36 2.055 1.065 2.82c.72.765 1.575 1.14 2.58 1.14 1.05 0 1.86-.36 2.445-1.095V633h1.935v-7.5h-1.935v.885zm-3.57 4.395c-.39-.405-.585-.915-.585-1.53s.195-1.125.585-1.515c.39-.405.885-.6 1.485-.6.6 0 1.095.195 1.485.6.405.39.6.9.6 1.515 0 .615-.195 1.125-.6 1.53-.39.39-.885.585-1.485.585-.6 0-1.095-.195-1.485-.585zm9.194 2.22v-10.95h-1.935V633h1.935zm10.066-7.71c-.99 0-1.74.36-2.235 1.08-.435-.72-1.125-1.08-2.04-1.08-.945 0-1.635.33-2.085 1.005v-.795h-1.935v7.5h1.935v-4.215c0-1.095.555-1.695 1.41-1.695.795 0 1.26.525 1.26 1.425V633h1.935v-4.215c0-1.095.51-1.695 1.395-1.695.795 0 1.26.525 1.26 1.425V633h1.935v-4.62c0-1.875-1.11-3.09-2.835-3.09zm11.769 4.755c.045-.285.075-.54.075-.795 0-1.125-.36-2.055-1.08-2.82-.705-.765-1.62-1.14-2.715-1.14-1.155 0-2.115.375-2.85 1.14-.735.75-1.11 1.695-1.11 2.82 0 1.14.375 2.085 1.125 2.835s1.74 1.125 2.985 1.125c1.44 0 2.535-.54 3.27-1.605l-1.56-.9c-.375.495-.945.75-1.68.75-1.155 0-1.86-.465-2.115-1.41h5.655zm-5.685-1.5c.225-.96.93-1.515 1.965-1.515.885 0 1.635.495 1.86 1.515h-3.825zm9.046-3.045h-1.935v7.5h1.935v-3.585c0-.72.225-1.23.69-1.545.465-.315 1.005-.435 1.59-.36v-2.16c-1.02 0-1.92.48-2.28 1.44v-1.29zm4.371-.9c.66 0 1.2-.54 1.2-1.185s-.54-1.2-1.2-1.2c-.645 0-1.185.555-1.185 1.2 0 .645.54 1.185 1.185 1.185zm.975 8.4v-7.5h-1.935v7.5h1.935zm-50.126 6.5V650h4.17c1.44 0 2.64-.51 3.6-1.515.975-1.005 1.455-2.25 1.455-3.735 0-1.485-.48-2.73-1.455-3.735-.96-1.005-2.16-1.515-3.6-1.515h-4.17zm2.07 8.52v-6.54h2.1c.915 0 1.65.3 2.22.915.57.6.855 1.38.855 2.355 0 .975-.285 1.755-.855 2.37-.57.6-1.305.9-2.22.9h-2.1zm15.823-.975c.045-.285.075-.54.075-.795 0-1.125-.36-2.055-1.08-2.82-.705-.765-1.62-1.14-2.715-1.14-1.155 0-2.115.375-2.85 1.14-.735.75-1.11 1.695-1.11 2.82 0 1.14.375 2.085 1.125 2.835s1.74 1.125 2.985 1.125c1.44 0 2.535-.54 3.27-1.605l-1.56-.9c-.375.495-.945.75-1.68.75-1.155 0-1.86-.465-2.115-1.41h5.655zm-5.685-1.5c.225-.96.93-1.515 1.965-1.515.885 0 1.635.495 1.86 1.515h-3.825zm8.603-.915c0-.375.375-.615.87-.615.555 0 .96.255 1.2.765l1.65-.9c-.585-1.02-1.635-1.59-2.85-1.59-.81 0-1.485.21-2.04.645-.54.42-.81 1.005-.81 1.74 0 1.56 1.395 2.025 2.505 2.31.765.195 1.365.42 1.365.825 0 .435-.345.645-1.035.645-.765 0-1.245-.33-1.47-.975l-1.68.945c.555 1.185 1.605 1.785 3.15 1.785.855 0 1.575-.21 2.145-.615.585-.42.87-1.02.87-1.785.015-1.605-1.41-2.13-2.505-2.355-.765-.195-1.365-.42-1.365-.825zm6.075-3.03c.66 0 1.2-.54 1.2-1.185s-.54-1.2-1.2-1.2c-.645 0-1.185.555-1.185 1.2 0 .645.54 1.185 1.185 1.185zm.975 8.4v-7.5h-1.935v7.5h1.935zm7.516-6.57c-.57-.765-1.365-1.14-2.4-1.14-1.05 0-1.935.375-2.655 1.125-.72.75-1.08 1.65-1.08 2.715s.36 1.98 1.065 2.73c.72.735 1.605 1.11 2.67 1.11 1.035 0 1.83-.375 2.4-1.14v.81c0 1.185-.75 1.845-1.965 1.845-.93 0-1.59-.345-1.965-1.05l-1.65.945c.66 1.2 1.935 1.83 3.555 1.83 1.08 0 1.995-.3 2.76-.915.765-.615 1.155-1.5 1.155-2.655v-7.14h-1.89v.93zm0 2.7c0 1.2-.885 2.055-2.1 2.055s-2.1-.855-2.1-2.055c0-.585.195-1.08.585-1.455.405-.39.9-.585 1.515-.585.615 0 1.11.195 1.5.585.405.375.6.87.6 1.455zm7.814-3.84c-1.02 0-1.77.345-2.235 1.05v-.84h-1.935v7.5h1.935v-4.05c0-1.245.645-1.86 1.65-1.86.9 0 1.485.54 1.485 1.545V650h1.935v-4.605c0-.975-.27-1.725-.81-2.28-.525-.555-1.2-.825-2.025-.825zm15.783 5.625c.42-.66.72-1.395.915-2.205l-1.74-.99c-.12.69-.285 1.275-.51 1.74l-2.25-2.46c-.6-.645-.855-1.035-.855-1.59 0-.645.525-1.11 1.245-1.11.735 0 1.26.42 1.545 1.26l1.77-1.02c-.585-1.455-1.845-2.25-3.345-2.25-.945 0-1.74.285-2.355.855-.615.555-.93 1.29-.93 2.175 0 .63.165 1.215.51 1.755-1.14.66-1.755 1.77-1.755 3.015 0 .945.345 1.71 1.02 2.28.69.555 1.575.84 2.655.84 1.065 0 2.01-.3 2.82-.9l.96 1.035 1.65-.945-1.35-1.485zm-3.945.39c-1.125 0-1.725-.57-1.725-1.425 0-.63.27-1.11.825-1.455 0 .015.015.03.03.045l2.265 2.46c-.405.255-.87.375-1.395.375zm13.917 1.905c1.125 0 2.04-.285 2.745-.855.705-.57 1.065-1.335 1.065-2.31 0-.6-.165-1.125-.39-1.485-.195-.36-.675-.735-.99-.93a3.03 3.03 0 0 0-.66-.315c-.285-.12-.51-.21-.675-.255l-.72-.24c-.78-.24-1.305-.465-1.59-.66a.981.981 0 0 1-.405-.81c0-.615.525-1.05 1.38-1.05.915 0 1.59.45 2.01 1.35l1.74-1.005c-.72-1.485-2.055-2.355-3.75-2.355-.945 0-1.77.285-2.445.855-.675.555-1.005 1.32-1.005 2.265 0 .96.345 1.68.99 2.16.66.465 1.23.69 2.175.975.855.24 1.44.465 1.77.675.33.195.495.48.495.855 0 .645-.525 1.11-1.68 1.11-1.2 0-2.01-.54-2.415-1.605l-1.77 1.035c.585 1.605 2.04 2.595 4.125 2.595zm13.232-10.71l-3 4.965-3.015-4.965h-2.13V650h2.07v-6.795l2.955 4.86h.24l2.955-4.875V650h2.055v-10.5h-2.13zm12.232 0l-3 4.965-3.015-4.965h-2.13V650h2.07v-6.795l2.955 4.86h.24l2.955-4.875V650h2.055v-10.5h-2.13zm-85.41 27.5l-3.69-10.5h-2.565l-3.675 10.5h2.235l.63-1.89h4.185l.63 1.89h2.25zm-4.965-8.115l1.44 4.29h-2.88l1.44-4.29zm11.434 1.545c-.57-.765-1.365-1.14-2.4-1.14-1.05 0-1.935.375-2.655 1.125-.72.75-1.08 1.65-1.08 2.715s.36 1.98 1.065 2.73c.72.735 1.605 1.11 2.67 1.11 1.035 0 1.83-.375 2.4-1.14v.81c0 1.185-.75 1.845-1.965 1.845-.93 0-1.59-.345-1.965-1.05l-1.65.945c.66 1.2 1.935 1.83 3.555 1.83 1.08 0 1.995-.3 2.76-.915.765-.615 1.155-1.5 1.155-2.655v-7.14h-1.89v.93zm0 2.7c0 1.2-.885 2.055-2.1 2.055s-2.1-.855-2.1-2.055c0-.585.195-1.08.585-1.455.405-.39.9-.585 1.515-.585.615 0 1.11.195 1.5.585.405.375.6.87.6 1.455zm10.935.915c.045-.285.075-.54.075-.795 0-1.125-.36-2.055-1.08-2.82-.705-.765-1.62-1.14-2.715-1.14-1.155 0-2.115.375-2.85 1.14-.735.75-1.11 1.695-1.11 2.82 0 1.14.375 2.085 1.125 2.835s1.74 1.125 2.985 1.125c1.44 0 2.535-.54 3.27-1.605l-1.56-.9c-.375.495-.945.75-1.68.75-1.155 0-1.86-.465-2.115-1.41h5.655zm-5.685-1.5c.225-.96.93-1.515 1.965-1.515.885 0 1.635.495 1.86 1.515h-3.825zm11.281-3.255c-1.02 0-1.77.345-2.235 1.05v-.84h-1.935v7.5h1.935v-4.05c0-1.245.645-1.86 1.65-1.86.9 0 1.485.54 1.485 1.545V667h1.935v-4.605c0-.975-.27-1.725-.81-2.28-.525-.555-1.2-.825-2.025-.825zm8.057 7.92c1.455 0 2.73-.765 3.39-1.95l-1.68-.96c-.3.615-.945.99-1.725.99-.585 0-1.065-.195-1.44-.57-.375-.39-.57-.885-.57-1.47 0-1.2.855-2.055 2.01-2.055.765 0 1.41.39 1.71 1.005l1.665-.975c-.615-1.185-1.905-1.935-3.36-1.935-1.125 0-2.07.375-2.835 1.14-.75.765-1.125 1.695-1.125 2.82 0 1.125.375 2.055 1.125 2.82.765.765 1.71 1.14 2.835 1.14zm7.697-2.67l-1.95-5.04h-2.115l3.075 7.26c-.36 1.02-.93 1.455-1.965 1.44v1.8c1.92.105 3.18-.84 3.96-3l2.73-7.5h-2.07l-1.665 5.04z" fill="#14146D"/>
    <path d="M7 481l133-6v61L7 542v-61z" fill="#fff"/>
    <path d="M58.27 50.504L1267.65.006l-32.94 480.468L14.5 536 58.27 50.504z" fill="#14146D"/>
</svg>
