<svg width="223" height="382" viewBox="0 0 223 382" fill="none" xmlns="http://www.w3.org/2000/svg">
    <path fill-rule="evenodd" clip-rule="evenodd" d="M203.123 1.213a3.333 3.333 0 1 0-.29 6.659 3.333 3.333 0 0 0 .29-6.66zm-4.93 36.486a3.334 3.334 0 1 1 6.662.292 3.334 3.334 0 0 1-6.662-.292zm2.022 30.116a3.334 3.334 0 1 0-.29 6.662 3.334 3.334 0 0 0 .29-6.662zm-4.93 36.487a3.335 3.335 0 0 1 6.661.291 3.335 3.335 0 0 1-6.661-.291zm2.022 30.117a3.333 3.333 0 1 0-.292 6.66 3.333 3.333 0 0 0 .292-6.66zm-4.93 36.486a3.334 3.334 0 1 1 6.662.292 3.334 3.334 0 0 1-6.662-.292zm2.022 30.117a3.334 3.334 0 1 0-.29 6.662 3.334 3.334 0 0 0 .29-6.662zm-4.929 36.485a3.334 3.334 0 1 1 6.66.29 3.334 3.334 0 0 1-6.66-.29zm2.021 30.117a3.333 3.333 0 1 0-.29 6.66 3.333 3.333 0 0 0 .29-6.66zm-4.929 36.486a3.333 3.333 0 1 1 6.661.291 3.333 3.333 0 0 1-6.661-.291zm2.021 30.117a3.333 3.333 0 1 0-.29 6.66 3.333 3.333 0 0 0 .29-6.66zm-1.454 33.301a3.333 3.333 0 1 0-.29 6.66 3.333 3.333 0 0 0 .29-6.66zm-36.875 4.445a3.333 3.333 0 1 1 6.66.292 3.333 3.333 0 0 1-6.66-.292zm4.929-36.486a3.333 3.333 0 1 0-.29 6.66 3.333 3.333 0 0 0 .29-6.66zm-2.021-30.116a3.333 3.333 0 1 1 6.66.29 3.333 3.333 0 0 1-6.66-.29zm4.929-36.486a3.332 3.332 0 0 0-3.475 3.185 3.333 3.333 0 1 0 3.475-3.185zm-2.021-30.117a3.333 3.333 0 1 1 6.66.292 3.333 3.333 0 0 1-6.66-.292zm4.928-36.487a3.333 3.333 0 1 0-.29 6.66 3.333 3.333 0 0 0 .29-6.66zm-2.021-30.116a3.334 3.334 0 1 1 6.66.29 3.334 3.334 0 0 1-6.66-.29zm4.93-36.487a3.334 3.334 0 1 0-.291 6.66 3.334 3.334 0 0 0 .291-6.66zm-2.022-30.115a3.334 3.334 0 1 1 6.662.292 3.334 3.334 0 0 1-6.662-.292zm4.93-36.486a3.334 3.334 0 1 0-.29 6.662 3.334 3.334 0 0 0 .29-6.662zm-2.022-30.117a3.334 3.334 0 1 1 6.662.293 3.334 3.334 0 0 1-6.662-.293zm4.93-36.486a3.334 3.334 0 1 0-.29 6.662 3.334 3.334 0 0 0 .29-6.662zm-52.771 370.953a3.332 3.332 0 0 1 3.476-3.184 3.333 3.333 0 1 1-3.476 3.184zm4.93-36.486a3.335 3.335 0 0 0-.291 6.661 3.333 3.333 0 0 0 .291-6.661zm-2.022-30.116a3.335 3.335 0 0 1 6.661.291 3.333 3.333 0 0 1-6.661-.291zm4.93-36.486a3.333 3.333 0 1 0-.291 6.66 3.333 3.333 0 0 0 .291-6.66zm-2.022-30.117a3.335 3.335 0 0 1 6.661.291 3.335 3.335 0 0 1-6.661-.291zm4.929-36.487a3.333 3.333 0 1 0-.29 6.66 3.333 3.333 0 0 0 .29-6.66zm-2.021-30.116a3.333 3.333 0 1 1 6.66.29 3.333 3.333 0 0 1-6.66-.29zm4.929-36.487a3.333 3.333 0 1 0-.29 6.66 3.333 3.333 0 0 0 .29-6.66zm-2.021-30.115a3.333 3.333 0 1 1 6.66.29 3.333 3.333 0 0 1-6.66-.29zm4.929-36.486a3.333 3.333 0 1 0-.29 6.66 3.333 3.333 0 0 0 .29-6.66zm-2.021-30.117a3.333 3.333 0 1 1 6.66.29 3.333 3.333 0 0 1-6.66-.29zm4.929-36.486a3.333 3.333 0 1 0-.29 6.659 3.333 3.333 0 0 0 .29-6.66zM83.651 374.88a3.332 3.332 0 1 1 6.66.291 3.334 3.334 0 0 1-6.66-.291zm4.93-36.486a3.334 3.334 0 1 0-.29 6.661 3.334 3.334 0 0 0 .29-6.661zm-2.022-30.116a3.334 3.334 0 1 1 6.661.291 3.334 3.334 0 0 1-6.661-.291zm4.93-36.486a3.332 3.332 0 1 0-.291 6.66 3.334 3.334 0 0 0 .29-6.66zm-2.022-30.117a3.334 3.334 0 1 1 6.661.291 3.334 3.334 0 0 1-6.661-.291zm4.929-36.487a3.334 3.334 0 1 0-.29 6.661 3.334 3.334 0 0 0 .29-6.661zm-2.022-30.116a3.334 3.334 0 1 1 6.662.292 3.334 3.334 0 0 1-6.662-.292zm4.93-36.487a3.334 3.334 0 1 0-.29 6.661 3.334 3.334 0 0 0 .29-6.661zm-2.022-30.115a3.334 3.334 0 1 1 6.662.291 3.334 3.334 0 0 1-6.662-.291zm4.93-36.486a3.333 3.333 0 1 0-.29 6.66 3.333 3.333 0 0 0 .29-6.66zM98.19 41.868a3.333 3.333 0 1 1 6.66.29 3.333 3.333 0 0 1-6.66-.29zm4.93-36.486a3.333 3.333 0 1 0-.29 6.66 3.333 3.333 0 0 0 .29-6.66zM50.35 376.335a3.333 3.333 0 1 1 6.661.291 3.333 3.333 0 0 1-6.662-.291zm4.929-36.486a3.334 3.334 0 1 0-.29 6.661 3.334 3.334 0 0 0 .29-6.661zm-2.022-30.116a3.334 3.334 0 1 1 6.662.291 3.334 3.334 0 0 1-6.661-.291zm4.93-36.486a3.332 3.332 0 1 0-.29 6.66 3.334 3.334 0 0 0 .29-6.66zm-2.021-30.117a3.334 3.334 0 1 1 6.66.291 3.334 3.334 0 0 1-6.66-.291zm4.928-36.487a3.334 3.334 0 1 0-.29 6.661 3.334 3.334 0 0 0 .29-6.661zm-2.021-30.116a3.334 3.334 0 1 1 6.661.291 3.334 3.334 0 0 1-6.661-.291zm4.93-36.487a3.334 3.334 0 1 0-.29 6.661 3.334 3.334 0 0 0 .29-6.661zm-2.022-30.115a3.334 3.334 0 1 1 6.661.291 3.334 3.334 0 0 1-6.661-.291zm4.93-36.486a3.333 3.333 0 1 0-.291 6.66 3.333 3.333 0 0 0 .29-6.66zm-2.022-30.117a3.333 3.333 0 1 1 6.66.29 3.333 3.333 0 0 1-6.66-.29zm4.93-36.486a3.333 3.333 0 1 0-.291 6.66 3.333 3.333 0 0 0 .29-6.66zM17.048 377.789a3.333 3.333 0 1 1 6.661.291 3.333 3.333 0 0 1-6.661-.291zm4.93-36.486a3.334 3.334 0 1 0-.29 6.662 3.334 3.334 0 0 0 .29-6.662zm-2.022-30.116a3.334 3.334 0 1 1 6.661.291 3.334 3.334 0 0 1-6.66-.291zm4.929-36.486a3.332 3.332 0 1 0-.29 6.66 3.334 3.334 0 0 0 .29-6.66zm-2.022-30.117a3.334 3.334 0 1 1 6.662.291 3.334 3.334 0 0 1-6.662-.291zm4.93-36.487a3.334 3.334 0 1 0-.29 6.661 3.334 3.334 0 0 0 .29-6.661zm-2.022-30.116a3.334 3.334 0 1 1 6.66.291 3.334 3.334 0 0 1-6.66-.291zm4.93-36.487a3.334 3.334 0 1 0-.29 6.661 3.334 3.334 0 0 0 .29-6.661zm-2.02-30.115a3.334 3.334 0 1 1 6.66.292 3.334 3.334 0 0 1-6.66-.292zm4.928-36.486a3.333 3.333 0 1 0-.29 6.66 3.333 3.333 0 0 0 .29-6.66zm-2.021-30.117a3.333 3.333 0 1 1 6.66.29 3.333 3.333 0 0 1-6.66-.29zm4.93-36.486a3.333 3.333 0 1 0-.291 6.66 3.333 3.333 0 0 0 .29-6.66z" fill="#E9EBF2" fill-opacity=".2"/>
</svg>
