<svg width="143" height="286" viewBox="0 0 143 286" fill="none" xmlns="http://www.w3.org/2000/svg">
    <path fill-rule="evenodd" clip-rule="evenodd" d="M139.615.256a2.501 2.501 0 1 0-.217 4.998 2.501 2.501 0 0 0 .217-4.998zm-3.697 27.365a2.5 2.5 0 1 1 4.995.217 2.5 2.5 0 0 1-4.995-.217zm1.516 22.587a2.501 2.501 0 1 0-.217 4.998 2.501 2.501 0 0 0 .217-4.998zm-3.697 27.365a2.5 2.5 0 1 1 4.995.218 2.5 2.5 0 0 1-4.995-.218zm1.516 22.588a2.501 2.501 0 1 0-.217 4.997 2.501 2.501 0 0 0 .217-4.997zm-3.697 27.364a2.5 2.5 0 1 1 4.994.218 2.5 2.5 0 0 1-4.994-.218zm1.516 22.588a2.501 2.501 0 0 0-.218 4.996 2.5 2.5 0 0 0 .218-4.996zm-3.697 27.364a2.5 2.5 0 1 1 4.996.22 2.5 2.5 0 0 1-4.996-.22zm1.516 22.588a2.5 2.5 0 1 0-.217 4.994 2.5 2.5 0 0 0 .217-4.994zm-3.697 27.365a2.5 2.5 0 1 1 4.996.218 2.5 2.5 0 0 1-4.996-.218zm1.516 22.587a2.5 2.5 0 1 0-.217 4.994 2.5 2.5 0 0 0 .217-4.994zm-1.09 24.976a2.5 2.5 0 1 0-.219 4.995 2.5 2.5 0 0 0 .219-4.995zm-27.657 3.334a2.5 2.5 0 1 1 4.996.218 2.5 2.5 0 0 1-4.996-.218zm3.697-27.365a2.5 2.5 0 1 0-.216 4.996 2.5 2.5 0 0 0 .216-4.996zm-1.516-22.587a2.5 2.5 0 1 1 4.996.218 2.5 2.5 0 0 1-4.996-.218zm3.697-27.364a2.499 2.499 0 1 0-.218 4.995 2.5 2.5 0 1 0 .218-4.995zm-1.516-22.588a2.5 2.5 0 1 1 4.995.218 2.5 2.5 0 1 1-4.995-.218zm3.697-27.365a2.5 2.5 0 1 0-.219 4.995 2.5 2.5 0 0 0 .219-4.995zm-1.516-22.587a2.5 2.5 0 1 1 4.995.216 2.5 2.5 0 0 1-4.995-.216zm3.697-27.366a2.5 2.5 0 1 0-.218 4.996 2.5 2.5 0 0 0 .218-4.996zm-1.516-22.586a2.5 2.5 0 1 1 4.994.217 2.5 2.5 0 0 1-4.994-.217zm3.697-27.364a2.5 2.5 0 1 0-.218 4.996 2.5 2.5 0 0 0 .218-4.996zm-1.516-22.588a2.5 2.5 0 1 1 4.994.217 2.5 2.5 0 0 1-4.994-.217zm3.697-27.365a2.501 2.501 0 1 0-.217 4.998 2.501 2.501 0 0 0 .217-4.998zM74.987 279.417a2.5 2.5 0 1 1 4.995.22 2.5 2.5 0 0 1-4.995-.22zm3.697-27.364a2.5 2.5 0 1 0-.218 4.995 2.5 2.5 0 0 0 .218-4.995zm-1.516-22.587a2.5 2.5 0 1 1 4.995.217 2.5 2.5 0 0 1-4.995-.217zm3.697-27.365a2.5 2.5 0 1 0-.218 4.995 2.5 2.5 0 0 0 .218-4.995zm-1.516-22.587a2.5 2.5 0 1 1 4.996.217 2.5 2.5 0 0 1-4.996-.217zm3.697-27.366a2.5 2.5 0 1 0-.217 4.997 2.5 2.5 0 0 0 .217-4.997zm-1.516-22.587a2.5 2.5 0 1 1 4.993.218 2.5 2.5 0 0 1-4.993-.218zm3.697-27.365a2.5 2.5 0 1 0-.218 4.995 2.5 2.5 0 0 0 .218-4.995zM83.71 79.61a2.5 2.5 0 1 1 4.995.218 2.5 2.5 0 0 1-4.995-.218zm3.697-27.365a2.5 2.5 0 1 0-.218 4.995 2.5 2.5 0 0 0 .218-4.995zm-1.516-22.588a2.5 2.5 0 1 1 4.995.219 2.5 2.5 0 0 1-4.995-.219zm3.697-27.364a2.5 2.5 0 1 0-.218 4.995 2.5 2.5 0 0 0 .218-4.995zM50.01 280.508a2.5 2.5 0 1 1 4.997.219 2.5 2.5 0 0 1-4.997-.219zm3.697-27.365a2.5 2.5 0 1 0-.216 4.997 2.5 2.5 0 0 0 .216-4.997zm-1.516-22.587a2.5 2.5 0 1 1 4.997.219 2.5 2.5 0 0 1-4.997-.219zm3.697-27.365a2.5 2.5 0 1 0-.216 4.997 2.5 2.5 0 0 0 .216-4.997zm-1.516-22.587a2.5 2.5 0 1 1 4.994.218 2.5 2.5 0 0 1-4.994-.218zm3.697-27.365a2.5 2.5 0 1 0-.218 4.995 2.5 2.5 0 0 0 .218-4.995zm-1.517-22.587a2.5 2.5 0 1 1 4.996.217 2.5 2.5 0 0 1-4.995-.217zm3.698-27.366a2.5 2.5 0 1 0-.217 4.997 2.5 2.5 0 0 0 .217-4.997zM58.735 80.7a2.5 2.5 0 1 1 4.995.219 2.5 2.5 0 0 1-4.995-.219zm3.697-27.364a2.5 2.5 0 1 0-.218 4.995 2.5 2.5 0 0 0 .218-4.995zm-1.516-22.588a2.5 2.5 0 1 1 4.995.218 2.5 2.5 0 0 1-4.995-.218zm3.697-27.365a2.5 2.5 0 1 0-.218 4.996 2.5 2.5 0 0 0 .218-4.996zM25.035 281.598a2.5 2.5 0 1 1 4.995.219 2.5 2.5 0 0 1-4.995-.219zm3.697-27.364a2.5 2.5 0 1 0-.218 4.995 2.5 2.5 0 0 0 .218-4.995zm-1.516-22.588a2.5 2.5 0 1 1 4.995.22 2.5 2.5 0 0 1-4.995-.22zm3.697-27.364a2.5 2.5 0 1 0-.218 4.995 2.5 2.5 0 0 0 .218-4.995zm-1.516-22.587a2.5 2.5 0 1 1 4.996.218 2.5 2.5 0 0 1-4.996-.218zm3.697-27.366a2.5 2.5 0 1 0-.217 4.997 2.5 2.5 0 0 0 .217-4.997zm-1.517-22.587a2.5 2.5 0 1 1 4.997.219 2.5 2.5 0 0 1-4.996-.219zm3.698-27.365a2.5 2.5 0 1 0-.219 4.995 2.5 2.5 0 0 0 .219-4.995zm-1.516-22.586a2.5 2.5 0 1 1 4.995.218 2.5 2.5 0 0 1-4.995-.218zm3.697-27.365a2.5 2.5 0 1 0-.218 4.996 2.5 2.5 0 0 0 .218-4.996zM35.94 31.838a2.5 2.5 0 1 1 4.995.218 2.5 2.5 0 0 1-4.995-.218zm3.697-27.364a2.5 2.5 0 1 0-.218 4.995 2.5 2.5 0 0 0 .218-4.995zM.059 282.689a2.5 2.5 0 1 1 4.995.217 2.5 2.5 0 0 1-4.995-.217zm3.697-27.365a2.5 2.5 0 1 0-.217 4.997 2.5 2.5 0 0 0 .217-4.997zM2.24 232.737a2.5 2.5 0 1 1 4.997.219 2.5 2.5 0 0 1-4.997-.219zm3.696-27.365a2.5 2.5 0 1 0-.216 4.997 2.5 2.5 0 0 0 .216-4.997zM4.42 182.785a2.5 2.5 0 1 1 4.997.219 2.5 2.5 0 0 1-4.997-.219zm3.698-27.365a2.5 2.5 0 1 0-.219 4.995 2.5 2.5 0 0 0 .219-4.995zM6.6 132.833a2.5 2.5 0 1 1 4.995.217 2.5 2.5 0 0 1-4.995-.217zm3.697-27.366a2.5 2.5 0 1 0-.217 4.997 2.5 2.5 0 0 0 .217-4.997zM8.783 82.881a2.5 2.5 0 1 1 4.995.218 2.5 2.5 0 0 1-4.995-.218zm3.697-27.364a2.5 2.5 0 1 0-.218 4.995 2.5 2.5 0 0 0 .218-4.995zm-1.516-22.588a2.5 2.5 0 1 1 4.995.218 2.5 2.5 0 0 1-4.995-.218zM14.66 5.564a2.5 2.5 0 1 0-.218 4.995 2.5 2.5 0 0 0 .218-4.995z" fill="#DADDEC"/>
</svg>
