<svg width="60" height="64" viewBox="0 0 60 64" fill="none" xmlns="http://www.w3.org/2000/svg">
    <path fill-rule="evenodd" clip-rule="evenodd" d="M0 4l60-4v60L0 64V4z" fill="#FF4F61"/>
    <rect x="21" y="21" width="20" height="20" rx="6" stroke="#fff" stroke-width="2"/>
    <path fill-rule="evenodd" clip-rule="evenodd" d="M26 31a5 5 0 1 1 10 0 5 5 0 0 1-10 0zm2 0c0 1.654 1.346 3 3 3s3-1.346 3-3c0-1.655-1.346-3-3-3s-3 1.345-3 3z" fill="#fff"/>
    <path d="M36.5 27a1.5 1.5 0 1 0 0-3 1.5 1.5 0 0 0 0 3z" fill="#fff"/>
</svg>
