<svg width="392" height="243" viewBox="0 0 392 243" fill="none" xmlns="http://www.w3.org/2000/svg">
    <path fill-rule="evenodd" clip-rule="evenodd" d="M390.982 41.69a3.334 3.334 0 1 1-6.667-.101 3.334 3.334 0 0 1 6.667.101zm-36.713 2.78a3.334 3.334 0 1 0 .1-6.667 3.334 3.334 0 0 0-.1 6.667zm-29.946-3.785a3.333 3.333 0 1 1-6.664-.099 3.333 3.333 0 0 1 6.664.1zm-36.713 2.78a3.333 3.333 0 1 0 .101-6.665 3.334 3.334 0 0 0-.101 6.666zm-29.946-3.784a3.333 3.333 0 1 1-6.665-.1 3.333 3.333 0 0 1 6.665.1zm-36.712 2.78a3.334 3.334 0 1 0 .1-6.667 3.334 3.334 0 0 0-.1 6.667zm-29.947-3.785a3.334 3.334 0 1 1-6.667-.102 3.334 3.334 0 0 1 6.667.102zm-36.712 2.78a3.334 3.334 0 1 0 .1-6.668 3.334 3.334 0 0 0-.1 6.668zm-29.946-3.786a3.334 3.334 0 1 1-6.667-.102 3.334 3.334 0 0 1 6.667.102zm-36.713 2.78a3.333 3.333 0 1 0 .1-6.665 3.333 3.333 0 0 0-.1 6.666zm-29.946-3.784a3.333 3.333 0 1 1-6.666-.1 3.333 3.333 0 0 1 6.666.1zm-33.33-.503a3.333 3.333 0 1 1-6.665-.1 3.333 3.333 0 0 1 6.666.1zm-6.6 36.552a3.333 3.333 0 1 0 .1-6.666 3.333 3.333 0 0 0-.1 6.666zm36.712-2.78a3.333 3.333 0 1 1-6.666-.101 3.333 3.333 0 0 1 6.666.1zm29.946 3.784a3.333 3.333 0 1 0 .1-6.665 3.333 3.333 0 0 0-.1 6.665zm36.713-2.78a3.334 3.334 0 1 1-6.667-.102 3.334 3.334 0 0 1 6.667.102zm29.946 3.785a3.334 3.334 0 1 0 .1-6.667 3.334 3.334 0 0 0-.1 6.667zm36.713-2.78a3.334 3.334 0 1 1-6.667-.1 3.334 3.334 0 0 1 6.667.1zm29.946 3.786a3.333 3.333 0 1 0 .1-6.666 3.333 3.333 0 0 0-.1 6.666zm36.713-2.78a3.333 3.333 0 1 1-6.666-.1 3.333 3.333 0 0 1 6.666.1zm29.945 3.784a3.334 3.334 0 1 0 .1-6.667 3.334 3.334 0 0 0-.1 6.667zm36.712-2.78a3.334 3.334 0 1 1-6.667-.102 3.334 3.334 0 0 1 6.667.102zm29.947 3.785a3.334 3.334 0 1 0 .1-6.667 3.334 3.334 0 0 0-.1 6.667zm36.712-2.78a3.333 3.333 0 1 1-6.666-.1 3.333 3.333 0 0 1 6.666.1zm-373.41 30.914a3.333 3.333 0 1 0 .1-6.665 3.333 3.333 0 0 0-.1 6.665zm36.712-2.78a3.333 3.333 0 1 1-6.666-.1 3.333 3.333 0 0 1 6.666.1zm29.946 3.785a3.333 3.333 0 1 0 .1-6.666 3.333 3.333 0 0 0-.1 6.666zm36.712-2.78a3.332 3.332 0 1 1-6.666-.101 3.334 3.334 0 0 1 6.666.101zm29.946 3.785a3.332 3.332 0 0 0 3.383-3.283 3.332 3.332 0 1 0-6.665-.1 3.334 3.334 0 0 0 3.282 3.383zm36.713-2.78a3.332 3.332 0 1 1-6.665-.1 3.332 3.332 0 1 1 6.665.1zm29.946 3.785a3.334 3.334 0 1 0 .101-6.667 3.334 3.334 0 0 0-.101 6.667zm36.714-2.78a3.334 3.334 0 1 1-6.667-.1 3.334 3.334 0 0 1 6.667.1zm29.944 3.785a3.332 3.332 0 1 0 .101-6.666 3.334 3.334 0 0 0-.101 6.666zm36.713-2.78a3.334 3.334 0 1 1-6.667-.103 3.334 3.334 0 0 1 6.667.103zm29.946 3.785a3.334 3.334 0 1 0 .1-6.667 3.334 3.334 0 0 0-.1 6.667zm36.713-2.781a3.334 3.334 0 1 1-6.667-.1 3.334 3.334 0 0 1 6.667.1zm-373.41 30.915a3.333 3.333 0 1 0 .1-6.666 3.333 3.333 0 0 0-.1 6.666zm36.711-2.78a3.334 3.334 0 1 1-6.666-.1 3.334 3.334 0 0 1 6.666.1zm29.947 3.785a3.333 3.333 0 1 0 .1-6.666 3.333 3.333 0 0 0-.1 6.666zm36.712-2.781a3.334 3.334 0 1 1-6.667-.1 3.334 3.334 0 0 1 6.667.1zm29.946 3.786a3.334 3.334 0 1 0 .1-6.667 3.334 3.334 0 0 0-.1 6.667zm36.713-2.78a3.333 3.333 0 1 1-6.665-.1 3.333 3.333 0 0 1 6.665.1zm29.946 3.785a3.332 3.332 0 1 0 .101-6.666 3.335 3.335 0 0 0-.101 6.666zm36.713-2.78a3.333 3.333 0 1 1-6.665-.1 3.333 3.333 0 0 1 6.665.1zm29.945 3.785a3.334 3.334 0 1 0 .1-6.667 3.334 3.334 0 0 0-.1 6.667zm36.712-2.781a3.333 3.333 0 1 1-6.665-.1 3.333 3.333 0 0 1 6.665.1zm29.947 3.786a3.334 3.334 0 1 0 .1-6.667 3.334 3.334 0 0 0-.1 6.667zm36.712-2.781a3.332 3.332 0 1 1-6.665-.1 3.332 3.332 0 1 1 6.665.1zM7.542 172.191a3.334 3.334 0 1 0 .1-6.667 3.334 3.334 0 0 0-.1 6.667zm36.712-2.78a3.333 3.333 0 1 1-6.665-.101 3.333 3.333 0 0 1 6.665.101zm29.946 3.785a3.334 3.334 0 1 0 .1-6.667 3.334 3.334 0 0 0-.1 6.667zm36.713-2.781a3.334 3.334 0 1 1-6.667-.101 3.334 3.334 0 0 1 6.667.101zm29.946 3.785a3.334 3.334 0 1 0 .1-6.666 3.334 3.334 0 0 0-.1 6.666zm36.713-2.779a3.334 3.334 0 1 1-6.668-.102 3.334 3.334 0 0 1 6.668.102zm29.946 3.785a3.334 3.334 0 1 0 .1-6.667 3.334 3.334 0 0 0-.1 6.667zm36.713-2.78a3.333 3.333 0 1 1-6.665-.101 3.333 3.333 0 0 1 6.665.101zm29.944 3.784a3.333 3.333 0 1 0 .103-6.665 3.333 3.333 0 0 0-.103 6.665zm36.713-2.78a3.334 3.334 0 1 1-6.667-.1 3.334 3.334 0 0 1 6.667.1zm29.947 3.785a3.334 3.334 0 1 0 .1-6.666 3.334 3.334 0 0 0-.1 6.666zm36.712-2.78a3.334 3.334 0 1 1-6.667-.1 3.334 3.334 0 0 1 6.667.1zM4.137 205.349a3.333 3.333 0 1 0 .1-6.665 3.333 3.333 0 0 0-.1 6.665zm36.712-2.78a3.333 3.333 0 1 1-6.666-.1 3.333 3.333 0 0 1 6.666.1zm29.946 3.785a3.333 3.333 0 1 0 .1-6.665 3.333 3.333 0 0 0-.1 6.665zm36.712-2.78a3.333 3.333 0 1 1-6.665-.1 3.333 3.333 0 0 1 6.665.1zm29.946 3.786a3.333 3.333 0 1 0 .1-6.665 3.333 3.333 0 0 0-.1 6.665zm36.713-2.78a3.332 3.332 0 1 1-6.666-.101 3.334 3.334 0 0 1 6.666.101zm29.946 3.785a3.334 3.334 0 1 0 .1-6.667 3.334 3.334 0 0 0-.1 6.667zm36.714-2.78a3.335 3.335 0 0 1-6.666-.1 3.332 3.332 0 1 1 6.666.1zm29.944 3.784a3.334 3.334 0 1 0 .1-6.667 3.334 3.334 0 0 0-.1 6.667zm36.712-2.781a3.332 3.332 0 1 1-6.665-.1 3.333 3.333 0 1 1 6.665.1zm29.947 3.786a3.332 3.332 0 0 0 3.383-3.283 3.332 3.332 0 1 0-6.665-.1 3.334 3.334 0 0 0 3.282 3.383zm36.713-2.78a3.334 3.334 0 1 1-6.667-.103 3.334 3.334 0 0 1 6.667.103z" fill="#DADDEC"/>
</svg>
