<svg width="94" height="120" viewBox="0 0 94 120" xmlns="http://www.w3.org/2000/svg">
    <title>
        Group 3
    </title>
    <g fill="none" fill-rule="evenodd">
        <path fill="#1A1A76" d="M17.007-67H100L82.993 120H0z"/>
        <g fill="#FFF" fill-rule="nonzero">
            <path d="M45.15 72a15.672 15.672 0 0 1-4.387-.623l1.486-5.133c.938.275 1.91.413 2.887.412 5.253 0 9.517-3.888 9.517-8.689 0-4.8-4.25-8.623-9.503-8.623-4.214 0-7.872 2.462-9.099 6.118L31 53.753C32.963 47.917 38.649 44 45.15 44 53.369 44 60 50.278 60 57.996 60 65.715 53.369 72 45.15 72z"/>
            <path d="M39 49h5v29h-5z"/>
            <path d="M56 92H34v-6h22z"/>
        </g>
    </g>
</svg>
