<svg width="100" height="194" viewBox="0 0 100 194" xmlns="http://www.w3.org/2000/svg">
    <title>
        Group 15
    </title>
    <g fill="none" fill-rule="evenodd">
        <path fill="#1A1A76" d="M16.896 3.966L100 0 82.693 194H0z"/>
        <g fill="#FFF" fill-rule="nonzero">
            <path d="M45.15 146a15.672 15.672 0 0 1-4.387-.623l1.486-5.133c.938.275 1.91.413 2.887.412 5.253 0 9.517-3.888 9.517-8.689 0-4.8-4.25-8.623-9.503-8.623-4.214 0-7.872 2.462-9.099 6.118L31 127.753c1.963-5.836 7.649-9.753 14.15-9.753 8.219 0 14.85 6.278 14.85 13.996C60 139.715 53.369 146 45.15 146z"/>
            <path d="M39 123h5v29h-5z"/>
            <path d="M56 166H34v-6h22z"/>
        </g>
    </g>
</svg>
