<svg width="58" height="63" viewBox="0 0 58 63" xmlns="http://www.w3.org/2000/svg">
    <title>
        Group 13
    </title>
    <g fill-rule="nonzero" fill="none">
        <path fill="#27227C" d="M4.248 3.738L58 0l-5 60-53 3z"/>
        <path d="M31.63 24.71a.679.679 0 0 0-.982 0 .719.719 0 0 0 0 .994l4.983 5.088-12.943.005A.692.692 0 0 0 22 31.5a.7.7 0 0 0 .688.713l12.943-.005-4.983 5.078a.731.731 0 0 0 0 1.003c.275.281.718.281.983 0l6.163-6.292a.701.701 0 0 0 0-.993L31.63 24.71z" fill="#FFF"/>
    </g>
</svg>
