<svg width="208" height="158" viewBox="0 0 208 158" fill="none" xmlns="http://www.w3.org/2000/svg">
    <path d="M.713 13.667L143.94 23.739l-.046 134.065L.667 147.732.713 13.667z" fill="#E8E8F1"/>
    <path opacity=".1" fill-rule="evenodd" clip-rule="evenodd" d="M185.999 4.555a2.911 2.911 0 1 1 5.734-1.01A2.911 2.911 0 0 1 186 4.554zm7.417 25.298a2.91 2.91 0 1 0 1.01 5.733 2.91 2.91 0 0 0-1.01-5.733zm5.056 28.67a2.911 2.911 0 1 0 1.01 5.735 2.911 2.911 0 0 0-1.01-5.734zm-30.604 10.762a2.911 2.911 0 1 1 5.734-1.011 2.911 2.911 0 0 1-5.734 1.01zm-2.694-32.043a2.911 2.911 0 1 0 1.012 5.734 2.911 2.911 0 0 0-1.012-5.734zm-7.417-25.298a2.912 2.912 0 1 1 5.736-1.01 2.912 2.912 0 0 1-5.736 1.01zm-18.01 64.876a2.911 2.911 0 1 1 5.734-1.011 2.911 2.911 0 0 1-5.734 1.01zm-2.694-32.043a2.911 2.911 0 1 0 1.012 5.734 2.911 2.911 0 0 0-1.012-5.734zm-7.417-25.298a2.911 2.911 0 1 1 5.734-1.011 2.911 2.911 0 0 1-5.734 1.01zm-18.01 64.876a2.911 2.911 0 1 1 5.735-1.01 2.911 2.911 0 0 1-5.735 1.01zm-2.694-32.043a2.911 2.911 0 1 0 1.012 5.734 2.911 2.911 0 0 0-1.012-5.734zm-7.417-25.298a2.911 2.911 0 1 1 5.734-1.011 2.911 2.911 0 0 1-5.734 1.01zM83.505 91.89a2.911 2.911 0 1 1 5.734-1.011 2.911 2.911 0 0 1-5.734 1.01zm-2.694-32.043a2.911 2.911 0 1 0 1.011 5.734 2.911 2.911 0 0 0-1.01-5.734zm-7.417-25.298a2.911 2.911 0 1 1 5.734-1.012 2.911 2.911 0 0 1-5.734 1.012zm-18.01 64.876a2.911 2.911 0 1 1 5.734-1.011 2.911 2.911 0 0 1-5.734 1.01zM52.69 67.382a2.911 2.911 0 1 0 1.011 5.734 2.911 2.911 0 0 0-1.01-5.734zm-7.417-25.298a2.911 2.911 0 1 1 5.734-1.012 2.911 2.911 0 0 1-5.734 1.012z" fill="#14146D"/>
</svg>
