<svg width="141" height="169" viewBox="0 0 141 169" fill="none" xmlns="http://www.w3.org/2000/svg">
    <path d="M.245 23.349l138.14-11.096 2.294 131.378L2.538 154.727.245 23.349z" fill="#E8E8F1"/>
    <path opacity=".1" fill-rule="evenodd" clip-rule="evenodd" d="M69.47 6.945a2.911 2.911 0 1 1 1.992-5.472 2.911 2.911 0 0 1-1.992 5.472zm25.617 6.226a2.911 2.911 0 1 0 5.472 1.99 2.911 2.911 0 0 0-5.472-1.99zm27.358 9.957a2.911 2.911 0 1 0 5.47 1.991 2.911 2.911 0 0 0-5.47-1.991zm-5.983 31.884a2.911 2.911 0 1 1 1.991-5.472 2.911 2.911 0 0 1-1.991 5.472zM87.365 41.323a2.911 2.911 0 1 0 5.472 1.991 2.911 2.911 0 0 0-5.472-1.991zm-25.617-6.226a2.911 2.911 0 1 1 1.991-5.471 2.911 2.911 0 0 1-1.991 5.471zm47.179 48.036a2.911 2.911 0 1 1 1.991-5.472 2.911 2.911 0 0 1-1.991 5.472zM79.83 69.444a2.911 2.911 0 1 0 5.472 1.991 2.911 2.911 0 0 0-5.472-1.991zm-25.617-6.226a2.911 2.911 0 1 1 1.991-5.471 2.911 2.911 0 0 1-1.991 5.471zm47.179 48.036a2.912 2.912 0 1 1 1.993-5.472 2.912 2.912 0 0 1-1.993 5.472zM72.295 97.565a2.91 2.91 0 1 0 5.472 1.992 2.911 2.911 0 0 0-5.472-1.992zm-25.617-6.226a2.911 2.911 0 1 1 1.991-5.471 2.911 2.911 0 0 1-1.991 5.471zm47.18 48.036a2.912 2.912 0 1 1 1.992-5.472 2.912 2.912 0 0 1-1.993 5.472zM64.76 125.686a2.912 2.912 0 1 0 5.473 1.992 2.912 2.912 0 0 0-5.473-1.992zm-25.617-6.226a2.91 2.91 0 1 1 1.99-5.47 2.91 2.91 0 0 1-1.99 5.47zm47.18 48.036a2.912 2.912 0 1 1 1.992-5.472 2.912 2.912 0 0 1-1.993 5.472zm-29.098-13.689a2.912 2.912 0 1 0 5.473 1.992 2.912 2.912 0 0 0-5.473-1.992zm-25.617-6.226a2.91 2.91 0 1 1 1.99-5.47 2.91 2.91 0 0 1-1.99 5.47z" fill="#14146D"/>
</svg>
