<svg width="198" height="195" viewBox="0 0 198 195" fill="none" xmlns="http://www.w3.org/2000/svg">
    <path d="M21.667 26.186l29.636 168.079L182.832 82.816 21.667 26.186z" fill="#E8E8F1"/>
    <path opacity=".1" fill-rule="evenodd" clip-rule="evenodd" d="M99.583 9.269a2.911 2.911 0 1 1 4.124-4.11 2.911 2.911 0 0 1-4.124 4.11zm20.558 16.504a2.911 2.911 0 1 0 4.109 4.125 2.911 2.911 0 0 0-4.109-4.125zm20.55 20.62a2.911 2.911 0 1 0 4.11 4.125 2.911 2.911 0 0 0-4.11-4.124zM121.75 72.73a2.911 2.911 0 1 1 4.124-4.11 2.911 2.911 0 0 1-4.124 4.11zm-20.544-24.738a2.911 2.911 0 1 0 4.11 4.124 2.911 2.911 0 0 0-4.11-4.124zM80.648 31.488a2.911 2.911 0 1 1 4.125-4.11 2.911 2.911 0 0 1-4.125 4.11zM102.998 95a2.912 2.912 0 1 1 4.126-4.11 2.912 2.912 0 0 1-4.126 4.11zM82.455 70.262a2.911 2.911 0 1 0 4.11 4.124 2.911 2.911 0 0 0-4.11-4.124zM61.897 53.758a2.911 2.911 0 1 1 4.124-4.11 2.911 2.911 0 0 1-4.124 4.11zm22.35 63.512a2.911 2.911 0 1 1 4.124-4.11 2.911 2.911 0 0 1-4.124 4.11zM63.703 92.531a2.911 2.911 0 1 0 4.11 4.125 2.911 2.911 0 0 0-4.11-4.125zM43.145 76.028a2.911 2.911 0 1 1 4.125-4.11 2.911 2.911 0 0 1-4.125 4.11zm22.35 63.512a2.911 2.911 0 1 1 4.124-4.11 2.911 2.911 0 0 1-4.124 4.11zm-20.543-24.739a2.912 2.912 0 1 0 4.112 4.125 2.912 2.912 0 0 0-4.112-4.125zM24.394 98.298a2.911 2.911 0 1 1 4.124-4.11 2.911 2.911 0 0 1-4.124 4.11zm22.35 63.512a2.912 2.912 0 1 1 4.126-4.11 2.912 2.912 0 0 1-4.126 4.11zM26.2 137.071a2.912 2.912 0 1 0 4.112 4.125 2.912 2.912 0 0 0-4.112-4.125zM5.642 120.567a2.911 2.911 0 1 1 4.124-4.11 2.911 2.911 0 0 1-4.124 4.11z" fill="#14146D"/>
</svg>
