<svg width="75" height="126" viewBox="0 0 75 126" fill="none" xmlns="http://www.w3.org/2000/svg">
    <path opacity=".1" fill-rule="evenodd" clip-rule="evenodd" d="M30.103 5.208a2.183 2.183 0 1 1 1.494-4.103 2.183 2.183 0 0 1-1.494 4.103zm19.213 4.67a2.183 2.183 0 1 0 4.103 1.494 2.183 2.183 0 0 0-4.103-1.494zm20.518 7.468a2.183 2.183 0 1 0 4.103 1.493 2.183 2.183 0 0 0-4.103-1.493zm-4.487 23.913a2.183 2.183 0 1 1 1.494-4.104 2.183 2.183 0 0 1-1.494 4.104zM43.524 30.992a2.183 2.183 0 1 0 4.103 1.494 2.183 2.183 0 0 0-4.103-1.494zm-19.213-4.67a2.183 2.183 0 1 1 1.494-4.103 2.183 2.183 0 0 1-1.494 4.104zM59.696 62.35a2.183 2.183 0 1 1 1.493-4.104 2.183 2.183 0 0 1-1.493 4.103zM37.873 52.082a2.183 2.183 0 1 0 4.103 1.493 2.183 2.183 0 0 0-4.103-1.493zm-19.213-4.67a2.183 2.183 0 1 1 1.493-4.103 2.183 2.183 0 0 1-1.493 4.104zM54.045 83.44a2.183 2.183 0 1 1 1.493-4.103 2.183 2.183 0 0 1-1.493 4.103zM32.221 73.174a2.183 2.183 0 1 0 4.103 1.493 2.183 2.183 0 0 0-4.103-1.493zm-19.213-4.67a2.183 2.183 0 1 1 1.493-4.103 2.183 2.183 0 0 1-1.493 4.103zm35.384 36.027a2.183 2.183 0 1 1 1.493-4.104 2.183 2.183 0 0 1-1.493 4.104zM26.57 94.264a2.184 2.184 0 1 0 4.104 1.494 2.184 2.184 0 0 0-4.104-1.493zM7.357 89.596a2.184 2.184 0 1 1 1.494-4.104 2.184 2.184 0 0 1-1.494 4.104zm35.385 36.027a2.184 2.184 0 1 1 1.495-4.104 2.184 2.184 0 0 1-1.495 4.104zm-21.823-10.267a2.184 2.184 0 1 0 4.105 1.494 2.184 2.184 0 0 0-4.105-1.494zm-19.213-4.669a2.184 2.184 0 1 1 1.495-4.105 2.184 2.184 0 0 1-1.495 4.105z" fill="#1A1A76"/>
</svg>
