<svg width="204" height="181" viewBox="0 0 204 181" fill="none" xmlns="http://www.w3.org/2000/svg">
    <path fill-rule="evenodd" clip-rule="evenodd" d="M56.426 176.42L178.595 47.73c-22.057-24.278-56.755-35.38-90.418-25.727-47.226 13.541-74.533 62.803-60.99 110.029 5.196 18.124 15.654 33.314 29.24 44.388z" fill="#E8E8F1"/>
    <path opacity=".1" fill-rule="evenodd" clip-rule="evenodd" d="M6.685 79.24a2.911 2.911 0 1 1-5.471-1.992 2.911 2.911 0 0 1 5.471 1.992zm6.226-25.618a2.911 2.911 0 1 0 1.992-5.471 2.911 2.911 0 0 0-1.992 5.471zm9.958-27.357a2.911 2.911 0 1 0 1.99-5.471 2.911 2.911 0 0 0-1.99 5.471zm31.883 5.982a2.911 2.911 0 1 1-5.471-1.991 2.911 2.911 0 0 1 5.471 1.991zM41.064 61.345a2.911 2.911 0 1 0 1.991-5.472 2.911 2.911 0 0 0-1.991 5.472zm-6.226 25.617a2.911 2.911 0 1 1-5.472-1.991 2.911 2.911 0 0 1 5.472 1.99zm48.036-47.18a2.911 2.911 0 1 1-5.472-1.991 2.911 2.911 0 0 1 5.472 1.991zM69.184 68.88a2.911 2.911 0 1 0 1.992-5.472 2.911 2.911 0 0 0-1.991 5.472zM62.96 94.497a2.911 2.911 0 1 1-5.472-1.991 2.911 2.911 0 0 1 5.472 1.99zm48.035-47.18a2.91 2.91 0 1 1-5.471-1.991 2.911 2.911 0 1 1 5.471 1.991zM97.306 76.415a2.911 2.911 0 1 0 1.991-5.471 2.911 2.911 0 0 0-1.991 5.47zm-6.226 25.617a2.911 2.911 0 1 1-5.471-1.99 2.911 2.911 0 0 1 5.47 1.99zm48.036-47.18a2.912 2.912 0 1 1-5.472-1.992 2.912 2.912 0 0 1 5.472 1.992zM125.427 83.95a2.91 2.91 0 1 0 1.991-5.47 2.91 2.91 0 0 0-1.991 5.47zm-6.226 25.617a2.912 2.912 0 1 1-5.472-1.992 2.912 2.912 0 0 1 5.472 1.992zm48.036-47.18a2.912 2.912 0 1 1-5.472-1.992 2.912 2.912 0 0 1 5.472 1.992zm-13.689 29.098a2.91 2.91 0 1 0 1.991-5.47 2.91 2.91 0 0 0-1.991 5.47zm-6.226 25.617a2.911 2.911 0 1 1-5.471-1.991 2.911 2.911 0 0 1 5.471 1.991z" fill="#14146D"/>
</svg>
