<svg width="248" height="243" viewBox="0 0 248 243" fill="none" xmlns="http://www.w3.org/2000/svg">
    <path d="M27.387 89.447l147.138-56.063 46.392 119.963-147.138 56.062L27.387 89.447z" fill="#E8E8F1"/>
    <path opacity=".1" fill-rule="evenodd" clip-rule="evenodd" d="M38.734 52.318a2.911 2.911 0 1 1-2.46-5.277 2.911 2.911 0 0 1 2.46 5.277zM61.25 38.606a2.911 2.911 0 1 0 5.278-2.46 2.911 2.911 0 0 0-5.278 2.46zm26.386-12.304a2.911 2.911 0 1 0 5.277-2.46 2.911 2.911 0 0 0-5.277 2.46zm18.315 26.776a2.912 2.912 0 1 1-2.46-5.278 2.912 2.912 0 0 1 2.46 5.278zM75.697 63.973a2.911 2.911 0 1 0 5.277-2.46 2.911 2.911 0 0 0-5.277 2.46zM53.18 77.685a2.911 2.911 0 1 1-2.46-5.277 2.911 2.911 0 0 1 2.46 5.277zm67.327.605a2.91 2.91 0 1 1-2.46-5.277 2.912 2.912 0 1 1 2.46 5.277zM90.253 89.186a2.911 2.911 0 1 0 5.277-2.46 2.911 2.911 0 0 0-5.277 2.46zm-22.516 13.712a2.912 2.912 0 1 1-2.46-5.278 2.912 2.912 0 0 1 2.46 5.278zm67.327.605a2.911 2.911 0 1 1-2.461-5.277 2.911 2.911 0 0 1 2.461 5.277zm-30.254 10.896a2.912 2.912 0 1 0 5.277-2.462 2.912 2.912 0 0 0-5.277 2.462zM82.293 128.11a2.911 2.911 0 1 1-2.46-5.276 2.911 2.911 0 0 1 2.46 5.276zm67.328.606a2.912 2.912 0 1 1-2.46-5.278 2.912 2.912 0 0 1 2.46 5.278zm-30.255 10.895a2.911 2.911 0 1 0 5.277-2.461 2.911 2.911 0 0 0-5.277 2.461zM96.85 153.323a2.912 2.912 0 1 1-2.46-5.278 2.912 2.912 0 0 1 2.46 5.278zm67.327.605a2.911 2.911 0 1 1-2.461-5.277 2.911 2.911 0 0 1 2.461 5.277zm-30.254 10.896a2.912 2.912 0 1 0 5.277-2.462 2.912 2.912 0 0 0-5.277 2.462zm-22.517 13.711a2.91 2.91 0 1 1 1.409-3.868 2.91 2.91 0 0 1-1.409 3.868z" fill="#14146D"/>
</svg>
