<svg width="186" height="148" viewBox="0 0 186 148" fill="none" xmlns="http://www.w3.org/2000/svg">
    <path d="M159 0L.333 26.667l28 121.333 113.334-9.333L159 0z" fill="#E8E8F1"/>
    <path opacity=".1" fill-rule="evenodd" clip-rule="evenodd" d="M179.432 52.396a2.91 2.91 0 1 1 5.471 1.991 2.911 2.911 0 1 1-5.471-1.991zm-6.226 25.617a2.912 2.912 0 1 0-1.992 5.473 2.912 2.912 0 0 0 1.992-5.473zm-9.958 27.357a2.911 2.911 0 1 0-1.991 5.471 2.911 2.911 0 0 0 1.991-5.471zm-31.884-5.982a2.912 2.912 0 1 1 5.472 1.993 2.912 2.912 0 0 1-5.472-1.993zm13.689-29.097a2.91 2.91 0 1 0-1.991 5.47 2.91 2.91 0 0 0 1.991-5.47zm6.226-25.617a2.911 2.911 0 1 1 5.471 1.991 2.911 2.911 0 0 1-5.471-1.991zm-48.036 47.18a2.912 2.912 0 1 1 5.472 1.992 2.912 2.912 0 0 1-5.472-1.993zm13.689-29.098a2.91 2.91 0 1 0-1.991 5.47 2.91 2.91 0 0 0 1.991-5.47zm6.226-25.617a2.911 2.911 0 1 1 5.471 1.991 2.911 2.911 0 0 1-5.471-1.991zm-48.036 47.18a2.911 2.911 0 1 1 5.472 1.99 2.911 2.911 0 0 1-5.472-1.99zm13.69-29.098a2.911 2.911 0 1 0-1.992 5.472 2.911 2.911 0 0 0 1.991-5.472zm6.225-25.617a2.911 2.911 0 1 1 5.472 1.991 2.911 2.911 0 0 1-5.472-1.991zm-48.036 47.18a2.911 2.911 0 1 1 5.472 1.99 2.911 2.911 0 0 1-5.472-1.99zm13.69-29.098a2.911 2.911 0 1 0-1.992 5.471 2.911 2.911 0 0 0 1.991-5.471zm6.225-25.617a2.911 2.911 0 1 1 5.471 1.991 2.911 2.911 0 0 1-5.471-1.991zM18.88 69.249a2.911 2.911 0 1 1 5.472 1.99 2.911 2.911 0 0 1-5.472-1.99zM32.57 40.15a2.911 2.911 0 1 0-1.992 5.471 2.911 2.911 0 0 0 1.991-5.471zm6.225-25.617a2.911 2.911 0 1 1 5.471 1.991 2.911 2.911 0 0 1-5.471-1.991z" fill="#14146D"/>
</svg>
