<svg width="57" height="63" viewBox="0 0 57 63" xmlns="http://www.w3.org/2000/svg">
    <title>
        Group 12
    </title>
    <g fill-rule="nonzero" fill="none">
        <path fill="#E9EBF2" d="M52.752 59.262L0 63 3 3l54-3z"/>
        <path d="M26.37 38.29c.265.28.707.28.982 0a.719.719 0 0 0 0-.994l-4.983-5.088 12.943-.005A.692.692 0 0 0 36 31.5a.7.7 0 0 0-.688-.713l-12.943.005 4.983-5.078a.731.731 0 0 0 0-1.003.679.679 0 0 0-.983 0l-6.163 6.292a.701.701 0 0 0 0 .993l6.163 6.293z" fill="#1A1A76"/>
    </g>
</svg>
