<svg width="177" height="151" viewBox="0 0 177 151" fill="none" xmlns="http://www.w3.org/2000/svg">
    <path d="M.667 8l176-8v142.667l-176 8V8z" fill="#14146D"/>
    <path fill-rule="evenodd" clip-rule="evenodd" d="M90.107 53.874c-5.842.336-11.514 4.337-13.205 9.844.534-13.296 9.825-13.929 18.273-14.504 3.586-.245 7.021-.479 9.569-1.667 9.731-4.59 6.179-18.687-6.01-16.688-.77.075-.91.573-1.128 1.359l-.064.229c-.538 2.252-2.665 2.588-6.127 3.134-3.082.486-7.22 1.139-12.24 3.457-12.019 5.587-12.866 21.858-11.93 34.788.848 10.18 8.894 21.278 22.01 21.278 13.962 0 22.426-8.258 22.426-20.775.009-12.61-9.135-21.122-21.574-20.454zm8.213-16.576c.466-.328.766-.752 1.057-1.164.445-.63.868-1.23 1.833-1.409 1.539-.28 2.95.882 2.463 2.893-.486 2.011-2.576 2.508-4.732 2.488-2.3-.015-3.877-.768-3.967-1.218-.09-.431.58-.612 1.402-.833.657-.177 1.41-.38 1.947-.757h-.003zM83.597 74.314c0 4.504.841 11.267 5.666 11.267 5.16 0 5.753-6.51 5.753-11.267 0-5.09-.766-11.346-5.753-11.346-4.905 0-5.666 6.424-5.666 11.346z" fill="#fff"/>
    <path fill-rule="evenodd" clip-rule="evenodd" d="M43.828 110.886c2.283 0 3.414-1.323 3.414-3.221 0-1.737-1.504-3.135-4.15-2.68v-1.1s1.877.354 2.699-.024c.713-.286 1.086-1.16.835-1.957a.1.1 0 0 0-.088-.063 26.416 26.416 0 0 0-5.815 0c-.031 0-.056.028-.056.063v5.517c0 1.556.824 3.465 3.16 3.465zm-.726-4.432c1.022-.22 1.78.172 1.78 1.457 0 .684-.286 1.493-.889 1.493-.659 0-.877-.675-.89-1.249v-1.701z" fill="#fff"/>
    <path fill-rule="evenodd" clip-rule="evenodd" d="M54.889 110.884c.722 0 1.42-.472 1.548-.859.036-.1-.023-.131-.121-.181-.22-.113-.635-.327-.627-1.654 0-.832.092-3.581.092-3.581a.071.071 0 0 0-.054-.062h-2.585a.081.081 0 0 0-.062.073v.836c-.354-.695-1.102-1.14-1.926-1.146-1.692 0-2.597 1.653-2.597 3.268 0 1.615.905 3.291 2.532 3.291.904 0 1.601-.577 2.04-1.36.127.81.884 1.401 1.76 1.375zm-2.701-4.944c.631 0 .967.736.967 1.639h-.012c0 .905-.32 1.629-.955 1.629s-.97-.727-.97-1.629c0-.903.339-1.639.97-1.639z" fill="#fff"/>
    <path fill-rule="evenodd" clip-rule="evenodd" d="M61.75 111.031c1.695 0 2.588-1.654 2.588-3.348 0-1.655-.893-3.373-2.502-3.373-.906 0-1.604.592-2.044 1.409-.13-.827-.885-1.432-1.76-1.409-.73 0-1.428.481-1.572.877-.037.104.014.135.1.187.192.116.56.339.56 1.693v6.388c-.013.06.053.06.053.06h2.588a.076.076 0 0 0 .063-.072v-3.586c.354.711 1.102 1.167 1.927 1.174zm-1.033-5.014c.635 0 .971.742.971 1.667 0 .928-.336 1.682-.971 1.682-.636 0-.969-.757-.969-1.682 0-.925.334-1.667.969-1.667z" fill="#fff"/>
    <path fill-rule="evenodd" clip-rule="evenodd" d="M71.981 110.884c.725 0 1.422-.472 1.55-.859.039-.101-.019-.131-.116-.182-.217-.113-.63-.329-.63-1.653 0-.832.088-3.581.088-3.581a.069.069 0 0 0-.05-.062h-2.584a.081.081 0 0 0-.066.073v.836c-.352-.696-1.1-1.141-1.924-1.146-1.692 0-2.596 1.653-2.596 3.268 0 1.615.904 3.291 2.533 3.291.904 0 1.601-.577 2.04-1.36.125.809.88 1.401 1.755 1.375zm-2.7-4.944c.634 0 .97.736.97 1.639 0 .905-.336 1.629-.967 1.629-.63 0-.966-.724-.966-1.629 0-.906.33-1.639.963-1.639z" fill="#fff"/>
    <path d="M81.421 110.062c-.13.376-.816.823-1.527.823-1.03 0-1.782-.676-1.782-1.813v-.811h-1.237v2.321a.078.078 0 0 1-.065.074h-2.545s-.062 0-.05-.062c0 0 .09-2.756.09-3.587 0-1.925-.866-1.513-.751-1.84.139-.387.826-.857 1.546-.857 1.03 0 1.782.702 1.782 1.836v.702h1.236v-2.203c0-.017.006-.032.017-.044a.062.062 0 0 1 .045-.018h2.444s.052 0 .052.062v3.578c-.006 1.913.872 1.501.745 1.839z" fill="#fff"/>
    <path d="M89.314 110.024c-.138.388-.82.86-1.534.86-.86.023-1.598-.577-1.715-1.392-.531 1.028-1.378 1.392-2.047 1.392-.92 0-1.73-.787-1.73-1.993v-1.886c0-1.92-.958-1.509-.845-1.838.139-.384.82-.857 1.535-.857.507-.009.996.184 1.35.532.355.348.544.821.522 1.306v2.349c0 1.175 1.135.796 1.184-.555v-3.333a.073.073 0 0 1 .052-.073h2.538a.068.068 0 0 1 .049.062s-.101 2.754-.101 3.588c-.004 1.923.856 1.512.742 1.838z" fill="#fff"/>
    <path fill-rule="evenodd" clip-rule="evenodd" d="M92.766 110.885c1.843 0 2.894-1.422 3.032-1.93.037-.108.013-.155-.037-.182a.144.144 0 0 0-.166 0c-1.542.821-3.223.701-3.665-.507 1.656.267 3.97.038 3.97-1.857 0-.856-.898-2.099-2.972-2.099-2.175 0-3.604 1.522-3.604 3.281a3.209 3.209 0 0 0 1.004 2.33 3.522 3.522 0 0 0 2.438.964zm-.937-3.689v0zm0 0c1.124.096 1.683-.294 1.683-.951a.573.573 0 0 0-.2-.435.631.631 0 0 0-.473-.151h-.037a.813.813 0 0 0-.307.108c-.425.269-.613.842-.666 1.429z" fill="#fff"/>
    <path d="M103.777 110.062c-.127.376-.816.823-1.527.823-1.03 0-1.782-.676-1.782-1.813v-.811h-1.237v2.321a.078.078 0 0 1-.065.074h-2.545s-.062 0-.05-.062c0 0 .09-2.756.09-3.587 0-1.925-.866-1.513-.751-1.84.139-.387.826-.857 1.546-.857 1.03 0 1.781.702 1.781 1.836v.702h1.237v-2.203c0-.017.006-.032.017-.044a.063.063 0 0 1 .045-.018h2.446s.05 0 .05.062v3.578c-.003 1.913.872 1.501.745 1.839z" fill="#fff"/>
    <path fill-rule="evenodd" clip-rule="evenodd" d="M107.192 105.005c-.885.049-1.652.604-1.943 1.405.079-1.895 1.439-1.988 2.679-2.073.531-.036 1.039-.071 1.415-.245 1.431-.654.907-2.668-.884-2.384-.112 0-.133.078-.162.192l-.01.037c-.08.32-.393.368-.901.446-.453.07-1.062.164-1.801.495-1.767.797-1.891 3.121-1.755 4.969.124 1.449 1.307 3.039 3.238 3.039 2.054 0 3.297-1.179 3.297-2.967 0-1.787-1.34-3.01-3.173-2.914zm1.21-2.371c.068-.046.112-.106.155-.164.066-.09.129-.176.272-.201a.311.311 0 0 1 .324.09c.079.09.093.217.036.322-.07.289-.379.359-.696.356-.318-.003-.569-.11-.584-.174-.015-.061.083-.088.204-.12a.948.948 0 0 0 .286-.109h.003zm-2.167 5.29c0 .643.124 1.607.834 1.608h-.002.002c.746-.001.843-.93.846-1.608 0-.727-.121-1.622-.845-1.622-.723 0-.835.918-.835 1.622z" fill="#fff"/>
    <path fill-rule="evenodd" clip-rule="evenodd" d="M118.007 110.884c.722 0 1.419-.472 1.551-.859.04-.101-.017-.131-.114-.183-.215-.113-.628-.331-.636-1.652 0-.832.091-3.581.091-3.581a.072.072 0 0 0-.054-.062h-2.583a.08.08 0 0 0-.062.073v.836c-.352-.696-1.1-1.141-1.924-1.146-1.692 0-2.596 1.653-2.596 3.268 0 1.615.904 3.291 2.53 3.291.904 0 1.604-.577 2.04-1.36.126.81.882 1.401 1.757 1.375zm-2.699-4.944c.634 0 .97.736.97 1.639 0 .905-.336 1.629-.97 1.629-.634 0-.966-.727-.966-1.629 0-.903.332-1.639.966-1.639z" fill="#fff"/>
    <path d="M122.953 113.515c-1.684 0-2.462-1.199-2.599-1.679-.185-.6-.07-.717.059-.69.28.048.612.963 1.903.963.802.004 1.462-.675 1.49-1.532v-1.233c-.472 1.062-1.257 1.43-1.869 1.43-.842 0-1.583-.8-1.583-2.035v-1.677c0-1.961-.879-1.541-.775-1.877.127-.392.752-.875 1.404-.875.461-.008.905.19 1.224.546.32.356.486.838.459 1.331v2.144c0 1.235 1.084.803 1.123-.639v-3.076c0-.06.045-.06.045-.06h2.228c.014 0 .027.007.036.019a.059.059 0 0 1 .012.041s.034 3.598.034 5.232c.064 2.135-1.056 3.667-3.191 3.667z" fill="#fff"/>
    <path d="M136.667 110.582c0 .064-.049.064-.049.064h-2.438s-.048 0-.048-.064v-2.405l.128-1.358-1.594 3.714c-.024.073-.049.101-.162.101h-.304a.147.147 0 0 1-.15-.101l-1.267-3.222c.004.442-.018.883-.064 1.322-.21 1.625-.939 2.252-1.941 2.252-.817 0-1.317-.591-1.317-.857s.427-.101.89-2.142c.287-1.223.162-3.512.162-3.512 0-.064.051-.064.051-.064h2.618c.037 0 .061.052.061.052l1.127 2.353h.04l1.219-2.365a.063.063 0 0 1 .064-.04h2.806s.04 0 .04.052c.015.293.128 6.22.128 6.22z" fill="#fff"/>
</svg>
