<svg width="222" height="382" viewBox="0 0 222 382" fill="none" xmlns="http://www.w3.org/2000/svg">
    <path fill-rule="evenodd" clip-rule="evenodd" d="M202.153 1.009a3.333 3.333 0 1 0-.29 6.66 3.333 3.333 0 0 0 .29-6.66zm-4.929 36.486a3.333 3.333 0 1 1 6.66.29 3.333 3.333 0 0 1-6.66-.29zm2.021 30.117a3.333 3.333 0 1 0-.29 6.659 3.333 3.333 0 0 0 .29-6.66zm-4.929 36.486a3.333 3.333 0 1 1 6.661.291 3.333 3.333 0 0 1-6.661-.291zm2.021 30.117a3.333 3.333 0 1 0-.291 6.659 3.333 3.333 0 0 0 .291-6.659zm-4.929 36.486a3.333 3.333 0 1 1 6.66.29 3.333 3.333 0 0 1-6.66-.29zm2.021 30.117a3.333 3.333 0 1 0-.29 6.66 3.333 3.333 0 0 0 .29-6.66zm-4.929 36.485a3.333 3.333 0 1 1 6.66.292 3.333 3.333 0 0 1-6.66-.292zm2.022 30.118a3.334 3.334 0 1 0-.29 6.662 3.334 3.334 0 0 0 .29-6.662zm-4.93 36.486a3.335 3.335 0 0 1 6.661.291 3.333 3.333 0 0 1-6.661-.291zm2.022 30.116a3.335 3.335 0 0 0-.291 6.661 3.335 3.335 0 0 0 .291-6.661zm-1.454 33.302a3.333 3.333 0 1 0-.293 6.659 3.333 3.333 0 0 0 .293-6.659zm-36.876 4.445a3.333 3.333 0 1 1 6.66.29 3.333 3.333 0 0 1-6.66-.29zm4.93-36.486a3.332 3.332 0 1 0-.291 6.66 3.333 3.333 0 0 0 .291-6.66zm-2.022-30.117a3.334 3.334 0 1 1 6.66.29 3.334 3.334 0 0 1-6.66-.29zm4.93-36.486a3.334 3.334 0 1 0-.291 6.66 3.334 3.334 0 0 0 .291-6.66zm-2.022-30.116a3.334 3.334 0 1 1 6.66.29 3.334 3.334 0 0 1-6.66-.29zm4.929-36.487a3.334 3.334 0 1 0-.29 6.662 3.334 3.334 0 0 0 .29-6.662zm-2.022-30.117a3.333 3.333 0 1 1 6.66.292 3.333 3.333 0 0 1-6.66-.292zm4.93-36.487a3.335 3.335 0 0 0-.291 6.661 3.335 3.335 0 0 0 .291-6.661zm-2.021-30.114a3.333 3.333 0 1 1 6.659.289 3.333 3.333 0 0 1-6.659-.289zm4.929-36.486a3.333 3.333 0 1 0-.291 6.659 3.333 3.333 0 0 0 .291-6.66zm-2.021-30.118a3.333 3.333 0 1 1 6.659.29 3.333 3.333 0 0 1-6.659-.29zm4.929-36.486a3.333 3.333 0 1 0-.29 6.66 3.333 3.333 0 0 0 .29-6.66zm-52.77 370.954a3.333 3.333 0 1 1 6.66.29 3.333 3.333 0 0 1-6.66-.29zm4.929-36.486a3.332 3.332 0 0 0-3.475 3.184 3.332 3.332 0 1 0 6.66.291 3.333 3.333 0 0 0-3.185-3.475zm-2.021-30.117a3.333 3.333 0 1 1 6.66.29 3.333 3.333 0 0 1-6.66-.29zm4.929-36.486a3.333 3.333 0 1 0-.29 6.66 3.333 3.333 0 0 0 .29-6.66zm-2.021-30.116a3.333 3.333 0 1 1 6.659.289 3.333 3.333 0 0 1-6.659-.289zm4.929-36.487a3.333 3.333 0 1 0-.292 6.66 3.333 3.333 0 0 0 .292-6.66zm-2.022-30.117a3.332 3.332 0 0 1 3.476-3.184 3.333 3.333 0 1 1-3.476 3.184zm4.93-36.487a3.334 3.334 0 1 0-.291 6.66 3.334 3.334 0 0 0 .291-6.66zm-2.022-30.114a3.334 3.334 0 1 1 6.66.29 3.334 3.334 0 0 1-6.66-.29zm4.93-36.486a3.334 3.334 0 1 0-.29 6.662 3.334 3.334 0 0 0 .29-6.662zm-2.022-30.118a3.334 3.334 0 1 1 6.662.293 3.334 3.334 0 0 1-6.662-.293zm4.93-36.486a3.334 3.334 0 1 0-.29 6.662 3.334 3.334 0 0 0 .29-6.662zm-52.77 370.954a3.334 3.334 0 1 1 6.66.292 3.334 3.334 0 0 1-6.66-.292zm4.929-36.486a3.332 3.332 0 1 0-.291 6.66 3.334 3.334 0 0 0 .29-6.66zm-2.022-30.117a3.334 3.334 0 1 1 6.662.291 3.334 3.334 0 0 1-6.662-.291zm4.93-36.486a3.334 3.334 0 1 0-.29 6.661 3.334 3.334 0 0 0 .29-6.661zm-2.022-30.116a3.333 3.333 0 1 1 6.66.29 3.333 3.333 0 0 1-6.66-.29zm4.93-36.487a3.332 3.332 0 1 0-.292 6.66 3.333 3.333 0 1 0 .291-6.66zm-2.022-30.117a3.334 3.334 0 1 1 6.661.291 3.334 3.334 0 0 1-6.661-.291zm4.93-36.487a3.334 3.334 0 1 0-.29 6.661 3.334 3.334 0 0 0 .29-6.661zm-2.022-30.115a3.332 3.332 0 1 1 6.66.291 3.334 3.334 0 1 1-6.66-.291zm4.93-36.486a3.333 3.333 0 1 0-.291 6.66 3.333 3.333 0 0 0 .29-6.66zM97.22 41.664a3.333 3.333 0 1 1 6.66.29 3.333 3.333 0 0 1-6.66-.29zm4.929-36.486a3.333 3.333 0 1 0-.29 6.66 3.333 3.333 0 0 0 .29-6.66zM49.38 376.132a3.333 3.333 0 1 1 6.66.29 3.333 3.333 0 0 1-6.66-.29zm4.93-36.486a3.332 3.332 0 1 0-.291 6.66 3.334 3.334 0 0 0 .29-6.66zm-2.022-30.117a3.334 3.334 0 1 1 6.661.291 3.334 3.334 0 0 1-6.661-.291zm4.93-36.486a3.334 3.334 0 1 0-.29 6.661 3.334 3.334 0 0 0 .29-6.661zm-2.022-30.116a3.333 3.333 0 1 1 6.66.29 3.333 3.333 0 0 1-6.66-.29zm4.929-36.487a3.332 3.332 0 1 0-.291 6.66 3.334 3.334 0 0 0 .29-6.66zm-2.022-30.117a3.334 3.334 0 1 1 6.662.291 3.334 3.334 0 0 1-6.662-.291zm4.93-36.487a3.334 3.334 0 1 0-.29 6.661 3.334 3.334 0 0 0 .29-6.661zm-2.022-30.115a3.332 3.332 0 1 1 6.66.291 3.334 3.334 0 0 1-6.66-.291zm4.93-36.486a3.333 3.333 0 1 0-.291 6.66 3.333 3.333 0 0 0 .291-6.66zm-2.022-30.117a3.333 3.333 0 1 1 6.66.29 3.333 3.333 0 0 1-6.66-.29zm4.93-36.486a3.333 3.333 0 1 0-.29 6.66 3.333 3.333 0 0 0 .29-6.66zM16.08 377.586a3.333 3.333 0 1 1 6.66.29 3.333 3.333 0 0 1-6.66-.29zm4.929-36.486a3.332 3.332 0 1 0-.29 6.66 3.334 3.334 0 0 0 .29-6.66zm-2.021-30.117a3.334 3.334 0 1 1 6.66.291 3.334 3.334 0 0 1-6.66-.291zm4.928-36.486a3.334 3.334 0 1 0-.29 6.662 3.334 3.334 0 0 0 .29-6.662zm-2.021-30.116a3.333 3.333 0 1 1 6.66.29 3.333 3.333 0 0 1-6.66-.29zm4.93-36.487a3.332 3.332 0 1 0-.291 6.66 3.334 3.334 0 0 0 .29-6.66zM24.8 177.777a3.334 3.334 0 1 1 6.661.291 3.334 3.334 0 0 1-6.66-.291zm4.93-36.487a3.334 3.334 0 1 0-.29 6.661 3.334 3.334 0 0 0 .29-6.661zm-2.02-30.115a3.332 3.332 0 1 1 6.66.291 3.334 3.334 0 0 1-6.66-.291zm4.929-36.486a3.333 3.333 0 1 0-.291 6.66 3.333 3.333 0 0 0 .29-6.66zm-2.022-30.117a3.333 3.333 0 1 1 6.66.29 3.333 3.333 0 0 1-6.66-.29zm4.93-36.486a3.333 3.333 0 1 0-.291 6.66 3.333 3.333 0 0 0 .29-6.66z" fill="#E9EBF2" fill-opacity=".3"/>
</svg>
