<svg width="24" height="24" viewBox="0 0 24 24" fill="none" xmlns="http://www.w3.org/2000/svg">
    <g clip-path="url(#a)" fill="#14146D">
        <path d="M19.977 3.121l-.366.149S6.638 8.574 2.613 10.268l-.611.257v2.254l4.945 1.977 1.733 5.24 1.572.01 2.703-2.285 3.4 3.275h2.454l3.156-17.121-1.988-.754zm-.33 2.297l-2.5 13.563-4.102-3.952-2.82 2.381.775-3.035L17.281 8l-.199-.201s-6.375 3.675-9.08 5.224L4.537 11.64c4.54-1.893 14.16-5.833 15.11-6.221z"/>
        <path d="M18.809 20.996h-2.454l1.989 1.973.465-1.973z"/>
        <path d="M19.977 3.121l1.988.754.348-1.688-2.336.934z"/>
        <path d="M2.002 12.78v-2.255L-.375 11.64l2.377 1.14z"/>
        <path d="M10.252 20.006l-1.572-.01.37 1.104 1.202-1.094z"/>
    </g>
    <defs>
        <clipPath id="a">
            <path d="M0 0h24v24H0V0z" fill="#fff"/>
        </clipPath>
    </defs>
</svg>
