<svg width="33" height="33" viewBox="0 0 33 33" fill="none" xmlns="http://www.w3.org/2000/svg">
    <g clip-path="url(#a)" fill="#1A1A76" opacity=".5">
        <path d="M27.302 4.495l-.487.198s-17.298 7.072-22.664 9.33l-.815.344v3.005l6.594 2.636 2.31 6.987 2.096.013 3.604-3.047 4.534 4.367h3.271L29.953 5.5l-2.65-1.005zm-.44 3.062L23.53 25.641l-5.469-5.269-3.76 3.175 1.034-4.047 8.375-8.5-.266-.268s-8.5 4.9-12.107 6.966l-4.62-1.846c6.054-2.525 18.882-7.777 20.146-8.295z"/>
        <path d="M25.745 28.328h-3.27l2.65 2.63.62-2.63z"/>
        <path d="M27.302 4.495L29.953 5.5l.464-2.25-3.115 1.245z"/>
        <path d="M3.336 17.372v-3.005L.167 15.852l3.17 1.52z"/>
        <path d="M14.336 27.008l-2.096-.013.494 1.472 1.602-1.46z"/>
    </g>
    <defs>
        <clipPath id="a">
            <path d="M.667.333h32v32h-32v-32z" fill="#fff"/>
        </clipPath>
    </defs>
</svg>
