<svg width="33" height="33" viewBox="0 0 33 33" fill="none" xmlns="http://www.w3.org/2000/svg">
    <g opacity=".5">
        <rect x="2.999" y="3.333" width="26.667" height="26.667" rx="8" stroke="#1A1A76" stroke-width="2.667"/>
        <path d="M15.78 11.67c-.98-.011-1.813 0-2.282.229-.312.15-.552.494-.406.51.182.026.594.114.812.411.282.38.271 1.24.271 1.24s.156 2.364-.38 2.661c-.37.203-.875-.208-1.969-2.088-.557-.969-.979-2.037-.979-2.037s-.078-.197-.224-.302c-.177-.13-.422-.172-.422-.172l-2.61.016s-.39.016-.53.182c-.13.157-.01.464-.01.464s2.041 4.776 4.353 7.182c2.12 2.208 4.527 2.063 4.527 2.063h1.093s.328-.037.495-.214c.156-.167.151-.479.151-.479s-.02-1.464.656-1.682c.672-.209 1.526 1.416 2.438 2.041.692.474 1.219.37 1.219.37l2.437-.036s1.27-.078.667-1.084c-.047-.078-.35-.74-1.808-2.093-1.53-1.417-1.328-1.188.516-3.641 1.12-1.495 1.568-2.406 1.427-2.802-.135-.37-.958-.27-.958-.27l-2.745.015s-.203-.026-.354.062c-.146.089-.24.297-.24.297s-.437 1.156-1.015 2.14c-1.22 2.074-1.714 2.188-1.912 2.058-.463-.302-.349-1.208-.349-1.849 0-2.016.307-2.849-.594-3.068-.296-.073-.515-.12-1.276-.125z" fill="#1A1A76"/>
    </g>
</svg>
