<svg width="24" height="24" viewBox="0 0 24 24" fill="none" xmlns="http://www.w3.org/2000/svg">
    <rect x="2" y="2" width="20" height="20" rx="6" stroke="#14146D" stroke-width="2"/>
    <path d="M11.585 8.252c-.735-.008-1.36 0-1.711.172-.235.113-.414.37-.305.383.137.02.445.086.61.308.21.285.203.93.203.93s.117 1.773-.286 1.996c-.277.152-.656-.156-1.476-1.566a13.376 13.376 0 0 1-.735-1.528s-.058-.148-.168-.226c-.132-.098-.316-.13-.316-.13l-1.957.013s-.293.011-.398.136c-.098.117-.008.348-.008.348s1.531 3.582 3.265 5.387c1.59 1.656 3.395 1.546 3.395 1.546h.82s.246-.027.371-.16c.118-.125.114-.359.114-.359s-.016-1.098.492-1.262c.504-.156 1.144 1.063 1.828 1.531.52.356.914.278.914.278l1.828-.027s.953-.06.5-.813c-.035-.059-.262-.555-1.355-1.57-1.149-1.063-.997-.89.386-2.73.84-1.122 1.176-1.805 1.07-2.102-.1-.278-.718-.203-.718-.203l-2.059.011s-.152-.02-.265.047c-.11.067-.18.223-.18.223s-.328.867-.762 1.605c-.914 1.555-1.285 1.64-1.433 1.543-.348-.226-.262-.906-.262-1.386 0-1.512.23-2.137-.445-2.301-.223-.055-.387-.09-.957-.094z" fill="#14146D"/>
</svg>
