<svg width="33" height="33" viewBox="0 0 33 33" fill="none" xmlns="http://www.w3.org/2000/svg">
    <path d="M16.349 3C9.008 3 3.031 8.971 3.029 16.313a13.285 13.285 0 0 0 1.778 6.656L3 29.667l6.977-1.649a13.307 13.307 0 0 0 6.364 1.62h.005c7.34 0 13.314-5.973 13.318-13.313a13.23 13.23 0 0 0-3.896-9.421A13.23 13.23 0 0 0 16.35 3zm-.003 2.667a10.6 10.6 0 0 1 7.537 3.122 10.572 10.572 0 0 1 3.114 7.534c-.002 5.872-4.779 10.648-10.653 10.648a10.665 10.665 0 0 1-5.089-1.294l-.898-.49-.992.235-2.625.62.64-2.38.29-1.068-.553-.959a10.64 10.64 0 0 1-1.422-5.323c.003-5.869 4.78-10.645 10.651-10.645zm-4.71 4.5c-.223 0-.583.083-.889.416-.305.332-1.166 1.136-1.166 2.774 0 1.637 1.192 3.22 1.36 3.442.164.222 2.301 3.688 5.684 5.021 2.81 1.108 3.381.89 3.992.834.61-.055 1.97-.804 2.248-1.581.277-.777.278-1.446.195-1.583-.083-.14-.305-.222-.638-.388-.332-.167-1.968-.97-2.274-1.081-.305-.11-.528-.167-.75.166-.22.334-.857 1.081-1.052 1.303-.194.222-.388.252-.721.086-.333-.169-1.405-.52-2.677-1.654-.99-.881-1.657-1.969-1.852-2.302-.193-.332-.018-.515.149-.68.15-.15.33-.389.497-.583.165-.195.223-.334.333-.555.111-.221.055-.417-.028-.583-.083-.167-.73-1.81-1.026-2.469-.25-.553-.513-.566-.75-.575-.194-.009-.414-.008-.636-.008z" fill="#1A1A76" opacity=".5"/>
</svg>
